{"glyphs":{"0":{"ha":872,"x_min":45,"x_max":828,"o":"m 612 302 q 618 280 626 295 q 508 162 580 207 q 349 118 435 118 q 134 207 223 118 q 45 422 45 296 q 134 638 45 549 q 349 727 223 727 q 508 683 435 727 q 618 565 580 638 q 612 543 626 550 q 600 541 605 539 q 589 549 592 544 q 491 655 555 615 q 349 694 427 694 q 157 615 236 694 q 77 422 77 536 q 157 230 77 309 q 349 151 236 151 q 491 190 427 151 q 589 296 555 230 q 600 304 592 301 q 612 302 605 306 m 567 553 q 561 555 564 551 q 471 640 527 608 q 349 672 415 672 q 173 599 246 672 q 100 422 100 526 q 173 246 100 319 q 349 173 246 173 q 471 205 415 173 q 561 290 527 237 q 567 292 564 294 q 569 285 572 289 q 476 196 534 229 q 349 163 418 163 q 166 239 242 163 q 90 422 90 315 q 166 606 90 530 q 349 682 242 682 q 476 649 418 682 q 569 559 534 616 q 567 553 572 555 m 383 465 l 383 410 q 370 401 376 408 l 370 465 q 369 473 370 470 q 366 476 368 475 q 359 477 365 477 l 359 479 l 376 479 l 395 479 l 395 477 q 387 476 389 477 q 384 473 385 475 q 383 465 383 471 m 359 380 l 359 384 q 366 385 365 384 q 369 388 368 385 q 375 398 371 394 q 381 403 378 401 l 383 404 l 383 395 q 384 388 383 389 q 387 385 385 386 q 395 384 389 384 l 395 380 q 387 381 393 380 q 376 381 380 381 q 366 381 372 381 q 359 380 360 380 m 252 444 q 243 434 250 438 q 228 429 237 429 l 229 428 q 239 425 236 427 q 245 419 243 423 q 249 410 248 414 l 252 395 q 254 389 254 390 q 256 385 256 386 q 260 384 258 384 q 263 385 262 384 l 264 386 q 266 388 265 387 q 267 389 267 389 l 269 388 q 262 381 267 384 q 254 379 259 379 q 245 382 248 379 q 239 394 242 384 l 236 408 q 234 414 235 410 q 233 419 233 418 q 229 425 233 422 q 220 428 224 428 l 207 428 l 207 395 q 208 388 207 391 q 211 385 210 385 q 218 384 212 384 l 218 380 q 211 381 217 380 q 201 381 205 381 q 190 381 196 381 q 183 380 184 380 l 183 384 q 190 385 189 384 q 193 388 192 386 q 194 395 194 389 l 194 465 q 193 473 194 471 q 190 476 192 475 q 183 477 189 477 l 183 479 l 200 479 l 212 479 l 221 479 q 239 476 231 479 q 251 468 247 473 q 254 455 254 464 q 252 444 254 448 m 239 441 q 241 454 241 446 q 235 471 241 464 q 218 477 231 477 q 211 476 212 477 q 208 472 210 475 q 207 465 207 469 l 207 431 l 216 431 q 231 433 227 431 q 239 441 237 437 m 331 385 q 334 389 334 386 q 332 395 334 391 l 323 418 l 322 421 l 307 463 l 290 421 l 290 418 l 284 404 q 281 392 281 395 q 284 386 281 388 q 293 384 287 384 l 293 380 q 285 381 290 380 q 277 381 280 381 q 272 381 275 381 q 267 380 268 380 l 267 384 q 277 395 273 386 l 311 480 l 313 480 l 347 393 q 357 384 349 384 l 357 380 q 350 381 355 380 q 342 381 345 381 q 331 381 337 381 q 323 380 325 380 l 323 384 q 331 385 330 384 m 449 427 q 457 418 454 423 q 460 406 460 413 q 456 391 460 397 q 445 382 452 385 q 430 378 437 378 q 419 380 427 378 q 411 384 416 381 q 406 386 408 386 q 404 385 406 386 q 404 380 404 384 l 400 380 q 401 413 401 385 l 404 413 q 411 390 404 399 q 429 382 416 382 q 438 383 435 382 q 445 390 443 385 q 448 400 448 393 q 445 410 448 406 q 437 418 441 416 q 426 426 429 425 q 412 435 414 433 q 404 444 408 439 q 401 457 401 450 q 404 471 401 465 q 414 479 409 476 q 427 481 419 481 q 434 480 430 481 q 437 480 435 480 q 439 479 439 479 q 444 476 444 477 q 449 474 447 474 q 451 475 450 474 q 452 480 452 476 l 455 480 q 454 452 454 475 l 451 452 q 448 465 450 463 q 441 475 447 470 q 429 479 435 479 q 420 477 424 479 q 414 471 416 475 q 411 463 411 465 q 416 450 411 456 q 427 441 418 447 q 435 437 431 439 q 449 427 442 433 m 491 398 l 513 471 q 514 471 513 471 q 515 471 515 471 q 516 470 516 471 l 516 469 l 492 398 q 492 397 492 397 q 491 398 491 397 m 541 421 q 523 419 534 419 l 519 419 l 514 419 q 505 422 506 420 q 507 425 505 424 q 511 426 508 426 q 543 429 532 426 q 561 440 555 433 q 566 461 566 448 l 566 462 l 566 462 l 566 462 l 566 462 l 566 462 l 566 462 l 566 462 l 568 462 l 568 462 l 568 462 l 568 462 l 568 462 l 568 462 l 568 462 l 568 461 q 562 439 568 448 q 543 428 557 432 q 511 425 532 425 l 508 425 q 511 421 505 422 q 515 420 513 420 q 519 420 517 420 q 523 420 522 420 q 541 422 532 420 q 557 430 551 426 q 570 441 566 435 q 576 458 576 449 q 572 469 576 464 q 566 478 568 476 q 556 484 561 481 q 547 487 548 487 q 531 488 542 488 q 518 488 522 488 q 506 485 510 486 q 500 483 504 484 q 494 481 496 482 q 489 479 492 481 q 484 477 485 477 l 481 475 q 477 473 478 474 l 475 471 q 467 463 469 465 q 464 452 464 459 l 464 451 q 472 437 465 441 q 495 437 482 431 l 495 437 l 496 437 l 496 437 l 496 437 l 496 437 l 496 437 l 496 437 l 496 437 l 496 436 l 496 436 l 496 436 l 496 436 l 496 436 q 471 435 481 428 q 463 450 464 440 l 463 450 l 463 451 l 462 451 l 462 452 l 462 454 q 463 460 462 456 q 465 465 464 463 q 468 469 466 467 l 470 471 l 473 473 l 476 475 q 490 484 486 482 q 504 488 494 486 q 519 491 508 490 q 533 492 524 492 q 543 491 540 492 q 553 488 550 490 q 562 484 559 486 q 570 477 568 479 q 576 467 573 474 q 577 458 577 464 q 575 447 577 452 q 573 444 574 446 q 571 441 572 443 q 569 439 570 439 q 563 433 566 435 q 557 429 559 430 q 541 421 549 424 m 635 454 l 633 454 l 633 455 l 633 456 l 634 458 q 635 460 634 460 l 637 459 l 637 458 l 635 454 q 635 454 635 454 m 826 427 q 828 425 828 426 q 827 420 828 422 q 819 418 826 420 q 787 424 816 418 q 741 424 760 430 q 707 425 719 417 l 704 428 l 699 419 q 697 417 699 418 q 696 415 696 416 l 694 411 l 692 407 q 688 402 689 403 q 682 399 684 398 q 682 413 680 399 q 682 417 682 414 q 683 422 682 420 q 685 427 684 424 q 686 431 686 429 q 687 435 686 432 q 688 439 688 438 q 682 430 684 433 q 676 422 680 427 q 669 414 672 416 q 662 412 665 412 q 659 414 661 412 q 659 423 657 417 q 656 420 658 422 q 654 416 654 418 q 644 407 648 409 q 635 410 637 404 q 635 425 633 416 q 626 413 633 422 q 616 398 619 404 q 614 393 614 396 q 612 388 614 390 q 606 373 611 385 q 600 356 602 361 q 594 347 597 351 q 592 344 593 345 l 591 344 q 589 345 589 344 q 588 349 588 347 q 589 355 588 350 q 599 374 591 360 q 614 399 606 388 q 625 429 622 422 q 622 426 624 428 q 619 424 621 425 q 613 425 616 421 l 612 423 q 611 421 612 422 q 610 420 610 420 q 608 416 610 418 q 606 414 607 416 q 599 416 601 411 q 599 426 597 420 q 598 425 598 426 l 597 425 q 594 424 596 424 q 593 425 593 424 q 594 435 591 426 q 583 424 588 430 q 574 410 579 420 l 573 410 l 572 410 l 572 411 q 576 427 573 416 q 578 434 576 429 q 581 441 580 439 q 520 409 562 410 l 519 409 l 519 409 l 519 409 l 519 410 l 519 410 l 519 410 l 519 410 l 519 410 l 519 410 l 519 410 l 519 411 l 520 411 q 584 452 565 411 q 585 452 584 452 l 586 452 l 587 451 l 587 451 l 585 446 l 579 431 l 577 423 q 575 419 576 422 q 574 416 574 416 q 581 426 578 422 q 589 435 584 429 l 595 440 l 596 441 l 597 441 l 597 442 l 599 441 l 599 440 q 598 438 599 439 q 597 436 597 437 q 594 425 592 426 q 600 429 597 425 q 611 441 604 440 q 613 439 613 441 q 614 437 614 438 l 614 436 q 615 435 615 435 q 614 433 615 434 l 614 431 l 614 429 l 614 428 l 613 427 l 614 426 q 620 426 616 422 q 622 428 621 427 q 624 431 623 430 q 627 435 625 433 l 627 437 q 628 437 627 437 l 629 437 l 629 437 l 629 437 l 629 437 l 629 436 q 618 405 623 418 q 626 415 620 407 q 635 428 631 424 l 636 430 q 642 441 638 436 q 650 445 646 446 q 652 435 655 443 q 644 421 649 422 q 641 422 642 421 l 641 424 l 642 424 q 643 422 642 422 q 648 429 647 422 l 648 430 q 650 442 653 441 q 643 437 647 443 q 638 423 640 431 q 639 410 637 415 q 648 412 642 406 q 657 424 652 416 q 659 426 658 425 q 659 427 659 427 l 659 428 l 660 429 q 666 440 662 435 q 675 445 669 446 q 680 442 678 445 q 680 437 681 439 q 675 434 678 434 q 671 436 672 433 q 673 438 671 438 q 675 437 674 438 q 679 438 677 435 q 679 441 679 439 q 675 444 678 445 q 661 422 667 441 q 662 414 658 415 q 676 424 667 412 q 690 448 686 436 l 684 448 q 684 448 684 448 l 684 449 l 690 450 q 698 469 695 463 q 701 469 699 471 q 702 467 702 468 q 694 450 694 453 q 715 451 705 452 q 732 453 726 450 q 739 463 739 455 l 741 464 q 740 452 748 456 q 720 449 739 448 q 693 449 701 450 q 687 429 689 441 q 686 427 686 429 q 686 425 686 425 q 685 420 685 423 l 683 411 q 682 400 680 401 q 687 403 684 399 q 692 409 690 407 l 693 412 q 695 416 694 413 q 698 420 697 418 q 701 425 699 422 q 703 429 702 427 q 702 432 702 431 q 705 440 700 438 q 707 440 706 441 q 705 429 709 437 l 708 426 q 741 425 719 418 q 787 425 760 431 q 819 420 816 420 q 826 422 824 421 q 827 425 827 422 q 825 426 827 426 q 824 426 825 427 q 823 425 823 426 q 824 424 823 425 q 825 424 825 425 q 825 422 826 423 l 825 422 l 823 422 q 822 425 822 422 q 826 427 822 429 m 600 416 q 609 420 602 410 q 612 426 611 423 q 610 427 610 426 q 607 431 607 428 q 608 435 607 433 q 608 436 608 435 q 609 438 608 437 l 608 437 l 606 435 l 606 434 q 601 426 602 429 q 600 418 600 423 q 600 417 600 418 q 600 416 600 416 m 612 427 q 613 433 613 431 q 612 439 613 437 l 612 438 l 611 438 q 610 437 610 438 q 610 436 610 437 q 609 434 609 435 l 609 431 q 612 427 609 428 m 610 389 l 610 390 q 601 374 608 387 q 591 355 592 358 q 590 349 590 349 q 591 346 590 347 q 592 348 591 347 q 597 357 595 352 q 610 389 597 358 m 706 439 q 703 436 704 439 q 704 431 703 433 q 706 439 709 437 m 497 584 q 498 578 497 584 q 491 562 498 572 q 472 550 484 551 q 450 557 460 549 q 437 576 439 565 q 442 598 435 588 q 462 610 451 610 q 484 604 473 612 q 497 584 495 595 m 479 572 q 476 592 488 583 q 465 595 471 596 q 455 589 459 593 q 458 568 446 577 q 479 572 469 559 m 218 605 q 239 610 229 612 q 258 599 252 608 q 262 578 264 589 q 250 559 260 567 l 232 547 l 200 592 l 218 605 m 245 590 q 236 596 241 595 q 226 593 231 597 l 220 589 l 236 567 l 241 571 q 245 590 253 579 m 413 583 l 398 586 l 399 618 l 379 589 l 374 589 l 366 623 l 356 593 l 340 595 l 358 648 l 373 646 l 381 614 l 399 642 l 414 640 l 413 583 m 311 644 l 314 632 l 294 627 l 296 618 l 314 623 l 317 611 l 300 606 l 302 599 l 322 604 l 326 591 l 290 582 l 277 635 l 311 644 m 254 274 q 255 268 254 274 q 248 253 256 262 q 229 242 241 243 q 208 250 218 241 l 191 264 l 226 307 l 243 293 q 254 274 252 285 m 229 286 l 212 265 l 216 261 q 236 263 227 252 q 234 282 245 273 l 229 286 m 472 297 q 491 286 483 296 q 497 263 498 275 q 484 243 495 252 q 461 237 473 235 q 442 248 450 238 q 436 270 435 258 q 449 290 438 282 q 472 297 459 298 m 455 258 q 476 255 465 245 q 479 275 488 264 q 469 281 475 280 q 458 279 463 283 q 455 258 446 269 m 387 203 l 383 202 l 363 231 l 364 199 l 349 197 l 349 253 l 363 255 l 381 227 l 389 259 l 404 262 l 421 208 l 406 205 l 397 237 l 387 203 m 317 243 l 298 250 l 296 241 l 313 237 l 309 224 l 292 229 l 290 221 l 310 216 l 307 203 l 271 213 l 287 267 l 321 256 l 317 243 m 471 496 q 465 497 467 493 q 416 542 446 526 q 350 559 385 559 q 284 542 314 559 q 235 496 254 526 q 229 494 233 492 q 227 501 224 497 q 279 550 247 532 q 350 568 312 568 q 420 550 387 568 q 472 502 452 532 q 471 496 475 498 m 471 361 q 478 363 474 366 q 480 356 483 360 q 427 298 462 320 q 350 277 392 277 q 271 300 307 277 q 218 362 235 323 q 220 368 216 366 l 221 368 q 226 366 224 370 q 276 308 242 330 q 350 286 309 286 q 422 307 389 286 q 471 361 454 327 m 144 421 q 198 559 144 500 q 202 561 199 561 q 205 560 204 561 q 205 553 209 556 q 154 421 154 496 q 197 298 154 352 q 197 292 200 294 q 190 292 193 289 q 144 421 144 349 m 503 559 q 507 557 505 559 q 532 522 519 543 q 530 515 534 518 q 524 517 526 513 q 499 551 512 538 q 500 557 497 555 q 503 559 501 559 m 545 382 q 549 386 546 386 q 549 386 549 386 q 550 385 549 385 q 554 380 555 384 q 515 295 545 334 q 509 294 512 291 q 507 300 505 296 q 545 382 535 337 z "},"1":{"ha":872,"x_min":45,"x_max":828,"o":"m 612 302 q 618 280 626 295 q 508 162 580 207 q 349 118 435 118 q 134 207 223 118 q 45 422 45 296 q 134 638 45 549 q 349 727 223 727 q 508 683 435 727 q 618 565 580 638 q 612 543 626 550 q 600 541 605 539 q 589 549 592 544 q 491 655 555 615 q 349 694 427 694 q 157 615 236 694 q 77 422 77 536 q 157 230 77 309 q 349 151 236 151 q 491 190 427 151 q 589 296 555 230 q 600 304 592 301 q 612 302 605 306 m 567 553 q 561 555 564 551 q 471 640 527 608 q 349 672 415 672 q 173 599 246 672 q 100 422 100 526 q 173 246 100 319 q 349 173 246 173 q 471 205 415 173 q 561 290 527 237 q 567 292 564 294 q 569 285 572 289 q 476 196 534 229 q 349 163 418 163 q 166 239 242 163 q 90 422 90 315 q 166 606 90 530 q 349 682 242 682 q 476 649 418 682 q 569 559 534 616 q 567 553 572 555 m 383 465 l 383 410 q 370 401 376 408 l 370 465 q 369 473 370 470 q 366 476 368 475 q 359 477 365 477 l 359 479 l 376 479 l 395 479 l 395 477 q 387 476 389 477 q 384 473 385 475 q 383 465 383 471 m 359 380 l 359 384 q 366 385 365 384 q 369 388 368 385 q 375 398 371 394 q 381 403 378 401 l 383 404 l 383 395 q 384 388 383 389 q 387 385 385 386 q 395 384 389 384 l 395 380 q 387 381 393 380 q 376 381 380 381 q 366 381 372 381 q 359 380 360 380 m 252 444 q 243 434 250 438 q 228 429 237 429 l 229 428 q 239 425 236 427 q 245 419 243 423 q 249 410 248 414 l 252 395 q 254 389 254 390 q 256 385 256 386 q 260 384 258 384 q 263 385 262 384 l 264 386 q 266 388 265 387 q 267 389 267 389 l 269 388 q 262 381 267 384 q 254 379 259 379 q 245 382 248 379 q 239 394 242 384 l 236 408 q 234 414 235 410 q 233 419 233 418 q 229 425 233 422 q 220 428 224 428 l 207 428 l 207 395 q 208 388 207 391 q 211 385 210 385 q 218 384 212 384 l 218 380 q 211 381 217 380 q 201 381 205 381 q 190 381 196 381 q 183 380 184 380 l 183 384 q 190 385 189 384 q 193 388 192 386 q 194 395 194 389 l 194 465 q 193 473 194 471 q 190 476 192 475 q 183 477 189 477 l 183 479 l 200 479 l 212 479 l 221 479 q 239 476 231 479 q 251 468 247 473 q 254 455 254 464 q 252 444 254 448 m 239 441 q 241 454 241 446 q 235 471 241 464 q 218 477 231 477 q 211 476 212 477 q 208 472 210 475 q 207 465 207 469 l 207 431 l 216 431 q 231 433 227 431 q 239 441 237 437 m 331 385 q 334 389 334 386 q 332 395 334 391 l 323 418 l 322 421 l 307 463 l 290 421 l 290 418 l 284 404 q 281 392 281 395 q 284 386 281 388 q 293 384 287 384 l 293 380 q 285 381 290 380 q 277 381 280 381 q 272 381 275 381 q 267 380 268 380 l 267 384 q 277 395 273 386 l 311 480 l 313 480 l 347 393 q 357 384 349 384 l 357 380 q 350 381 355 380 q 342 381 345 381 q 331 381 337 381 q 323 380 325 380 l 323 384 q 331 385 330 384 m 449 427 q 457 418 454 423 q 460 406 460 413 q 456 391 460 397 q 445 382 452 385 q 430 378 437 378 q 419 380 427 378 q 411 384 416 381 q 406 386 408 386 q 404 385 406 386 q 404 380 404 384 l 400 380 q 401 413 401 385 l 404 413 q 411 390 404 399 q 429 382 416 382 q 438 383 435 382 q 445 390 443 385 q 448 400 448 393 q 445 410 448 406 q 437 418 441 416 q 426 426 429 425 q 412 435 414 433 q 404 444 408 439 q 401 457 401 450 q 404 471 401 465 q 414 479 409 476 q 427 481 419 481 q 434 480 430 481 q 437 480 435 480 q 439 479 439 479 q 444 476 444 477 q 449 474 447 474 q 451 475 450 474 q 452 480 452 476 l 455 480 q 454 452 454 475 l 451 452 q 448 465 450 463 q 441 475 447 470 q 429 479 435 479 q 420 477 424 479 q 414 471 416 475 q 411 463 411 465 q 416 450 411 456 q 427 441 418 447 q 435 437 431 439 q 449 427 442 433 m 541 421 q 523 419 534 419 l 519 419 l 514 419 q 505 422 506 420 q 507 425 505 424 q 511 426 508 426 q 543 429 532 426 q 561 440 555 433 q 566 461 566 448 l 566 462 l 566 462 l 566 462 l 566 462 l 566 462 l 566 462 l 566 462 l 568 462 l 568 462 l 568 462 l 568 462 l 568 462 l 568 462 l 568 462 l 568 461 q 562 439 568 448 q 543 428 557 432 q 511 425 532 425 l 508 425 q 511 421 505 422 q 515 420 513 420 q 519 420 517 420 q 523 420 522 420 q 541 422 532 420 q 557 430 551 426 q 570 441 566 435 q 576 458 576 449 q 572 469 576 464 q 566 478 568 476 q 556 484 561 481 q 547 487 548 487 q 531 488 542 488 q 518 488 522 488 q 506 485 510 486 q 500 483 504 484 q 494 481 496 482 q 489 479 492 481 q 484 477 485 477 l 481 475 q 477 473 478 474 l 475 471 q 467 463 469 465 q 464 452 464 459 l 464 451 q 472 437 465 441 q 495 437 482 431 l 495 437 l 496 437 l 496 437 l 496 437 l 496 437 l 496 437 l 496 437 l 496 437 l 496 436 l 496 436 l 496 436 l 496 436 l 496 436 q 471 435 481 428 q 463 450 464 440 l 463 450 l 463 451 l 462 451 l 462 452 l 462 454 q 463 460 462 456 q 465 465 464 463 q 468 469 466 467 l 470 471 l 473 473 l 476 475 q 490 484 486 482 q 504 488 494 486 q 519 491 508 490 q 533 492 524 492 q 543 491 540 492 q 553 488 550 490 q 562 484 559 486 q 570 477 568 479 q 576 467 573 474 q 577 458 577 464 q 575 447 577 452 q 573 444 574 446 q 571 441 572 443 q 569 439 570 439 q 563 433 566 435 q 557 429 559 430 q 541 421 549 424 m 491 398 l 513 471 q 514 471 513 471 q 515 471 515 471 q 516 470 516 471 l 516 469 l 492 398 q 492 397 492 397 q 491 398 491 397 m 635 454 l 633 454 l 633 455 l 633 456 l 634 458 q 635 460 634 460 l 637 459 l 637 458 l 635 454 q 635 454 635 454 m 826 427 q 828 425 828 426 q 827 420 828 422 q 819 418 826 420 q 787 424 816 418 q 741 424 760 430 q 707 425 719 417 l 704 428 l 699 419 q 697 417 699 418 q 696 415 696 416 l 694 411 l 692 407 q 688 402 689 403 q 682 399 684 398 q 682 413 680 399 q 682 417 682 414 q 683 422 682 420 q 685 427 684 424 q 686 431 686 429 q 687 435 686 432 q 688 439 688 438 q 682 430 684 433 q 676 422 680 427 q 669 414 672 416 q 662 412 665 412 q 659 414 661 412 q 659 423 657 417 q 656 420 658 422 q 654 416 654 418 q 644 407 648 409 q 635 410 637 404 q 635 425 633 416 q 626 413 633 422 q 616 398 619 404 q 614 393 614 396 q 612 388 614 390 q 606 373 611 385 q 600 356 602 361 q 594 347 597 351 q 592 344 593 345 l 591 344 q 589 345 589 344 q 588 349 588 347 q 589 355 588 350 q 599 374 591 360 q 614 399 606 388 q 625 429 622 422 q 622 426 624 428 q 619 424 621 425 q 613 425 616 421 l 612 423 q 611 421 612 422 q 610 420 610 420 q 608 416 609 417 l 606 414 q 599 416 601 411 q 599 426 597 420 q 598 425 598 426 l 597 425 q 594 424 596 424 q 593 425 593 424 q 594 435 591 426 q 583 424 588 430 q 574 410 579 420 l 573 410 l 572 410 l 572 411 q 576 427 573 416 q 578 434 576 429 q 581 441 580 439 q 520 409 562 410 l 519 409 l 519 409 l 519 409 l 519 410 l 519 410 l 519 410 l 519 410 l 519 410 l 519 411 l 520 411 q 584 452 565 411 q 585 452 584 452 l 586 452 l 587 451 l 587 451 l 585 446 l 579 431 l 577 423 q 575 419 576 422 q 574 416 574 416 q 581 426 578 422 q 589 435 584 429 l 595 440 l 596 441 l 597 441 l 597 442 l 599 441 l 599 440 q 598 438 599 439 q 597 436 597 437 q 594 425 592 426 q 600 429 597 425 q 611 441 604 440 q 613 439 613 441 q 614 437 614 438 l 614 436 q 615 435 615 435 q 614 433 615 434 l 614 431 l 614 429 l 614 428 l 613 427 l 614 426 q 620 426 616 422 q 622 428 621 427 q 624 431 623 430 q 627 435 625 433 l 627 437 q 628 437 627 437 l 629 437 l 629 437 l 629 437 l 629 437 l 629 436 q 618 405 623 418 q 626 415 620 407 q 635 428 631 424 l 636 430 q 642 441 638 436 q 650 445 646 446 q 652 435 655 443 q 644 421 649 422 q 641 422 642 421 l 641 424 l 642 424 q 643 422 642 422 q 648 429 647 422 l 648 430 q 650 442 653 441 q 643 437 647 443 q 638 423 640 431 q 639 410 637 415 q 648 412 642 406 q 657 424 652 416 q 659 426 658 425 q 659 427 659 427 l 659 428 l 660 429 q 666 440 662 435 q 675 445 669 446 q 680 442 678 445 q 680 437 681 439 q 675 434 678 434 q 671 436 672 433 q 673 438 671 438 q 675 437 674 438 q 679 438 677 435 q 679 441 679 439 q 675 444 678 445 q 661 422 667 441 q 662 414 658 415 q 676 424 667 412 q 690 448 686 436 l 684 448 q 684 448 684 448 l 684 449 l 690 450 q 698 469 695 463 q 701 469 699 471 q 702 467 702 468 q 694 450 694 453 q 715 451 705 452 q 732 453 726 450 q 739 463 739 455 l 741 464 q 740 452 748 456 q 720 449 739 448 q 693 449 701 450 q 687 429 689 441 q 686 427 686 429 q 686 425 686 425 q 685 420 685 423 l 683 411 q 682 400 680 401 q 687 403 684 399 q 692 409 690 407 l 693 412 q 695 416 694 413 q 698 420 697 418 q 701 425 699 422 q 703 429 702 427 q 702 432 702 431 q 705 440 700 438 q 707 440 706 441 q 705 429 709 437 l 708 426 q 741 425 719 418 q 787 425 760 431 q 819 420 816 420 q 826 422 824 421 q 827 425 827 422 q 825 426 827 426 q 824 426 825 427 q 823 425 823 426 q 824 424 823 425 q 825 424 825 425 q 825 422 826 423 l 825 422 l 823 422 q 822 425 822 422 q 826 427 822 429 m 600 416 q 609 420 602 410 q 612 426 611 423 q 610 427 610 426 q 607 431 607 428 q 608 435 607 433 q 608 436 608 435 q 609 438 608 437 l 608 437 l 606 435 l 606 434 q 602 426 602 430 q 600 418 600 422 q 600 417 600 418 q 600 416 600 416 m 612 427 q 613 433 613 431 q 612 439 613 437 l 612 438 l 611 438 q 610 437 610 438 q 610 436 610 437 q 609 434 609 435 l 609 431 q 612 427 609 428 m 610 389 l 610 390 q 601 374 608 387 q 591 355 592 358 q 590 349 590 349 q 591 346 590 347 q 592 348 591 347 q 597 357 595 352 q 610 389 597 358 m 706 439 q 703 436 704 439 q 704 431 703 433 q 706 439 709 437 m 497 584 q 498 578 497 584 q 491 562 498 572 q 472 550 484 551 q 450 557 460 549 q 437 576 439 565 q 442 598 435 588 q 462 610 451 610 q 484 604 473 612 q 497 584 495 595 m 479 572 q 476 592 488 583 q 465 595 471 596 q 455 589 459 593 q 458 568 446 577 q 479 572 469 559 m 218 605 q 239 610 229 612 q 258 599 252 608 q 262 578 264 589 q 250 559 260 567 l 232 547 l 200 592 l 218 605 m 245 590 q 236 596 241 595 q 226 593 231 597 l 220 589 l 236 567 l 241 571 q 245 590 253 579 m 311 644 l 314 632 l 294 627 l 296 618 l 314 623 l 317 611 l 300 606 l 302 599 l 322 604 l 326 591 l 290 582 l 277 635 l 311 644 m 413 583 l 398 586 l 399 618 l 379 589 l 374 589 l 366 623 l 356 593 l 340 595 l 358 648 l 373 646 l 381 614 l 399 642 l 414 640 l 413 583 m 254 274 q 255 268 254 274 q 248 253 256 262 q 229 242 241 243 q 208 250 218 241 l 191 264 l 226 307 l 243 293 q 254 274 252 285 m 229 286 l 212 265 l 216 261 q 236 263 227 252 q 234 282 245 273 l 229 286 m 317 243 l 298 250 l 296 241 l 313 237 l 309 224 l 292 229 l 290 221 l 310 216 l 307 203 l 271 213 l 287 267 l 321 256 l 317 243 m 387 203 l 383 202 l 363 231 l 364 199 l 349 197 l 349 253 l 363 255 l 381 227 l 389 259 l 404 262 l 421 208 l 406 205 l 397 237 l 387 203 m 472 297 q 491 286 483 296 q 497 263 498 275 q 484 243 495 252 q 461 237 473 235 q 442 248 450 238 q 436 270 435 258 q 449 290 438 282 q 472 297 459 298 m 455 258 q 476 255 465 245 q 479 275 488 264 q 469 281 475 280 q 458 279 463 283 q 455 258 446 269 m 471 496 q 465 497 467 493 q 416 542 446 526 q 350 559 385 559 q 284 542 314 559 q 235 496 254 526 q 229 494 233 492 q 227 501 224 497 q 279 550 247 532 q 350 568 312 568 q 420 550 387 568 q 472 502 452 532 q 471 496 475 498 m 471 361 q 478 363 474 366 q 480 356 483 360 q 427 298 462 320 q 350 277 392 277 q 271 300 307 277 q 218 362 235 323 q 220 368 216 366 l 221 368 q 226 366 224 370 q 276 308 242 330 q 350 286 309 286 q 422 307 389 286 q 471 361 454 327 m 545 382 q 549 386 546 386 q 549 386 549 386 q 550 385 549 385 q 554 380 555 384 q 515 295 545 334 q 509 294 512 291 q 507 300 505 296 q 545 382 535 337 m 144 421 q 198 559 144 500 q 202 561 199 561 q 205 560 204 561 q 205 553 209 556 q 154 421 154 496 q 197 298 154 352 q 197 292 200 294 q 190 292 193 289 q 144 421 144 349 m 503 559 q 507 557 505 559 q 532 522 519 543 q 530 515 534 518 q 524 517 526 513 q 499 551 512 538 q 500 557 497 555 q 503 559 501 559 z "},"2":{"ha":872,"x_min":45,"x_max":828,"o":"m 612 302 q 618 280 626 295 q 508 162 580 207 q 349 118 435 118 q 134 207 223 118 q 45 422 45 296 q 134 638 45 549 q 349 727 223 727 q 508 683 435 727 q 618 565 580 638 q 612 543 626 550 q 600 541 605 539 q 589 549 592 544 q 491 655 555 615 q 349 694 427 694 q 157 615 236 694 q 77 422 77 536 q 157 230 77 309 q 349 151 236 151 q 491 190 427 151 q 589 296 555 230 q 600 304 592 301 q 612 302 605 306 m 567 553 q 561 555 564 551 q 471 640 527 608 q 349 672 415 672 q 173 599 246 672 q 100 422 100 526 q 173 246 100 319 q 349 173 246 173 q 471 205 415 173 q 561 290 527 237 q 567 292 564 294 q 569 285 572 289 q 476 196 534 229 q 349 163 418 163 q 166 239 242 163 q 90 422 90 315 q 166 606 90 530 q 349 682 242 682 q 476 649 418 682 q 569 559 534 616 q 567 553 572 555 m 383 465 l 383 410 q 370 401 376 408 l 370 465 q 369 473 370 470 q 366 476 368 475 q 359 477 365 477 l 359 479 l 376 479 l 395 479 l 395 477 q 387 476 389 477 q 384 473 385 475 q 383 465 383 471 m 359 380 l 359 384 q 366 385 365 384 q 369 388 368 385 q 375 398 371 394 q 381 403 378 401 l 383 404 l 383 395 q 384 388 383 389 q 387 385 385 386 q 395 384 389 384 l 395 380 q 387 381 393 380 q 376 381 380 381 q 366 381 372 381 q 359 380 360 380 m 252 444 q 243 434 250 438 q 228 429 237 429 l 229 428 q 239 425 236 427 q 245 419 243 423 q 249 410 248 414 l 252 395 q 254 389 254 390 q 256 385 256 386 q 260 384 258 384 q 263 385 262 384 l 264 386 q 266 388 265 387 q 267 389 267 389 l 269 388 q 262 381 267 384 q 254 379 259 379 q 245 382 248 379 q 239 394 242 384 l 236 408 q 234 414 235 410 q 233 419 233 418 q 229 425 233 422 q 220 428 224 428 l 207 428 l 207 395 q 208 388 207 391 q 211 385 210 385 q 218 384 212 384 l 218 380 q 211 381 217 380 q 201 381 205 381 q 190 381 196 381 q 183 380 184 380 l 183 384 q 190 385 189 384 q 193 388 192 386 q 194 395 194 389 l 194 465 q 193 473 194 471 q 190 476 192 475 q 183 477 189 477 l 183 479 l 200 479 l 212 479 l 221 479 q 239 476 231 479 q 251 468 247 473 q 254 455 254 464 q 252 444 254 448 m 239 441 q 241 454 241 446 q 235 471 241 464 q 218 477 231 477 q 211 476 212 477 q 208 472 210 475 q 207 465 207 469 l 207 431 l 216 431 q 231 433 227 431 q 239 441 237 437 m 331 385 q 334 389 334 386 q 332 395 334 391 l 323 418 l 322 421 l 307 463 l 290 421 l 290 418 l 284 404 q 281 392 281 395 q 284 386 281 388 q 293 384 287 384 l 293 380 q 285 381 290 380 q 277 381 280 381 q 272 381 275 381 q 267 380 268 380 l 267 384 q 277 395 273 386 l 311 480 l 313 480 l 347 393 q 357 384 349 384 l 357 380 q 350 381 355 380 q 342 381 345 381 q 331 381 337 381 q 323 380 325 380 l 323 384 q 331 385 330 384 m 449 427 q 457 418 454 423 q 460 406 460 413 q 456 391 460 397 q 445 382 452 385 q 430 378 437 378 q 419 380 427 378 q 411 384 416 381 q 406 386 408 386 q 404 385 406 386 q 404 380 404 384 l 400 380 q 401 413 401 385 l 404 413 q 411 390 404 399 q 429 382 416 382 q 438 383 435 382 q 445 390 443 385 q 448 400 448 393 q 445 410 448 406 q 437 418 441 416 q 426 426 429 425 q 412 435 414 433 q 404 444 408 439 q 401 457 401 450 q 404 471 401 465 q 414 479 409 476 q 427 481 419 481 q 434 480 430 481 q 437 480 435 480 q 439 479 439 479 q 444 476 444 477 q 449 474 447 474 q 451 475 450 474 q 452 480 452 476 l 455 480 q 454 452 454 475 l 451 452 q 448 465 450 463 q 441 475 447 470 q 429 479 435 479 q 420 477 424 479 q 414 471 416 475 q 411 463 411 465 q 416 450 411 456 q 427 441 418 447 q 435 437 431 439 q 449 427 442 433 m 541 421 q 523 419 534 419 l 519 419 l 514 419 q 505 422 506 420 q 507 425 505 424 q 511 426 508 426 q 543 429 532 426 q 561 440 555 433 q 566 461 566 448 l 566 462 l 566 462 l 566 462 l 566 462 l 566 462 l 566 462 l 566 462 l 568 462 l 568 462 l 568 462 l 568 462 l 568 462 l 568 462 l 568 462 l 568 461 q 562 439 568 448 q 543 428 557 432 q 511 425 532 425 l 508 425 q 511 421 505 422 q 515 420 513 420 q 519 420 517 420 q 523 420 522 420 q 541 422 532 420 q 557 430 551 426 q 570 441 566 435 q 576 458 576 449 q 572 469 576 464 q 566 478 568 476 q 556 484 561 481 q 547 487 548 487 q 531 488 542 488 q 518 488 522 488 q 506 485 510 486 q 500 483 504 484 q 494 481 496 482 q 489 479 492 481 q 484 477 485 477 l 481 475 q 477 473 478 474 l 475 471 q 467 463 469 465 q 464 452 464 459 l 464 451 q 472 437 465 441 q 495 437 482 431 l 495 437 l 496 437 l 496 437 l 496 437 l 496 437 l 496 437 l 496 437 l 496 437 l 496 436 l 496 436 l 496 436 l 496 436 l 496 436 q 471 435 481 428 q 463 450 464 440 l 463 450 l 463 451 l 462 451 l 462 452 l 462 454 q 463 460 462 456 q 465 465 464 463 q 468 469 466 467 l 470 471 l 473 473 l 476 475 q 490 484 486 482 q 504 488 494 486 q 519 491 508 490 q 533 492 524 492 q 543 491 540 492 q 553 488 550 490 q 562 484 559 486 q 570 477 568 479 q 576 467 573 474 q 577 458 577 464 q 575 447 577 452 q 573 444 574 446 q 571 441 572 443 q 569 439 570 439 q 563 433 566 435 q 557 429 559 430 q 541 421 549 424 m 491 398 l 513 471 q 514 471 513 471 q 515 471 515 471 q 516 470 516 471 l 516 469 l 492 398 q 492 397 492 397 q 491 398 491 397 m 635 454 l 633 454 l 633 455 l 633 456 l 634 458 q 635 460 634 460 l 637 459 l 637 458 l 635 454 q 635 454 635 454 m 826 427 q 828 425 828 426 q 827 420 828 422 q 819 418 826 420 q 787 424 816 418 q 741 424 760 430 q 707 425 719 417 l 704 428 l 699 419 q 697 417 699 418 q 696 415 696 416 l 694 411 l 692 407 q 688 402 689 403 q 682 399 684 398 q 682 413 680 399 q 682 417 682 414 q 683 422 682 420 q 685 427 684 424 q 686 431 686 429 q 687 435 686 432 q 688 439 688 438 q 682 430 684 433 q 676 422 680 427 q 669 414 672 416 q 662 412 665 412 q 659 414 661 412 q 659 423 657 417 q 656 420 658 422 q 654 416 654 418 q 644 407 648 409 q 635 410 637 404 q 635 425 633 416 q 626 413 633 422 q 616 398 619 404 q 614 393 614 396 q 612 388 614 390 q 606 373 611 385 q 600 356 602 361 q 594 347 597 351 q 592 344 593 345 l 591 344 q 589 345 589 344 q 588 349 588 347 q 589 355 588 350 q 599 374 591 360 q 614 399 606 388 q 625 429 622 422 q 622 426 624 428 q 619 424 621 425 q 613 425 616 421 l 612 423 q 611 421 612 422 q 610 420 610 420 q 608 416 609 417 l 606 414 q 599 416 601 411 q 599 426 597 420 q 598 425 598 426 l 597 425 q 594 424 596 424 q 593 425 593 424 q 594 435 591 426 q 583 424 588 430 q 574 410 579 420 l 573 410 l 572 410 l 572 411 q 576 427 573 416 q 578 434 576 429 q 581 441 580 439 q 520 409 562 410 l 519 409 l 519 409 l 519 409 l 519 410 l 519 410 l 519 410 l 519 410 l 519 410 l 519 411 l 520 411 q 584 452 565 411 q 585 452 584 452 l 586 452 l 587 451 l 587 451 l 585 446 l 579 431 l 577 423 q 575 419 576 422 q 574 416 574 416 q 581 426 578 422 q 589 435 584 429 l 595 440 l 596 441 l 597 441 l 597 442 l 599 441 l 599 440 q 598 438 599 439 q 597 436 597 437 q 594 425 592 426 q 600 429 597 425 q 611 441 604 440 q 613 439 613 441 q 614 437 614 438 l 614 436 q 615 435 615 435 q 614 433 615 434 l 614 431 l 614 429 l 614 428 l 613 427 l 614 426 q 620 426 616 422 q 622 428 621 427 q 624 431 623 430 q 627 435 625 433 l 627 437 q 628 437 627 437 l 629 437 l 629 437 l 629 437 l 629 437 l 629 436 q 618 405 623 418 q 626 415 620 407 q 635 428 631 424 l 636 430 q 642 441 638 436 q 650 445 646 446 q 652 435 655 443 q 644 421 649 422 q 641 422 642 421 l 641 424 l 642 424 q 643 422 642 422 q 648 429 647 422 l 648 430 q 650 442 653 441 q 643 437 647 443 q 638 423 640 431 q 639 410 637 415 q 648 412 642 406 q 657 424 652 416 q 659 426 658 425 q 659 427 659 427 l 659 428 l 660 429 q 666 440 662 435 q 675 445 669 446 q 680 442 678 445 q 680 437 681 439 q 675 434 678 434 q 671 436 672 433 q 673 438 671 438 q 675 437 674 438 q 679 438 677 435 q 679 441 679 439 q 675 444 678 445 q 661 422 667 441 q 662 414 658 415 q 676 424 667 412 q 690 448 686 436 l 684 448 q 684 448 684 448 l 684 449 l 690 450 q 698 469 695 463 q 701 469 699 471 q 702 467 702 468 q 694 450 694 453 q 715 451 705 452 q 732 453 726 450 q 739 463 739 455 l 741 464 q 740 452 748 456 q 720 449 739 448 q 693 449 701 450 q 687 429 689 441 q 686 427 686 429 q 686 425 686 425 q 685 420 685 423 l 683 411 q 682 400 680 401 q 687 403 684 399 q 692 409 690 407 l 693 412 q 695 416 694 413 q 698 420 697 418 q 701 425 699 422 q 703 429 702 427 q 702 432 702 431 q 705 440 700 438 q 707 440 706 441 q 705 429 709 437 l 708 426 q 741 425 719 418 q 787 425 760 431 q 819 420 816 420 q 826 422 824 421 q 827 425 827 422 q 825 426 827 426 q 824 426 825 427 q 823 425 823 426 q 824 424 823 425 q 825 424 825 425 q 825 422 826 423 l 825 422 l 823 422 q 822 425 822 422 q 826 427 822 429 m 600 416 q 609 420 602 410 q 612 426 611 423 q 610 427 610 426 q 607 431 607 428 q 608 435 607 433 q 608 436 608 435 q 609 438 608 437 l 608 437 l 606 435 l 606 434 q 602 426 602 430 q 600 418 600 422 q 600 417 600 418 q 600 416 600 416 m 612 427 q 613 433 613 431 q 612 439 613 437 l 612 438 l 611 438 q 610 437 610 438 q 610 436 610 437 q 609 434 609 435 l 609 431 q 612 427 609 428 m 610 389 l 610 390 q 601 374 608 387 q 591 355 592 358 q 590 349 590 349 q 591 346 590 347 q 592 348 591 347 q 597 357 595 352 q 610 389 597 358 m 706 439 q 703 436 704 439 q 704 431 703 433 q 706 439 709 437 m 311 644 l 314 632 l 294 627 l 296 618 l 314 623 l 317 611 l 300 606 l 302 599 l 322 604 l 326 591 l 290 582 l 277 635 l 311 644 m 497 584 q 498 578 497 584 q 491 562 498 572 q 472 550 484 551 q 450 557 460 549 q 437 576 439 565 q 442 598 435 588 q 462 610 451 610 q 484 604 473 612 q 497 584 495 595 m 479 572 q 476 592 488 583 q 465 595 471 596 q 455 589 459 593 q 458 568 446 577 q 479 572 469 559 m 218 605 q 239 610 229 612 q 258 599 252 608 q 262 578 264 589 q 250 559 260 567 l 232 547 l 200 592 l 218 605 m 245 590 q 236 596 241 595 q 226 593 231 597 l 220 589 l 236 567 l 241 571 q 245 590 253 579 m 413 583 l 398 586 l 399 618 l 379 589 l 374 589 l 366 623 l 356 593 l 340 595 l 358 648 l 373 646 l 381 614 l 399 642 l 414 640 l 413 583 m 317 243 l 298 250 l 296 241 l 313 237 l 309 224 l 292 229 l 290 221 l 310 216 l 307 203 l 271 213 l 287 267 l 321 256 l 317 243 m 254 274 q 255 268 254 274 q 248 253 256 262 q 229 242 241 243 q 208 250 218 241 l 191 264 l 226 307 l 243 293 q 254 274 252 285 m 229 286 l 212 265 l 216 261 q 236 263 227 252 q 234 282 245 273 l 229 286 m 387 203 l 383 202 l 363 231 l 364 199 l 349 197 l 349 253 l 363 255 l 381 227 l 389 259 l 404 262 l 421 208 l 406 205 l 397 237 l 387 203 m 472 297 q 491 286 483 296 q 497 263 498 275 q 484 243 495 252 q 461 237 473 235 q 442 248 450 238 q 436 270 435 258 q 449 290 438 282 q 472 297 459 298 m 455 258 q 476 255 465 245 q 479 275 488 264 q 469 281 475 280 q 458 279 463 283 q 455 258 446 269 m 471 496 q 465 497 467 493 q 416 542 446 526 q 350 559 385 559 q 284 542 314 559 q 235 496 254 526 q 229 494 233 492 q 227 501 224 497 q 279 550 247 532 q 350 568 312 568 q 420 550 387 568 q 472 502 452 532 q 471 496 475 498 m 471 361 q 478 363 474 366 q 480 356 483 360 q 427 298 462 320 q 350 277 392 277 q 271 300 307 277 q 218 362 235 323 q 220 368 216 366 l 221 368 q 226 366 224 370 q 276 308 242 330 q 350 286 309 286 q 422 307 389 286 q 471 361 454 327 m 144 421 q 198 559 144 500 q 202 561 199 561 q 205 560 204 561 q 205 553 209 556 q 154 421 154 496 q 197 298 154 352 q 197 292 200 294 q 190 292 193 289 q 144 421 144 349 m 545 382 q 549 386 546 386 q 549 386 549 386 q 550 385 549 385 q 554 380 555 384 q 515 295 545 334 q 509 294 512 291 q 507 300 505 296 q 545 382 535 337 m 503 559 q 507 557 505 559 q 532 522 519 543 q 530 515 534 518 q 524 517 526 513 q 499 551 512 538 q 500 557 497 555 q 503 559 501 559 z "},"3":{"ha":872,"x_min":45,"x_max":828,"o":"m 612 302 q 618 280 626 295 q 508 162 580 207 q 349 118 435 118 q 134 207 223 118 q 45 422 45 296 q 134 638 45 549 q 349 727 223 727 q 508 683 435 727 q 618 565 580 638 q 612 543 626 550 q 600 541 605 539 q 589 549 592 544 q 491 655 555 615 q 349 694 427 694 q 157 615 236 694 q 77 422 77 536 q 157 230 77 309 q 349 151 236 151 q 491 190 427 151 q 589 296 555 230 q 600 304 592 301 q 612 302 605 306 m 567 553 q 561 555 564 551 q 471 640 527 608 q 349 672 415 672 q 173 599 246 672 q 100 422 100 526 q 173 246 100 319 q 349 173 246 173 q 471 205 415 173 q 561 290 527 237 q 567 292 564 294 q 569 285 572 289 q 476 196 534 229 q 349 163 418 163 q 166 239 242 163 q 90 422 90 315 q 166 606 90 530 q 349 682 242 682 q 476 649 418 682 q 569 559 534 616 q 567 553 572 555 m 383 465 l 383 410 q 370 401 376 408 l 370 465 q 369 473 370 470 q 366 476 368 475 q 359 477 365 477 l 359 479 l 376 479 l 395 479 l 395 477 q 387 476 389 477 q 384 473 385 475 q 383 465 383 471 m 359 380 l 359 384 q 366 385 365 384 q 369 388 368 385 q 375 398 371 394 q 381 403 378 401 l 383 404 l 383 395 q 384 388 383 389 q 387 385 385 386 q 395 384 389 384 l 395 380 q 387 381 393 380 q 376 381 380 381 q 366 381 372 381 q 359 380 360 380 m 252 444 q 243 434 250 438 q 228 429 237 429 l 229 428 q 239 425 236 427 q 245 419 243 423 q 249 410 248 414 l 252 395 q 254 389 254 390 q 256 385 256 386 q 260 384 258 384 q 263 385 262 384 l 264 386 q 266 388 265 387 q 267 389 267 389 l 269 388 q 262 381 267 384 q 254 379 259 379 q 245 382 248 379 q 239 394 242 384 l 236 408 q 234 414 235 410 q 233 419 233 418 q 229 425 233 422 q 220 428 224 428 l 207 428 l 207 395 q 208 388 207 391 q 211 385 210 385 q 218 384 212 384 l 218 380 q 211 381 217 380 q 201 381 205 381 q 190 381 196 381 q 183 380 184 380 l 183 384 q 190 385 189 384 q 193 388 192 386 q 194 395 194 389 l 194 465 q 193 473 194 471 q 190 476 192 475 q 183 477 189 477 l 183 479 l 200 479 l 212 479 l 221 479 q 239 476 231 479 q 251 468 247 473 q 254 455 254 464 q 252 444 254 448 m 239 441 q 241 454 241 446 q 235 471 241 464 q 218 477 231 477 q 211 476 212 477 q 208 472 210 475 q 207 465 207 469 l 207 431 l 216 431 q 231 433 227 431 q 239 441 237 437 m 331 385 q 334 389 334 386 q 332 395 334 391 l 323 418 l 322 421 l 307 463 l 290 421 l 290 418 l 284 404 q 281 392 281 395 q 284 386 281 388 q 293 384 287 384 l 293 380 q 285 381 290 380 q 277 381 280 381 q 272 381 275 381 q 267 380 268 380 l 267 384 q 277 395 273 386 l 311 480 l 313 480 l 347 393 q 357 384 349 384 l 357 380 q 350 381 355 380 q 342 381 345 381 q 331 381 337 381 q 323 380 325 380 l 323 384 q 331 385 330 384 m 449 427 q 457 418 454 423 q 460 406 460 413 q 456 391 460 397 q 445 382 452 385 q 430 378 437 378 q 419 380 427 378 q 411 384 416 381 q 406 386 408 386 q 404 385 406 386 q 404 380 404 384 l 400 380 q 401 413 401 385 l 404 413 q 411 390 404 399 q 429 382 416 382 q 438 383 435 382 q 445 390 443 385 q 448 400 448 393 q 445 410 448 406 q 437 418 441 416 q 426 426 429 425 q 412 435 414 433 q 404 444 408 439 q 401 457 401 450 q 404 471 401 465 q 414 479 409 476 q 427 481 419 481 q 434 480 430 481 q 437 480 435 480 q 439 479 439 479 q 444 476 444 477 q 449 474 447 474 q 451 475 450 474 q 452 480 452 476 l 455 480 q 454 452 454 475 l 451 452 q 448 465 450 463 q 441 475 447 470 q 429 479 435 479 q 420 477 424 479 q 414 471 416 475 q 411 463 411 465 q 416 450 411 456 q 427 441 418 447 q 435 437 431 439 q 449 427 442 433 m 541 421 q 523 419 534 419 l 519 419 l 514 419 q 505 422 506 420 q 507 425 505 424 q 511 426 508 426 q 543 429 532 426 q 561 440 555 433 q 566 461 566 448 l 566 462 l 566 462 l 566 462 l 566 462 l 566 462 l 566 462 l 566 462 l 568 462 l 568 462 l 568 462 l 568 462 l 568 462 l 568 462 l 568 462 l 568 461 q 562 439 568 448 q 543 428 557 432 q 511 425 532 425 l 508 425 q 511 421 505 422 q 515 420 513 420 q 519 420 517 420 q 523 420 522 420 q 541 422 532 420 q 557 430 551 426 q 570 441 566 435 q 576 458 576 449 q 572 469 576 464 q 566 478 568 476 q 556 484 561 481 q 547 487 548 487 q 531 488 542 488 q 518 488 522 488 q 506 485 510 486 q 500 483 504 484 q 494 481 496 482 q 489 479 492 481 q 484 477 485 477 l 481 475 q 477 473 478 474 l 475 471 q 467 463 469 465 q 464 452 464 459 l 464 451 q 472 437 465 441 q 495 437 482 431 l 495 437 l 496 437 l 496 437 l 496 437 l 496 437 l 496 437 l 496 437 l 496 437 l 496 436 l 496 436 l 496 436 l 496 436 l 496 436 q 471 435 481 428 q 463 450 464 440 l 463 450 l 463 451 l 462 451 l 462 452 l 462 454 q 463 460 462 456 q 465 465 464 463 q 468 469 466 467 l 470 471 l 473 473 l 476 475 q 490 484 486 482 q 504 488 494 486 q 519 491 508 490 q 533 492 524 492 q 543 491 540 492 q 553 488 550 490 q 562 484 559 486 q 570 477 568 479 q 576 467 573 474 q 577 458 577 464 q 575 447 577 452 q 573 444 574 446 q 571 441 572 443 q 569 439 570 439 q 563 433 566 435 q 557 429 559 430 q 541 421 549 424 m 491 398 l 513 471 q 514 471 513 471 q 515 471 515 471 q 516 470 516 471 l 516 469 l 492 398 q 492 397 492 397 q 491 398 491 397 m 635 454 l 633 454 l 633 455 l 633 456 l 634 458 q 635 460 634 460 l 637 459 l 637 458 l 635 454 q 635 454 635 454 m 826 427 q 828 425 828 426 q 827 420 828 422 q 819 418 826 420 q 787 424 816 418 q 741 424 760 430 q 707 425 719 417 l 704 428 l 699 419 q 697 417 699 418 q 696 415 696 416 l 694 411 l 692 407 q 688 402 689 403 q 682 399 684 398 q 682 413 680 399 q 682 417 682 414 q 683 422 682 420 q 685 427 684 424 q 686 431 686 429 q 687 435 686 432 q 688 439 688 438 q 682 430 684 433 q 676 422 680 427 q 669 414 672 416 q 662 412 665 412 q 659 414 661 412 q 659 423 657 417 q 656 420 658 422 q 654 416 654 418 q 644 407 648 409 q 635 410 637 404 q 635 425 633 416 q 626 413 633 422 q 616 398 619 404 q 614 393 614 396 q 612 388 614 390 q 606 373 611 385 q 600 356 602 361 q 594 347 597 351 q 592 344 593 345 l 591 344 q 589 345 589 344 q 588 349 588 347 q 589 355 588 350 q 599 374 591 360 q 614 399 606 388 q 625 429 622 422 q 622 426 624 428 q 619 424 621 425 q 613 425 616 421 l 612 423 q 611 421 612 422 q 610 420 610 420 q 608 416 609 417 l 606 414 q 599 416 601 411 q 599 426 597 420 q 598 425 598 426 l 597 425 q 594 424 596 424 q 593 425 593 424 q 594 435 591 426 q 583 424 588 430 q 574 410 579 420 l 573 410 l 572 410 l 572 411 q 576 427 573 416 q 578 434 576 429 q 581 441 580 439 q 520 409 562 410 l 519 409 l 519 409 l 519 409 l 519 410 l 519 410 l 519 410 l 519 410 l 519 410 l 519 411 l 520 411 q 584 452 565 411 q 585 452 584 452 l 586 452 l 587 451 l 587 451 l 585 446 l 579 431 l 577 423 q 575 419 576 422 q 574 416 574 416 q 581 426 578 422 q 589 435 584 429 l 595 440 l 596 441 l 597 441 l 597 442 l 599 441 l 599 440 q 598 438 599 439 q 597 436 597 437 q 594 425 592 426 q 600 429 597 425 q 611 441 604 440 q 613 439 613 441 q 614 437 614 438 l 614 436 q 615 435 615 435 q 614 433 615 434 l 614 431 l 614 429 l 614 428 l 613 427 l 614 426 q 620 426 616 422 q 622 428 621 427 q 624 431 623 430 q 627 435 625 433 l 627 437 q 628 437 627 437 l 629 437 l 629 437 l 629 437 l 629 437 l 629 436 q 618 405 623 418 q 626 415 620 407 q 635 428 631 424 l 636 430 q 642 441 638 436 q 650 445 646 446 q 652 435 655 443 q 644 421 649 422 q 641 422 642 421 l 641 424 l 642 424 q 643 422 642 422 q 648 429 647 422 l 648 430 q 650 442 653 441 q 643 437 647 443 q 638 423 640 431 q 639 410 637 415 q 648 412 642 406 q 657 424 652 416 q 659 426 658 425 q 659 427 659 427 l 659 428 l 660 429 q 666 440 662 435 q 675 445 669 446 q 680 442 678 445 q 680 437 681 439 q 675 434 678 434 q 671 436 672 433 q 673 438 671 438 q 675 437 674 438 q 679 438 677 435 q 679 441 679 439 q 675 444 678 445 q 661 422 667 441 q 662 414 658 415 q 676 424 667 412 q 690 448 686 436 l 684 448 q 684 448 684 448 l 684 449 l 690 450 q 698 469 695 463 q 701 469 699 471 q 702 467 702 468 q 694 450 694 453 q 715 451 705 452 q 732 453 726 450 q 739 463 739 455 l 741 464 q 740 452 748 456 q 720 449 739 448 q 693 449 701 450 q 687 429 689 441 q 686 427 686 429 q 686 425 686 425 q 685 420 685 423 l 683 411 q 682 400 680 401 q 687 403 684 399 q 692 409 690 407 l 693 412 q 695 416 694 413 q 698 420 697 418 q 701 425 699 422 q 703 429 702 427 q 702 432 702 431 q 705 440 700 438 q 707 440 706 441 q 705 429 709 437 l 708 426 q 741 425 719 418 q 787 425 760 431 q 819 420 816 420 q 826 422 824 421 q 827 425 827 422 q 825 426 827 426 q 824 426 825 427 q 823 425 823 426 q 824 424 823 425 q 825 424 825 425 q 825 422 826 423 l 825 422 l 823 422 q 822 425 822 422 q 826 427 822 429 m 600 416 q 609 420 602 410 q 612 426 611 423 q 610 427 610 426 q 607 431 607 428 q 608 435 607 433 q 608 436 608 435 q 609 438 608 437 l 608 437 l 606 435 l 606 434 q 602 426 602 430 q 600 418 600 422 q 600 417 600 418 q 600 416 600 416 m 612 427 q 613 433 613 431 q 612 439 613 437 l 612 438 l 611 438 q 610 437 610 438 q 610 436 610 437 q 609 434 609 435 l 609 431 q 612 427 609 428 m 610 389 l 610 390 q 601 374 608 387 q 591 355 592 358 q 590 349 590 349 q 591 346 590 347 q 592 348 591 347 q 597 357 595 352 q 610 389 597 358 m 706 439 q 703 436 704 439 q 704 431 703 433 q 706 439 709 437 m 413 583 l 398 586 l 399 618 l 379 589 l 374 589 l 366 623 l 356 593 l 340 595 l 358 648 l 373 646 l 381 614 l 399 642 l 414 640 l 413 583 m 311 644 l 314 632 l 294 627 l 296 618 l 314 623 l 317 611 l 300 606 l 302 599 l 322 604 l 326 591 l 290 582 l 277 635 l 311 644 m 497 584 q 498 578 497 584 q 491 562 498 572 q 472 550 484 551 q 450 557 460 549 q 437 576 439 565 q 442 598 435 588 q 462 610 451 610 q 484 604 473 612 q 497 584 495 595 m 479 571 q 476 592 488 583 q 465 595 471 596 q 455 589 459 593 q 458 568 446 577 q 479 571 469 559 m 218 605 q 239 610 229 612 q 258 599 252 608 q 262 578 264 589 q 250 559 260 567 l 232 547 l 200 592 l 218 605 m 245 590 q 236 596 241 595 q 226 593 231 597 l 220 589 l 236 567 l 241 571 q 245 590 253 579 m 472 297 q 491 286 483 296 q 497 263 498 275 q 484 243 495 252 q 461 237 473 235 q 442 248 450 238 q 436 270 435 258 q 449 290 438 282 q 472 297 459 298 m 455 258 q 476 255 465 245 q 479 275 488 264 q 469 281 475 280 q 458 279 463 283 q 455 258 446 269 m 387 203 l 383 202 l 363 231 l 364 199 l 349 197 l 349 253 l 363 255 l 381 227 l 389 259 l 404 262 l 421 208 l 406 205 l 397 237 l 387 203 m 254 274 q 255 268 254 274 q 248 253 256 262 q 229 242 241 243 q 208 250 218 241 l 191 264 l 226 307 l 243 293 q 254 274 252 285 m 229 286 l 212 265 l 216 261 q 236 263 227 252 q 234 282 245 273 l 229 286 m 317 243 l 298 250 l 296 241 l 313 237 l 309 224 l 292 229 l 290 221 l 310 216 l 307 203 l 271 213 l 287 267 l 321 256 l 317 243 m 471 496 q 465 497 467 493 q 416 542 446 526 q 350 559 385 559 q 284 542 314 559 q 235 496 254 526 q 229 494 233 492 q 227 501 224 497 q 279 550 247 532 q 350 568 312 568 q 420 550 387 568 q 472 502 452 532 q 471 496 475 498 m 471 361 q 478 363 474 366 q 480 356 483 360 q 427 298 462 320 q 350 277 392 277 q 271 300 307 277 q 218 362 235 323 q 220 368 216 366 l 221 368 q 226 366 224 370 q 276 308 242 330 q 350 286 309 286 q 422 307 389 286 q 471 361 454 327 m 144 421 q 198 559 144 500 q 202 561 199 561 q 205 560 204 561 q 205 553 209 556 q 154 421 154 496 q 197 298 154 352 q 197 292 200 294 q 190 292 193 289 q 144 421 144 349 m 503 559 q 507 557 505 559 q 532 522 519 543 q 530 515 534 518 q 524 517 526 513 q 499 551 512 538 q 500 557 497 555 q 503 559 501 559 m 545 382 q 549 386 546 386 q 549 386 549 386 q 550 385 549 385 q 554 380 555 384 q 515 295 545 334 q 509 294 512 291 q 507 300 505 296 q 545 382 535 337 z "},"4":{"ha":872,"x_min":45,"x_max":828,"o":"m 612 302 q 618 280 626 295 q 508 162 580 207 q 349 118 435 118 q 134 207 223 118 q 45 422 45 296 q 134 638 45 549 q 349 727 223 727 q 508 683 435 727 q 618 565 580 638 q 612 543 626 550 q 600 541 605 539 q 589 549 592 544 q 491 655 555 615 q 349 694 427 694 q 157 615 236 694 q 77 422 77 536 q 157 230 77 309 q 349 151 236 151 q 491 190 427 151 q 589 296 555 230 q 600 304 592 301 q 612 302 605 306 m 567 553 q 561 555 564 551 q 471 640 527 608 q 349 672 415 672 q 173 599 246 672 q 100 422 100 526 q 173 246 100 319 q 349 173 246 173 q 471 205 415 173 q 561 290 527 237 q 567 292 564 294 q 569 285 572 289 q 476 196 534 229 q 349 163 418 163 q 166 239 242 163 q 90 422 90 315 q 166 606 90 530 q 349 682 242 682 q 476 649 418 682 q 569 559 534 616 q 567 553 572 555 m 383 465 l 383 410 q 370 401 376 408 l 370 465 q 369 473 370 470 q 366 476 368 475 q 359 477 365 477 l 359 479 l 376 479 l 395 479 l 395 477 q 387 476 389 477 q 384 473 385 475 q 383 465 383 471 m 359 380 l 359 384 q 366 385 365 384 q 369 388 368 385 q 375 398 371 394 q 381 403 378 401 l 383 404 l 383 395 q 384 388 383 389 q 387 385 385 386 q 395 384 389 384 l 395 380 q 387 381 393 380 q 376 381 380 381 q 366 381 372 381 q 359 380 360 380 m 252 444 q 243 434 250 438 q 228 429 237 429 l 229 428 q 239 425 236 427 q 245 419 243 423 q 249 410 248 414 l 252 395 q 254 389 254 390 q 256 385 256 386 q 260 384 258 384 q 263 385 262 384 l 264 386 q 266 388 265 387 q 267 389 267 389 l 269 388 q 262 381 267 384 q 254 379 259 379 q 245 382 248 379 q 239 394 242 384 l 236 408 q 234 414 235 410 q 233 419 233 418 q 229 425 233 422 q 220 428 224 428 l 207 428 l 207 395 q 208 388 207 391 q 211 385 210 385 q 218 384 212 384 l 218 380 q 211 381 217 380 q 201 381 205 381 q 190 381 196 381 q 183 380 184 380 l 183 384 q 190 385 189 384 q 193 388 192 386 q 194 395 194 389 l 194 465 q 193 473 194 471 q 190 476 192 475 q 183 477 189 477 l 183 479 l 200 479 l 212 479 l 221 479 q 239 476 231 479 q 251 468 247 473 q 254 455 254 464 q 252 444 254 448 m 239 441 q 241 454 241 446 q 235 471 241 464 q 218 477 231 477 q 211 476 212 477 q 208 472 210 475 q 207 465 207 469 l 207 431 l 216 431 q 231 433 227 431 q 239 441 237 437 m 331 385 q 334 389 334 386 q 332 395 334 391 l 323 418 l 322 421 l 307 463 l 290 421 l 290 418 l 284 404 q 281 392 281 395 q 284 386 281 388 q 293 384 287 384 l 293 380 q 285 381 290 380 q 277 381 280 381 q 272 381 275 381 q 267 380 268 380 l 267 384 q 277 395 273 386 l 311 480 l 313 480 l 347 393 q 357 384 349 384 l 357 380 q 350 381 355 380 q 342 381 345 381 q 331 381 337 381 q 323 380 325 380 l 323 384 q 331 385 330 384 m 449 427 q 457 418 454 423 q 460 406 460 413 q 456 391 460 397 q 445 382 452 385 q 430 378 437 378 q 419 380 427 378 q 411 384 416 381 q 406 386 408 386 q 404 385 406 386 q 404 380 404 384 l 400 380 q 401 413 401 385 l 404 413 q 411 390 404 399 q 429 382 416 382 q 438 383 435 382 q 445 390 443 385 q 448 400 448 393 q 445 410 448 406 q 437 418 441 416 q 426 426 429 425 q 412 435 414 433 q 404 444 408 439 q 401 457 401 450 q 404 471 401 465 q 414 479 409 476 q 427 481 419 481 q 434 480 430 481 q 437 480 435 480 q 439 479 439 479 q 444 476 444 477 q 449 474 447 474 q 451 475 450 474 q 452 480 452 476 l 455 480 q 454 452 454 475 l 451 452 q 448 465 450 463 q 441 475 447 470 q 429 479 435 479 q 420 477 424 479 q 414 471 416 475 q 411 463 411 465 q 416 450 411 456 q 427 441 418 447 q 435 437 431 439 q 449 427 442 433 m 491 398 l 513 471 q 514 471 513 471 q 515 471 515 471 q 516 470 516 471 l 516 469 l 492 398 q 492 397 492 397 q 491 398 491 397 m 541 421 q 523 419 534 419 l 519 419 l 514 419 q 505 422 506 420 q 507 425 505 424 q 511 426 508 426 q 543 429 532 426 q 561 440 555 433 q 566 461 566 448 l 566 462 l 566 462 l 566 462 l 566 462 l 566 462 l 566 462 l 566 462 l 568 462 l 568 462 l 568 462 l 568 462 l 568 462 l 568 462 l 568 462 l 568 461 q 562 439 568 448 q 543 428 557 432 q 511 425 532 425 l 508 425 q 511 421 505 422 q 515 420 513 420 q 519 420 517 420 q 523 420 522 420 q 541 422 532 420 q 557 430 551 426 q 570 441 566 435 q 576 458 576 449 q 572 469 576 464 q 566 478 568 476 q 556 484 561 481 q 547 487 548 487 q 531 488 542 488 q 518 488 522 488 q 506 485 510 486 q 500 483 504 484 q 494 481 496 482 q 489 479 492 481 q 484 477 485 477 l 481 475 q 477 473 478 474 l 475 471 q 467 463 469 465 q 464 452 464 459 l 464 451 q 472 437 465 441 q 495 437 482 431 l 495 437 l 496 437 l 496 437 l 496 437 l 496 437 l 496 437 l 496 437 l 496 437 l 496 436 l 496 436 l 496 436 l 496 436 l 496 436 q 471 435 481 428 q 463 450 464 440 l 463 450 l 463 451 l 462 451 l 462 452 l 462 454 q 463 460 462 456 q 465 465 464 463 q 468 469 466 467 l 470 471 l 473 473 l 476 475 q 490 484 486 482 q 504 488 494 486 q 519 491 508 490 q 533 492 524 492 q 543 491 540 492 q 553 488 550 490 q 562 484 559 486 q 570 477 568 479 q 576 467 573 474 q 577 458 577 464 q 575 447 577 452 q 573 444 574 446 q 571 441 572 443 q 569 439 570 439 q 563 433 566 435 q 557 429 559 430 q 541 421 549 424 m 635 454 l 633 454 l 633 455 l 633 456 l 634 458 q 635 460 634 460 l 637 459 l 637 458 l 635 454 q 635 454 635 454 m 826 427 q 828 425 828 426 q 827 420 828 422 q 819 418 826 420 q 787 424 816 418 q 741 424 760 430 q 707 425 719 417 l 704 428 l 699 419 q 697 417 699 418 q 696 415 696 416 l 694 411 l 692 407 q 688 402 689 403 q 682 399 684 398 q 682 413 680 399 q 682 417 682 414 q 683 422 682 420 q 685 427 684 424 q 686 431 686 429 q 687 435 686 432 q 688 439 688 438 q 682 430 684 433 q 676 422 680 427 q 669 414 672 416 q 662 412 665 412 q 659 414 661 412 q 659 423 657 417 q 656 420 658 422 q 654 416 654 418 q 644 407 648 409 q 635 410 637 404 q 635 425 633 416 q 626 413 633 422 q 616 398 619 404 q 614 393 614 396 q 612 388 614 390 q 606 373 611 385 q 600 356 602 361 q 594 347 597 351 q 592 344 593 345 l 591 344 q 589 345 589 344 q 588 349 588 347 q 589 355 588 350 q 599 374 591 360 q 614 399 606 388 q 625 429 622 422 q 622 426 624 428 q 619 424 621 425 q 613 425 616 421 l 612 423 q 611 421 612 422 q 610 420 610 420 q 608 416 610 418 q 606 414 607 416 q 599 416 601 411 q 599 426 597 420 q 598 425 598 426 l 597 425 q 594 424 596 424 q 593 425 593 424 q 594 435 591 426 q 583 424 588 430 q 574 410 579 420 l 573 410 l 572 410 l 572 411 q 576 427 573 416 q 578 434 576 429 q 581 441 580 439 q 520 409 562 410 l 519 409 l 519 409 l 519 409 l 519 410 l 519 410 l 519 410 l 519 410 l 519 410 l 519 410 l 519 410 l 519 411 l 520 411 q 584 452 565 411 q 585 452 584 452 l 586 452 l 587 451 l 587 451 l 585 446 l 579 431 l 577 423 q 575 419 576 422 q 574 416 574 416 q 581 426 578 422 q 589 435 584 429 l 595 440 l 596 441 l 597 441 l 597 442 l 599 441 l 599 440 q 598 438 599 439 q 597 436 597 437 q 594 425 592 426 q 600 429 597 425 q 611 441 604 440 q 613 439 613 441 q 614 437 614 438 l 614 436 q 615 435 615 435 q 614 433 615 434 l 614 431 l 614 429 l 614 428 l 613 427 l 614 426 q 620 426 616 422 q 622 428 621 427 q 624 431 623 430 q 627 435 625 433 l 627 437 q 628 437 627 437 l 629 437 l 629 437 l 629 437 l 629 437 l 629 436 q 618 405 623 418 q 626 415 620 407 q 635 428 631 424 l 636 430 q 642 441 638 436 q 650 445 646 446 q 652 435 655 443 q 644 421 649 422 q 641 422 642 421 l 641 424 l 642 424 q 643 422 642 422 q 648 429 647 422 l 648 430 q 650 442 653 441 q 643 437 647 443 q 638 423 640 431 q 639 410 637 415 q 648 412 642 406 q 657 424 652 416 q 659 426 658 425 q 659 427 659 427 l 659 428 l 660 429 q 666 440 662 435 q 675 445 669 446 q 680 442 678 445 q 680 437 681 439 q 675 434 678 434 q 671 436 672 433 q 673 438 671 438 q 675 437 674 438 q 679 438 677 435 q 679 441 679 439 q 675 444 678 445 q 661 422 667 441 q 662 414 658 415 q 676 424 667 412 q 690 448 686 436 l 684 448 q 684 448 684 448 l 684 449 l 690 450 q 698 469 695 463 q 701 469 699 471 q 702 467 702 468 q 694 450 694 453 q 715 451 705 452 q 732 453 726 450 q 739 463 739 455 l 741 464 q 740 452 748 456 q 720 449 739 448 q 693 449 701 450 q 687 429 689 441 q 686 427 686 429 q 686 425 686 425 q 685 420 685 423 l 683 411 q 682 400 680 401 q 687 403 684 399 q 692 409 690 407 l 693 412 q 695 416 694 413 q 698 420 697 418 q 701 425 699 422 q 703 429 702 427 q 702 432 702 431 q 705 440 700 438 q 707 440 706 441 q 705 429 709 437 l 708 426 q 741 425 719 418 q 787 425 760 431 q 819 420 816 420 q 826 422 824 421 q 827 425 827 422 q 825 426 827 426 q 824 426 825 427 q 823 425 823 426 q 824 424 823 425 q 825 424 825 425 q 825 422 826 423 l 825 422 l 823 422 q 822 425 822 422 q 826 427 822 429 m 600 416 q 609 420 602 410 q 612 426 611 423 q 610 427 610 426 q 607 431 607 428 q 608 435 607 433 q 608 436 608 435 q 609 438 608 437 l 608 437 l 606 435 l 606 434 q 601 426 602 429 q 600 418 600 423 q 600 417 600 418 q 600 416 600 416 m 612 427 q 613 433 613 431 q 612 439 613 437 l 612 438 l 611 438 q 610 437 610 438 q 610 436 610 437 q 609 434 609 435 l 609 431 q 612 427 609 428 m 610 389 l 610 390 q 601 374 608 387 q 591 355 592 358 q 590 349 590 349 q 591 346 590 347 q 592 348 591 347 q 597 357 595 352 q 610 389 597 358 m 706 439 q 703 436 704 439 q 704 431 703 433 q 706 439 709 437 m 413 583 l 398 586 l 399 618 l 379 589 l 374 589 l 366 623 l 356 593 l 340 595 l 358 648 l 373 646 l 381 614 l 399 642 l 414 640 l 413 583 m 497 584 q 498 578 497 584 q 491 562 498 572 q 472 550 484 551 q 450 557 460 549 q 437 576 439 565 q 442 598 435 588 q 462 610 451 610 q 484 604 473 612 q 497 584 495 595 m 479 572 q 476 592 488 583 q 465 595 471 596 q 455 589 459 593 q 458 568 446 577 q 479 572 469 559 m 311 644 l 314 632 l 294 627 l 296 618 l 314 623 l 317 611 l 300 606 l 302 599 l 322 604 l 326 591 l 290 582 l 277 635 l 311 644 m 218 605 q 239 610 229 612 q 258 599 252 608 q 262 578 264 589 q 250 559 260 567 l 232 547 l 200 592 l 218 605 m 245 590 q 236 596 241 595 q 226 593 231 597 l 220 589 l 236 567 l 241 571 q 245 590 253 579 m 387 203 l 383 202 l 363 231 l 364 199 l 349 197 l 349 253 l 363 255 l 381 227 l 389 259 l 404 262 l 421 208 l 406 205 l 397 237 l 387 203 m 254 274 q 255 268 254 274 q 248 253 256 262 q 229 242 241 243 q 208 250 218 241 l 191 264 l 226 307 l 243 293 q 254 274 252 285 m 229 286 l 212 265 l 216 261 q 236 263 227 252 q 234 282 245 273 l 229 286 m 472 297 q 491 286 483 296 q 497 263 498 275 q 484 243 495 252 q 461 237 473 235 q 442 248 450 238 q 436 270 435 258 q 449 290 438 282 q 472 297 459 298 m 455 258 q 476 255 465 245 q 479 275 488 264 q 469 281 475 280 q 458 279 463 283 q 455 258 446 269 m 317 243 l 298 250 l 296 241 l 313 237 l 309 224 l 292 229 l 290 221 l 310 216 l 307 203 l 271 213 l 287 267 l 321 256 l 317 243 m 471 496 q 465 497 467 493 q 416 542 446 526 q 350 559 385 559 q 284 542 314 559 q 235 496 254 526 q 229 494 233 492 q 227 501 224 497 q 279 550 247 532 q 350 568 312 568 q 420 550 387 568 q 472 502 452 532 q 471 496 475 498 m 471 361 q 478 363 474 366 q 480 356 483 360 q 427 298 462 320 q 350 277 392 277 q 271 300 307 277 q 218 362 235 323 q 220 368 216 366 l 221 368 q 226 366 224 370 q 276 308 242 330 q 350 286 309 286 q 422 307 389 286 q 471 361 454 327 m 503 559 q 507 557 505 559 q 532 522 519 543 q 530 515 534 518 q 524 517 526 513 q 499 551 512 538 q 500 557 497 555 q 503 559 501 559 m 144 421 q 198 559 144 500 q 202 561 199 561 q 205 560 204 561 q 205 553 209 556 q 154 421 154 496 q 197 298 154 352 q 197 292 200 294 q 190 292 193 289 q 144 421 144 349 m 545 382 q 549 386 546 386 q 549 386 549 386 q 550 385 549 385 q 554 380 555 384 q 515 295 545 334 q 509 294 512 291 q 507 300 505 296 q 545 382 535 337 z "},"5":{"ha":872,"x_min":45,"x_max":828,"o":"m 612 302 q 618 280 626 295 q 508 162 580 207 q 349 118 435 118 q 134 207 223 118 q 45 422 45 296 q 134 638 45 549 q 349 727 223 727 q 508 683 435 727 q 618 565 580 638 q 612 543 626 550 q 600 541 605 539 q 589 549 592 544 q 491 655 555 615 q 349 694 427 694 q 157 615 236 694 q 77 422 77 536 q 157 230 77 309 q 349 151 236 151 q 491 190 427 151 q 589 296 555 230 q 600 304 592 301 q 612 302 605 306 m 567 553 q 561 555 564 551 q 471 640 527 608 q 349 672 415 672 q 173 599 246 672 q 100 422 100 526 q 173 246 100 319 q 349 173 246 173 q 471 205 415 173 q 561 290 527 237 q 567 292 564 294 q 569 285 572 289 q 476 196 534 229 q 349 163 418 163 q 166 239 242 163 q 90 422 90 315 q 166 606 90 530 q 349 682 242 682 q 476 649 418 682 q 569 559 534 616 q 567 553 572 555 m 383 465 l 383 410 q 370 401 376 408 l 370 465 q 369 473 370 470 q 366 476 368 475 q 359 477 365 477 l 359 479 l 376 479 l 395 479 l 395 477 q 387 476 389 477 q 384 473 385 475 q 383 465 383 471 m 359 380 l 359 384 q 366 385 365 384 q 369 388 368 385 q 375 398 371 394 q 381 403 378 401 l 383 404 l 383 395 q 384 388 383 389 q 387 385 385 386 q 395 384 389 384 l 395 380 q 387 381 393 380 q 376 381 380 381 q 366 381 372 381 q 359 380 360 380 m 252 444 q 243 434 250 438 q 228 429 237 429 l 229 428 q 239 425 236 427 q 245 419 243 423 q 249 410 248 414 l 252 395 q 254 389 254 390 q 256 385 256 386 q 260 384 258 384 q 263 385 262 384 l 264 386 q 266 388 265 387 q 267 389 267 389 l 269 388 q 262 381 267 384 q 254 379 259 379 q 245 382 248 379 q 239 394 242 384 l 236 408 q 234 414 235 410 q 233 419 233 418 q 229 425 233 422 q 220 428 224 428 l 207 428 l 207 395 q 208 388 207 391 q 211 385 210 385 q 218 384 212 384 l 218 380 q 211 381 217 380 q 201 381 205 381 q 190 381 196 381 q 183 380 184 380 l 183 384 q 190 385 189 384 q 193 388 192 386 q 194 395 194 389 l 194 465 q 193 473 194 471 q 190 476 192 475 q 183 477 189 477 l 183 479 l 200 479 l 212 479 l 221 479 q 239 476 231 479 q 251 468 247 473 q 254 455 254 464 q 252 444 254 448 m 239 441 q 241 454 241 446 q 235 471 241 464 q 218 477 231 477 q 211 476 212 477 q 208 472 210 475 q 207 465 207 469 l 207 431 l 216 431 q 231 433 227 431 q 239 441 237 437 m 331 385 q 334 389 334 386 q 332 395 334 391 l 323 418 l 322 421 l 307 463 l 290 421 l 290 418 l 284 404 q 281 392 281 395 q 284 386 281 388 q 293 384 287 384 l 293 380 q 285 381 290 380 q 277 381 280 381 q 272 381 275 381 q 267 380 268 380 l 267 384 q 277 395 273 386 l 311 480 l 313 480 l 347 393 q 357 384 349 384 l 357 380 q 350 381 355 380 q 342 381 345 381 q 331 381 337 381 q 323 380 325 380 l 323 384 q 331 385 330 384 m 449 427 q 457 418 454 423 q 460 406 460 413 q 456 391 460 397 q 445 382 452 385 q 430 378 437 378 q 419 380 427 378 q 411 384 416 381 q 406 386 408 386 q 404 385 406 386 q 404 380 404 384 l 400 380 q 401 413 401 385 l 404 413 q 411 390 404 399 q 429 382 416 382 q 438 383 435 382 q 445 390 443 385 q 448 400 448 393 q 445 410 448 406 q 437 418 441 416 q 426 426 429 425 q 412 435 414 433 q 404 444 408 439 q 401 457 401 450 q 404 471 401 465 q 414 479 409 476 q 427 481 419 481 q 434 480 430 481 q 437 480 435 480 q 439 479 439 479 q 444 476 444 477 q 449 474 447 474 q 451 475 450 474 q 452 480 452 476 l 455 480 q 454 452 454 475 l 451 452 q 448 465 450 463 q 441 475 447 470 q 429 479 435 479 q 420 477 424 479 q 414 471 416 475 q 411 463 411 465 q 416 450 411 456 q 427 441 418 447 q 435 437 431 439 q 449 427 442 433 m 491 398 l 513 471 q 514 471 513 471 q 515 471 515 471 q 516 470 516 471 l 516 469 l 492 398 q 492 397 492 397 q 491 398 491 397 m 541 421 q 523 419 534 419 l 519 419 l 514 419 q 505 422 506 420 q 507 425 505 424 q 511 426 508 426 q 543 429 532 426 q 561 440 555 433 q 566 461 566 448 l 566 462 l 566 462 l 566 462 l 566 462 l 566 462 l 566 462 l 566 462 l 568 462 l 568 462 l 568 462 l 568 462 l 568 462 l 568 462 l 568 462 l 568 461 q 562 439 568 448 q 543 428 557 432 q 511 425 532 425 l 508 425 q 511 421 505 422 q 515 420 513 420 q 519 420 517 420 q 523 420 522 420 q 541 422 532 420 q 557 430 551 426 q 570 441 566 435 q 576 458 576 449 q 572 469 576 464 q 566 478 568 476 q 556 484 561 481 q 547 487 548 487 q 531 488 542 488 q 518 488 522 488 q 506 485 510 486 q 500 483 504 484 q 494 481 496 482 q 489 479 492 481 q 484 477 485 477 l 481 475 q 477 473 478 474 l 475 471 q 467 463 469 465 q 464 452 464 459 l 464 451 q 472 437 465 441 q 495 437 482 431 l 495 437 l 496 437 l 496 437 l 496 437 l 496 437 l 496 437 l 496 437 l 496 437 l 496 436 l 496 436 l 496 436 l 496 436 l 496 436 q 471 435 481 428 q 463 450 464 440 l 463 450 l 463 451 l 462 451 l 462 452 l 462 454 q 463 460 462 456 q 465 465 464 463 q 468 469 466 467 l 470 471 l 473 473 l 476 475 q 490 484 486 482 q 504 488 494 486 q 519 491 508 490 q 533 492 524 492 q 543 491 540 492 q 553 488 550 490 q 562 484 559 486 q 570 477 568 479 q 576 467 573 474 q 577 458 577 464 q 575 447 577 452 q 573 444 574 446 q 571 441 572 443 q 569 439 570 439 q 563 433 566 435 q 557 429 559 430 q 541 421 549 424 m 635 454 l 633 454 l 633 455 l 633 456 l 634 458 q 635 460 634 460 l 637 459 l 637 458 l 635 454 q 635 454 635 454 m 826 427 q 828 425 828 426 q 827 420 828 422 q 819 418 826 420 q 787 424 816 418 q 741 424 760 430 q 707 425 719 417 l 704 428 l 699 419 q 697 417 699 418 q 696 415 696 416 l 694 411 l 692 407 q 688 402 689 403 q 682 399 684 398 q 682 413 680 399 q 682 417 682 414 q 683 422 682 420 q 685 427 684 424 q 686 431 686 429 q 687 435 686 432 q 688 439 688 438 q 682 430 684 433 q 676 422 680 427 q 669 414 672 416 q 662 412 665 412 q 659 414 661 412 q 659 423 657 417 q 656 420 658 422 q 654 416 654 418 q 644 407 648 409 q 635 410 637 404 q 635 425 633 416 q 626 413 633 422 q 616 398 619 404 q 614 393 614 396 q 612 388 614 390 q 606 373 611 385 q 600 356 602 361 q 594 347 597 351 q 592 344 593 345 l 591 344 q 589 345 589 344 q 588 349 588 347 q 589 355 588 350 q 599 374 591 360 q 614 399 606 388 q 625 429 622 422 q 622 426 624 428 q 619 424 621 425 q 613 425 616 421 l 612 423 q 611 421 612 422 q 610 420 610 420 q 608 416 610 418 q 606 414 607 416 q 599 416 601 411 q 599 426 597 420 q 598 425 598 426 l 597 425 q 594 424 596 424 q 593 425 593 424 q 594 435 591 426 q 583 424 588 430 q 574 410 579 420 l 573 410 l 572 410 l 572 411 q 576 427 573 416 q 578 434 576 429 q 581 441 580 439 q 520 409 562 410 l 519 409 l 519 409 l 519 409 l 519 410 l 519 410 l 519 410 l 519 410 l 519 410 l 519 410 l 519 410 l 519 411 l 520 411 q 584 452 565 411 q 585 452 584 452 l 586 452 l 587 451 l 587 451 l 585 446 l 579 431 l 577 423 q 575 419 576 422 q 574 416 574 416 q 581 426 578 422 q 589 435 584 429 l 595 440 l 596 441 l 597 441 l 597 442 l 599 441 l 599 440 q 598 438 599 439 q 597 436 597 437 q 594 425 592 426 q 600 429 597 425 q 611 441 604 440 q 613 439 613 441 q 614 437 614 438 l 614 436 q 615 435 615 435 q 614 433 615 434 l 614 431 l 614 429 l 614 428 l 613 427 l 614 426 q 620 426 616 422 q 622 428 621 427 q 624 431 623 430 q 627 435 625 433 l 627 437 q 628 437 627 437 l 629 437 l 629 437 l 629 437 l 629 437 l 629 436 q 618 405 623 418 q 626 415 620 407 q 635 428 631 424 l 636 430 q 642 441 638 436 q 650 445 646 446 q 652 435 655 443 q 644 421 649 422 q 641 422 642 421 l 641 424 l 642 424 q 643 422 642 422 q 648 429 647 422 l 648 430 q 650 442 653 441 q 643 437 647 443 q 638 423 640 431 q 639 410 637 415 q 648 412 642 406 q 657 424 652 416 q 659 426 658 425 q 659 427 659 427 l 659 428 l 660 429 q 666 440 662 435 q 675 445 669 446 q 680 442 678 445 q 680 437 681 439 q 675 434 678 434 q 671 436 672 433 q 673 438 671 438 q 675 437 674 438 q 679 438 677 435 q 679 441 679 439 q 675 444 678 445 q 661 422 667 441 q 662 414 658 415 q 676 424 667 412 q 690 448 686 436 l 684 448 q 684 448 684 448 l 684 449 l 690 450 q 698 469 695 463 q 701 469 699 471 q 702 467 702 468 q 694 450 694 453 q 715 451 705 452 q 732 453 726 450 q 739 463 739 455 l 741 464 q 740 452 748 456 q 720 449 739 448 q 693 449 701 450 q 687 429 689 441 q 686 427 686 429 q 686 425 686 425 q 685 420 685 423 l 683 411 q 682 400 680 401 q 687 403 684 399 q 692 409 690 407 l 693 412 q 695 416 694 413 q 698 420 697 418 q 701 425 699 422 q 703 429 702 427 q 702 432 702 431 q 705 440 700 438 q 707 440 706 441 q 705 429 709 437 l 708 426 q 741 425 719 418 q 787 425 760 431 q 819 420 816 420 q 826 422 824 421 q 827 425 827 422 q 825 426 827 426 q 824 426 825 427 q 823 425 823 426 q 824 424 823 425 q 825 424 825 425 q 825 422 826 423 l 825 422 l 823 422 q 822 425 822 422 q 826 427 822 429 m 600 416 q 609 420 602 410 q 612 426 611 423 q 610 427 610 426 q 607 431 607 428 q 608 435 607 433 q 608 436 608 435 q 609 438 608 437 l 608 437 l 606 435 l 606 434 q 601 426 602 429 q 600 418 600 423 q 600 417 600 418 q 600 416 600 416 m 612 427 q 613 433 613 431 q 612 439 613 437 l 612 438 l 611 438 q 610 437 610 438 q 610 436 610 437 q 609 434 609 435 l 609 431 q 612 427 609 428 m 610 389 l 610 390 q 601 374 608 387 q 591 355 592 358 q 590 349 590 349 q 591 346 590 347 q 592 348 591 347 q 597 357 595 352 q 610 389 597 358 m 706 439 q 703 436 704 439 q 704 431 703 433 q 706 439 709 437 m 413 583 l 398 586 l 399 618 l 379 589 l 374 589 l 366 623 l 356 593 l 340 595 l 358 648 l 373 646 l 381 614 l 399 642 l 414 640 l 413 583 m 311 644 l 314 632 l 294 627 l 296 618 l 314 623 l 317 611 l 300 606 l 302 599 l 322 604 l 326 591 l 290 582 l 277 635 l 311 644 m 497 584 q 498 578 497 584 q 491 562 498 572 q 472 550 484 551 q 450 557 460 549 q 437 576 439 565 q 442 598 435 588 q 462 610 451 610 q 484 604 473 612 q 497 584 495 595 m 479 572 q 476 592 488 583 q 465 595 471 596 q 455 589 459 593 q 458 568 446 577 q 479 572 469 559 m 218 605 q 239 610 229 612 q 258 599 252 608 q 262 578 264 589 q 250 559 260 567 l 232 547 l 200 592 l 218 605 m 245 590 q 236 596 241 595 q 226 593 231 597 l 220 589 l 236 567 l 241 571 q 245 590 253 579 m 254 274 q 255 268 254 274 q 248 253 256 262 q 229 242 241 243 q 208 250 218 241 l 191 264 l 226 307 l 243 293 q 254 274 252 285 m 229 286 l 212 265 l 216 261 q 236 263 227 252 q 234 282 245 273 l 229 286 m 472 297 q 491 286 483 296 q 497 263 498 275 q 484 243 495 252 q 461 237 473 235 q 442 248 450 238 q 436 270 435 258 q 449 290 438 282 q 472 297 459 298 m 455 258 q 476 255 465 245 q 479 275 488 264 q 469 281 475 280 q 458 279 463 283 q 455 258 446 269 m 317 243 l 298 250 l 296 241 l 313 237 l 309 224 l 292 229 l 290 221 l 310 216 l 307 203 l 271 213 l 287 267 l 321 256 l 317 243 m 387 203 l 383 202 l 363 231 l 364 199 l 349 197 l 349 253 l 363 255 l 381 227 l 389 259 l 404 262 l 421 208 l 406 205 l 397 237 l 387 203 m 471 496 q 465 497 467 493 q 416 542 446 526 q 350 559 385 559 q 284 542 314 559 q 235 496 254 526 q 229 494 233 492 q 227 501 224 497 q 279 550 247 532 q 350 568 312 568 q 420 550 387 568 q 472 502 452 532 q 471 496 475 498 m 471 361 q 478 363 474 366 q 480 356 483 360 q 427 298 462 320 q 350 277 392 277 q 271 300 307 277 q 218 362 235 323 q 220 368 216 366 l 221 368 q 226 366 224 370 q 276 308 242 330 q 350 286 309 286 q 422 307 389 286 q 471 361 454 327 m 503 559 q 507 557 505 559 q 532 522 519 543 q 530 515 534 518 q 524 517 526 513 q 499 551 512 538 q 500 557 497 555 q 503 559 501 559 m 545 382 q 549 386 546 386 q 549 386 549 386 q 550 385 549 385 q 554 380 555 384 q 515 295 545 334 q 509 294 512 291 q 507 300 505 296 q 545 382 535 337 m 144 421 q 198 559 144 500 q 202 561 199 561 q 205 560 204 561 q 205 553 209 556 q 154 421 154 496 q 197 298 154 352 q 197 292 200 294 q 190 292 193 289 q 144 421 144 349 z "},"6":{"ha":872,"x_min":45,"x_max":828,"o":"m 612 302 q 618 280 626 295 q 508 162 580 207 q 349 118 435 118 q 134 207 223 118 q 45 422 45 296 q 134 638 45 549 q 349 727 223 727 q 508 683 435 727 q 618 565 580 638 q 612 543 626 550 q 600 541 605 539 q 589 549 592 544 q 491 655 555 615 q 349 694 427 694 q 157 615 236 694 q 77 422 77 536 q 157 230 77 309 q 349 151 236 151 q 491 190 427 151 q 589 296 555 230 q 600 304 592 301 q 612 302 605 306 m 567 553 q 561 555 564 551 q 471 640 527 608 q 349 672 415 672 q 173 599 246 672 q 100 422 100 526 q 173 246 100 319 q 349 173 246 173 q 471 205 415 173 q 561 290 527 237 q 567 292 564 294 q 569 285 572 289 q 476 196 534 229 q 349 163 418 163 q 166 239 242 163 q 90 422 90 315 q 166 606 90 530 q 349 682 242 682 q 476 649 418 682 q 569 559 534 616 q 567 553 572 555 m 383 465 l 383 410 q 370 401 376 408 l 370 465 q 369 473 370 470 q 366 476 368 475 q 359 477 365 477 l 359 479 l 376 479 l 395 479 l 395 477 q 387 476 389 477 q 384 473 385 475 q 383 465 383 471 m 359 380 l 359 384 q 366 385 365 384 q 369 388 368 385 q 375 398 371 394 q 381 403 378 401 l 383 404 l 383 395 q 384 388 383 389 q 387 385 385 386 q 395 384 389 384 l 395 380 q 387 381 393 380 q 376 381 380 381 q 366 381 372 381 q 359 380 360 380 m 252 444 q 243 434 250 438 q 228 429 237 429 l 229 428 q 239 425 236 427 q 245 419 243 423 q 249 410 248 414 l 252 395 q 254 389 254 390 q 256 385 256 386 q 260 384 258 384 q 263 385 262 384 l 264 386 q 266 388 265 387 q 267 389 267 389 l 269 388 q 262 381 267 384 q 254 379 259 379 q 245 382 248 379 q 239 394 242 384 l 236 408 q 234 414 235 410 q 233 419 233 418 q 229 425 233 422 q 220 428 224 428 l 207 428 l 207 395 q 208 388 207 391 q 211 385 210 385 q 218 384 212 384 l 218 380 q 211 381 217 380 q 201 381 205 381 q 190 381 196 381 q 183 380 184 380 l 183 384 q 190 385 189 384 q 193 388 192 386 q 194 395 194 389 l 194 465 q 193 473 194 471 q 190 476 192 475 q 183 477 189 477 l 183 479 l 200 479 l 212 479 l 221 479 q 239 476 231 479 q 251 468 247 473 q 254 455 254 464 q 252 444 254 448 m 239 441 q 241 454 241 446 q 235 471 241 464 q 218 477 231 477 q 211 476 212 477 q 208 472 210 475 q 207 465 207 469 l 207 431 l 216 431 q 231 433 227 431 q 239 441 237 437 m 331 385 q 334 389 334 386 q 332 395 334 391 l 323 418 l 322 421 l 307 463 l 290 421 l 290 418 l 284 404 q 281 392 281 395 q 284 386 281 388 q 293 384 287 384 l 293 380 q 285 381 290 380 q 277 381 280 381 q 272 381 275 381 q 267 380 268 380 l 267 384 q 277 395 273 386 l 311 480 l 313 480 l 347 393 q 357 384 349 384 l 357 380 q 350 381 355 380 q 342 381 345 381 q 331 381 337 381 q 323 380 325 380 l 323 384 q 331 385 330 384 m 449 427 q 457 418 454 423 q 460 406 460 413 q 456 391 460 397 q 445 382 452 385 q 430 378 437 378 q 419 380 427 378 q 411 384 416 381 q 406 386 408 386 q 404 385 406 386 q 404 380 404 384 l 400 380 q 401 413 401 385 l 404 413 q 411 390 404 399 q 429 382 416 382 q 438 383 435 382 q 445 390 443 385 q 448 400 448 393 q 445 410 448 406 q 437 418 441 416 q 426 426 429 425 q 412 435 414 433 q 404 444 408 439 q 401 457 401 450 q 404 471 401 465 q 414 479 409 476 q 427 481 419 481 q 434 480 430 481 q 437 480 435 480 q 439 479 439 479 q 444 476 444 477 q 449 474 447 474 q 451 475 450 474 q 452 480 452 476 l 455 480 q 454 452 454 475 l 451 452 q 448 465 450 463 q 441 475 447 470 q 429 479 435 479 q 420 477 424 479 q 414 471 416 475 q 411 463 411 465 q 416 450 411 456 q 427 441 418 447 q 435 437 431 439 q 449 427 442 433 m 541 421 q 523 419 534 419 l 519 419 l 514 419 q 505 422 506 420 q 507 425 505 424 q 511 426 508 426 q 543 429 532 426 q 561 440 555 433 q 566 461 566 448 l 566 462 l 566 462 l 566 462 l 566 462 l 566 462 l 566 462 l 566 462 l 568 462 l 568 462 l 568 462 l 568 462 l 568 462 l 568 462 l 568 462 l 568 461 q 562 439 568 448 q 543 428 557 432 q 511 425 532 425 l 508 425 q 511 421 505 422 q 515 420 513 420 q 519 420 517 420 q 523 420 522 420 q 541 422 532 420 q 557 430 551 426 q 570 441 566 435 q 576 458 576 449 q 572 469 576 464 q 566 478 568 476 q 556 484 561 481 q 547 487 548 487 q 531 488 542 488 q 518 488 522 488 q 506 485 510 486 q 500 483 504 484 q 494 481 496 482 q 489 479 492 481 q 484 477 485 477 l 481 475 q 477 473 478 474 l 475 471 q 467 463 469 465 q 464 452 464 459 l 464 451 q 472 437 465 441 q 495 437 482 431 l 495 437 l 496 437 l 496 437 l 496 437 l 496 437 l 496 437 l 496 437 l 496 437 l 496 436 l 496 436 l 496 436 l 496 436 l 496 436 q 471 435 481 428 q 463 450 464 440 l 463 450 l 463 451 l 462 451 l 462 452 l 462 454 q 463 460 462 456 q 465 465 464 463 q 468 469 466 467 l 470 471 l 473 473 l 476 475 q 490 484 486 482 q 504 488 494 486 q 519 491 508 490 q 533 492 524 492 q 543 491 540 492 q 553 488 550 490 q 562 484 559 486 q 570 477 568 479 q 576 467 573 474 q 577 458 577 464 q 575 447 577 452 q 573 444 574 446 q 571 441 572 443 q 569 439 570 439 q 563 433 566 435 q 557 429 559 430 q 541 421 549 424 m 491 398 l 513 471 q 514 471 513 471 q 515 471 515 471 q 516 470 516 471 l 516 469 l 492 398 q 492 397 492 397 q 491 398 491 397 m 635 454 l 633 454 l 633 455 l 633 456 l 634 458 q 635 460 634 460 l 637 459 l 637 458 l 635 454 q 635 454 635 454 m 826 427 q 828 425 828 426 q 827 420 828 422 q 819 418 826 420 q 787 424 816 418 q 741 424 760 430 q 707 425 719 417 l 704 428 l 699 419 q 697 417 699 418 q 696 415 696 416 l 694 411 l 692 407 q 688 402 689 403 q 682 399 684 398 q 682 413 680 399 q 682 417 682 414 q 683 422 682 420 q 685 427 684 424 q 686 431 686 429 q 687 435 686 432 q 688 439 688 438 q 682 430 684 433 q 676 422 680 427 q 669 414 672 416 q 662 412 665 412 q 659 414 661 412 q 659 423 657 417 q 656 420 658 422 q 654 416 654 418 q 644 407 648 409 q 635 410 637 404 q 635 425 633 416 q 626 413 633 422 q 616 398 619 404 q 614 393 614 396 q 612 388 614 390 q 606 373 611 385 q 600 356 602 361 q 594 347 597 351 q 592 344 593 345 l 591 344 q 589 345 589 344 q 588 349 588 347 q 589 355 588 350 q 599 374 591 360 q 614 399 606 388 q 625 429 622 422 q 622 426 624 428 q 619 424 621 425 q 613 425 616 421 l 612 423 q 611 421 612 422 q 610 420 610 420 q 608 416 609 417 l 606 414 q 599 416 601 411 q 599 426 597 420 q 598 425 598 426 l 597 425 q 594 424 596 424 q 593 425 593 424 q 594 435 591 426 q 583 424 588 430 q 574 410 579 420 l 573 410 l 572 410 l 572 411 q 576 427 573 416 q 578 434 576 429 q 581 441 580 439 q 520 409 562 410 l 519 409 l 519 409 l 519 409 l 519 410 l 519 410 l 519 410 l 519 410 l 519 410 l 519 411 l 520 411 q 584 452 565 411 q 585 452 584 452 l 586 452 l 587 451 l 587 451 l 585 446 l 579 431 l 577 423 q 575 419 576 422 q 574 416 574 416 q 581 426 578 422 q 589 435 584 429 l 595 440 l 596 441 l 597 441 l 597 442 l 599 441 l 599 440 q 598 438 599 439 q 597 436 597 437 q 594 425 592 426 q 600 429 597 425 q 611 441 604 440 q 613 439 613 441 q 614 437 614 438 l 614 436 q 615 435 615 435 q 614 433 615 434 l 614 431 l 614 429 l 614 428 l 613 427 l 614 426 q 620 426 616 422 q 622 428 621 427 q 624 431 623 430 q 627 435 625 433 l 627 437 q 628 437 627 437 l 629 437 l 629 437 l 629 437 l 629 437 l 629 436 q 618 405 623 418 q 626 415 620 407 q 635 428 631 424 l 636 430 q 642 441 638 436 q 650 445 646 446 q 652 435 655 443 q 644 421 649 422 q 641 422 642 421 l 641 424 l 642 424 q 643 422 642 422 q 648 429 647 422 l 648 430 q 650 442 653 441 q 643 437 647 443 q 638 423 640 431 q 639 410 637 415 q 648 412 642 406 q 657 424 652 416 q 659 426 658 425 q 659 427 659 427 l 659 428 l 660 429 q 666 440 662 435 q 675 445 669 446 q 680 442 678 445 q 680 437 681 439 q 675 434 678 434 q 671 436 672 433 q 673 438 671 438 q 675 437 674 438 q 679 438 677 435 q 679 441 679 439 q 675 444 678 445 q 661 422 667 441 q 662 414 658 415 q 676 424 667 412 q 690 448 686 436 l 684 448 q 684 448 684 448 l 684 449 l 690 450 q 698 469 695 463 q 701 469 699 471 q 702 467 702 468 q 694 450 694 453 q 715 451 705 452 q 732 453 726 450 q 739 463 739 455 l 741 464 q 740 452 748 456 q 720 449 739 448 q 693 449 701 450 q 687 429 689 441 q 686 427 686 429 q 686 425 686 425 q 685 420 685 423 l 683 411 q 682 400 680 401 q 687 403 684 399 q 692 409 690 407 l 693 412 q 695 416 694 413 q 698 420 697 418 q 701 425 699 422 q 703 429 702 427 q 702 432 702 431 q 705 440 700 438 q 707 440 706 441 q 705 429 709 437 l 708 426 q 741 425 719 418 q 787 425 760 431 q 819 420 816 420 q 826 422 824 421 q 827 425 827 422 q 825 426 827 426 q 824 426 825 427 q 823 425 823 426 q 824 424 823 425 q 825 424 825 425 q 825 422 826 423 l 825 422 l 823 422 q 822 425 822 422 q 826 427 822 429 m 600 416 q 609 420 602 410 q 612 426 611 423 q 610 427 610 426 q 607 431 607 428 q 608 435 607 433 q 608 436 608 435 q 609 438 608 437 l 608 437 l 606 435 l 606 434 q 602 426 602 430 q 600 418 600 422 q 600 417 600 418 q 600 416 600 416 m 612 427 q 613 433 613 431 q 612 439 613 437 l 612 438 l 611 438 q 610 437 610 438 q 610 436 610 437 q 609 434 609 435 l 609 431 q 612 427 609 428 m 610 389 l 610 390 q 601 374 608 387 q 591 355 592 358 q 590 349 590 349 q 591 346 590 347 q 592 348 591 347 q 597 357 595 352 q 610 389 597 358 m 706 439 q 703 436 704 439 q 704 431 703 433 q 706 439 709 437 m 311 644 l 314 632 l 294 627 l 296 618 l 314 623 l 317 611 l 300 606 l 302 599 l 322 604 l 326 591 l 290 582 l 277 635 l 311 644 m 413 583 l 398 586 l 399 618 l 379 589 l 374 589 l 366 623 l 356 593 l 340 595 l 358 648 l 373 646 l 381 614 l 399 642 l 414 640 l 413 583 m 497 584 q 498 578 497 584 q 491 562 498 572 q 472 550 484 551 q 450 557 460 549 q 437 576 439 565 q 442 598 435 588 q 462 610 451 610 q 484 604 473 612 q 497 584 495 595 m 479 571 q 476 592 488 583 q 465 595 471 596 q 455 589 459 593 q 458 568 446 577 q 479 571 469 559 m 218 605 q 239 610 229 612 q 258 599 252 608 q 262 578 264 589 q 250 559 260 567 l 232 547 l 200 592 l 218 605 m 245 590 q 236 596 241 595 q 226 593 231 597 l 220 589 l 236 567 l 241 571 q 245 590 253 579 m 254 274 q 255 268 254 274 q 248 253 256 262 q 229 242 241 243 q 208 250 218 241 l 191 264 l 226 307 l 243 293 q 254 274 252 285 m 229 286 l 212 265 l 216 261 q 236 263 227 252 q 234 282 245 273 l 229 286 m 317 243 l 298 250 l 296 241 l 313 237 l 309 224 l 292 229 l 290 221 l 310 216 l 307 203 l 271 213 l 287 267 l 321 256 l 317 243 m 387 203 l 383 202 l 363 231 l 364 199 l 349 197 l 349 253 l 363 255 l 381 227 l 389 259 l 404 262 l 421 208 l 406 205 l 397 237 l 387 203 m 472 297 q 491 286 483 296 q 497 263 498 275 q 484 243 495 252 q 461 237 473 235 q 442 248 450 238 q 436 270 435 258 q 449 290 438 282 q 472 297 459 298 m 455 258 q 476 255 465 245 q 479 275 488 264 q 469 281 475 280 q 458 279 463 283 q 455 258 446 269 m 471 496 q 465 497 467 493 q 416 542 446 526 q 350 559 385 559 q 284 542 314 559 q 235 496 254 526 q 229 494 233 492 q 227 501 224 497 q 279 550 247 532 q 350 568 312 568 q 420 550 387 568 q 472 502 452 532 q 471 496 475 498 m 471 361 q 478 363 474 366 q 480 356 483 360 q 427 298 462 320 q 350 277 392 277 q 271 300 307 277 q 218 362 235 323 q 220 368 216 366 l 221 368 q 226 366 224 370 q 276 308 242 330 q 350 286 309 286 q 422 307 389 286 q 471 361 454 327 m 144 421 q 198 559 144 500 q 202 561 199 561 q 205 560 204 561 q 205 553 209 556 q 154 421 154 496 q 197 298 154 352 q 197 292 200 294 q 190 292 193 289 q 144 421 144 349 m 503 559 q 507 557 505 559 q 532 522 519 543 q 530 515 534 518 q 524 517 526 513 q 499 551 512 538 q 500 557 497 555 q 503 559 501 559 m 545 382 q 549 386 546 386 q 549 386 549 386 q 550 385 549 385 q 554 380 555 384 q 515 295 545 334 q 509 294 512 291 q 507 300 505 296 q 545 382 535 337 z "},"7":{"ha":872,"x_min":45,"x_max":828,"o":"m 612 302 q 618 280 626 295 q 508 162 580 207 q 349 118 435 118 q 134 207 223 118 q 45 422 45 296 q 134 638 45 549 q 349 727 223 727 q 508 683 435 727 q 618 565 580 638 q 612 543 626 550 q 600 541 605 539 q 589 549 592 544 q 491 655 555 615 q 349 694 427 694 q 157 615 236 694 q 77 422 77 536 q 157 230 77 309 q 349 151 236 151 q 491 190 427 151 q 589 296 555 230 q 600 304 592 301 q 612 302 605 306 m 567 553 q 561 555 564 551 q 471 640 527 608 q 349 672 415 672 q 173 599 246 672 q 100 422 100 526 q 173 246 100 319 q 349 173 246 173 q 471 205 415 173 q 561 290 527 237 q 567 292 564 294 q 569 285 572 289 q 476 196 534 229 q 349 163 418 163 q 166 239 242 163 q 90 422 90 315 q 166 606 90 530 q 349 682 242 682 q 476 649 418 682 q 569 559 534 616 q 567 553 572 555 m 383 465 l 383 410 q 370 401 376 408 l 370 465 q 369 473 370 470 q 366 476 368 475 q 359 477 365 477 l 359 479 l 376 479 l 395 479 l 395 477 q 387 476 389 477 q 384 473 385 475 q 383 465 383 471 m 359 380 l 359 384 q 366 385 365 384 q 369 388 368 385 q 375 398 371 394 q 381 403 378 401 l 383 404 l 383 395 q 384 388 383 389 q 387 385 385 386 q 395 384 389 384 l 395 380 q 387 381 393 380 q 376 381 380 381 q 366 381 372 381 q 359 380 360 380 m 252 444 q 243 434 250 438 q 228 429 237 429 l 229 428 q 239 425 236 427 q 245 419 243 423 q 249 410 248 414 l 252 395 q 254 389 254 390 q 256 385 256 386 q 260 384 258 384 q 263 385 262 384 l 264 386 q 266 388 265 387 q 267 389 267 389 l 269 388 q 262 381 267 384 q 254 379 259 379 q 245 382 248 379 q 239 394 242 384 l 236 408 q 234 414 235 410 q 233 419 233 418 q 229 425 233 422 q 220 428 224 428 l 207 428 l 207 395 q 208 388 207 391 q 211 385 210 385 q 218 384 212 384 l 218 380 q 211 381 217 380 q 201 381 205 381 q 190 381 196 381 q 183 380 184 380 l 183 384 q 190 385 189 384 q 193 388 192 386 q 194 395 194 389 l 194 465 q 193 473 194 471 q 190 476 192 475 q 183 477 189 477 l 183 479 l 200 479 l 212 479 l 221 479 q 239 476 231 479 q 251 468 247 473 q 254 455 254 464 q 252 444 254 448 m 239 441 q 241 454 241 446 q 235 471 241 464 q 218 477 231 477 q 211 476 212 477 q 208 472 210 475 q 207 465 207 469 l 207 431 l 216 431 q 231 433 227 431 q 239 441 237 437 m 331 385 q 334 389 334 386 q 332 395 334 391 l 323 418 l 322 421 l 307 463 l 290 421 l 290 418 l 284 404 q 281 392 281 395 q 284 386 281 388 q 293 384 287 384 l 293 380 q 285 381 290 380 q 277 381 280 381 q 272 381 275 381 q 267 380 268 380 l 267 384 q 277 395 273 386 l 311 480 l 313 480 l 347 393 q 357 384 349 384 l 357 380 q 350 381 355 380 q 342 381 345 381 q 331 381 337 381 q 323 380 325 380 l 323 384 q 331 385 330 384 m 449 427 q 457 418 454 423 q 460 406 460 413 q 456 391 460 397 q 445 382 452 385 q 430 378 437 378 q 419 380 427 378 q 411 384 416 381 q 406 386 408 386 q 404 385 406 386 q 404 380 404 384 l 400 380 q 401 413 401 385 l 404 413 q 411 390 404 399 q 429 382 416 382 q 438 383 435 382 q 445 390 443 385 q 448 400 448 393 q 445 410 448 406 q 437 418 441 416 q 426 426 429 425 q 412 435 414 433 q 404 444 408 439 q 401 457 401 450 q 404 471 401 465 q 414 479 409 476 q 427 481 419 481 q 434 480 430 481 q 437 480 435 480 q 439 479 439 479 q 444 476 444 477 q 449 474 447 474 q 451 475 450 474 q 452 480 452 476 l 455 480 q 454 452 454 475 l 451 452 q 448 465 450 463 q 441 475 447 470 q 429 479 435 479 q 420 477 424 479 q 414 471 416 475 q 411 463 411 465 q 416 450 411 456 q 427 441 418 447 q 435 437 431 439 q 449 427 442 433 m 491 398 l 513 471 q 514 471 513 471 q 515 471 515 471 q 516 470 516 471 l 516 469 l 492 398 q 492 397 492 397 q 491 398 491 397 m 541 421 q 523 419 534 419 l 519 419 l 514 419 q 505 422 506 420 q 507 425 505 424 q 511 426 508 426 q 543 429 532 426 q 561 440 555 433 q 566 461 566 448 l 566 462 l 566 462 l 566 462 l 566 462 l 566 462 l 566 462 l 566 462 l 568 462 l 568 462 l 568 462 l 568 462 l 568 462 l 568 462 l 568 462 l 568 461 q 562 439 568 448 q 543 428 557 432 q 511 425 532 425 l 508 425 q 511 421 505 422 q 515 420 513 420 q 519 420 517 420 q 523 420 522 420 q 541 422 532 420 q 557 430 551 426 q 570 441 566 435 q 576 458 576 449 q 572 469 576 464 q 566 478 568 476 q 556 484 561 481 q 547 487 548 487 q 531 488 542 488 q 518 488 522 488 q 506 485 510 486 q 500 483 504 484 q 494 481 496 482 q 489 479 492 481 q 484 477 485 477 l 481 475 q 477 473 478 474 l 475 471 q 467 463 469 465 q 464 452 464 459 l 464 451 q 472 437 465 441 q 495 437 482 431 l 495 437 l 496 437 l 496 437 l 496 437 l 496 437 l 496 437 l 496 437 l 496 437 l 496 436 l 496 436 l 496 436 l 496 436 l 496 436 q 471 435 481 428 q 463 450 464 440 l 463 450 l 463 451 l 462 451 l 462 452 l 462 454 q 463 460 462 456 q 465 465 464 463 q 468 469 466 467 l 470 471 l 473 473 l 476 475 q 490 484 486 482 q 504 488 494 486 q 519 491 508 490 q 533 492 524 492 q 543 491 540 492 q 553 488 550 490 q 562 484 559 486 q 570 477 568 479 q 576 467 573 474 q 577 458 577 464 q 575 447 577 452 q 573 444 574 446 q 571 441 572 443 q 569 439 570 439 q 563 433 566 435 q 557 429 559 430 q 541 421 549 424 m 635 454 l 633 454 l 633 455 l 633 456 l 634 458 q 635 460 634 460 l 637 459 l 637 458 l 635 454 q 635 454 635 454 m 826 427 q 828 425 828 426 q 827 420 828 422 q 819 418 826 420 q 787 424 816 418 q 741 424 760 430 q 707 425 719 417 l 704 428 l 699 419 q 697 417 699 418 q 696 415 696 416 l 694 411 l 692 407 q 688 402 689 403 q 682 399 684 398 q 682 413 680 399 q 682 417 682 414 q 683 422 682 420 q 685 427 684 424 q 686 431 686 429 q 687 435 686 432 q 688 439 688 438 q 682 430 684 433 q 676 422 680 427 q 669 414 672 416 q 662 412 665 412 q 659 414 661 412 q 659 423 657 417 q 656 420 658 422 q 654 416 654 418 q 644 407 648 409 q 635 410 637 404 q 635 425 633 416 q 626 413 633 422 q 616 398 619 404 q 614 393 614 396 q 612 388 614 390 q 606 373 611 385 q 600 356 602 361 q 594 347 597 351 q 592 344 593 345 l 591 344 q 589 345 589 344 q 588 349 588 347 q 589 355 588 350 q 599 374 591 360 q 614 399 606 388 q 625 429 622 422 q 622 426 624 428 q 619 424 621 425 q 613 425 616 421 l 612 423 q 611 421 612 422 q 610 420 610 420 q 608 416 610 418 q 606 414 607 416 q 599 416 601 411 q 599 426 597 420 q 598 425 598 426 l 597 425 q 594 424 596 424 q 593 425 593 424 q 594 435 591 426 q 583 424 588 430 q 574 410 579 420 l 573 410 l 572 410 l 572 411 q 576 427 573 416 q 578 434 576 429 q 581 441 580 439 q 520 409 562 410 l 519 409 l 519 409 l 519 409 l 519 410 l 519 410 l 519 410 l 519 410 l 519 410 l 519 410 l 519 410 l 519 411 l 520 411 q 584 452 565 411 q 585 452 584 452 l 586 452 l 587 451 l 587 451 l 585 446 l 579 431 l 577 423 q 575 419 576 422 q 574 416 574 416 q 581 426 578 422 q 589 435 584 429 l 595 440 l 596 441 l 597 441 l 597 442 l 599 441 l 599 440 q 598 438 599 439 q 597 436 597 437 q 594 425 592 426 q 600 429 597 425 q 611 441 604 440 q 613 439 613 441 q 614 437 614 438 l 614 436 q 615 435 615 435 q 614 433 615 434 l 614 431 l 614 429 l 614 428 l 613 427 l 614 426 q 620 426 616 422 q 622 428 621 427 q 624 431 623 430 q 627 435 625 433 l 627 437 q 628 437 627 437 l 629 437 l 629 437 l 629 437 l 629 437 l 629 436 q 618 405 623 418 q 626 415 620 407 q 635 428 631 424 l 636 430 q 642 441 638 436 q 650 445 646 446 q 652 435 655 443 q 644 421 649 422 q 641 422 642 421 l 641 424 l 642 424 q 643 422 642 422 q 648 429 647 422 l 648 430 q 650 442 653 441 q 643 437 647 443 q 638 423 640 431 q 639 410 637 415 q 648 412 642 406 q 657 424 652 416 q 659 426 658 425 q 659 427 659 427 l 659 428 l 660 429 q 666 440 662 435 q 675 445 669 446 q 680 442 678 445 q 680 437 681 439 q 675 434 678 434 q 671 436 672 433 q 673 438 671 438 q 675 437 674 438 q 679 438 677 435 q 679 441 679 439 q 675 444 678 445 q 661 422 667 441 q 662 414 658 415 q 676 424 667 412 q 690 448 686 436 l 684 448 q 684 448 684 448 l 684 449 l 690 450 q 698 469 695 463 q 701 469 699 471 q 702 467 702 468 q 694 450 694 453 q 715 451 705 452 q 732 453 726 450 q 739 463 739 455 l 741 464 q 740 452 748 456 q 720 449 739 448 q 693 449 701 450 q 687 429 689 441 q 686 427 686 429 q 686 425 686 425 q 685 420 685 423 l 683 411 q 682 400 680 401 q 687 403 684 399 q 692 409 690 407 l 693 412 q 695 416 694 413 q 698 420 697 418 q 701 425 699 422 q 703 429 702 427 q 702 432 702 431 q 705 440 700 438 q 707 440 706 441 q 705 429 709 437 l 708 426 q 741 425 719 418 q 787 425 760 431 q 819 420 816 420 q 826 422 824 421 q 827 425 827 422 q 825 426 827 426 q 824 426 825 427 q 823 425 823 426 q 824 424 823 425 q 825 424 825 425 q 825 422 826 423 l 825 422 l 823 422 q 822 425 822 422 q 826 427 822 429 m 600 416 q 609 420 602 410 q 612 426 611 423 q 610 427 610 426 q 607 431 607 428 q 608 435 607 433 q 608 436 608 435 q 609 438 608 437 l 608 437 l 606 435 l 606 434 q 601 426 602 429 q 600 418 600 423 q 600 417 600 418 q 600 416 600 416 m 612 427 q 613 433 613 431 q 612 439 613 437 l 612 438 l 611 438 q 610 437 610 438 q 610 436 610 437 q 609 434 609 435 l 609 431 q 612 427 609 428 m 610 389 l 610 390 q 601 374 608 387 q 591 355 592 358 q 590 349 590 349 q 591 346 590 347 q 592 348 591 347 q 597 357 595 352 q 610 389 597 358 m 706 439 q 703 436 704 439 q 704 431 703 433 q 706 439 709 437 m 413 583 l 398 586 l 399 618 l 379 589 l 374 589 l 366 623 l 356 593 l 340 595 l 358 648 l 373 646 l 381 614 l 399 642 l 414 640 l 413 583 m 311 644 l 314 632 l 294 627 l 296 618 l 314 623 l 317 611 l 300 606 l 302 599 l 322 604 l 326 591 l 290 582 l 277 635 l 311 644 m 497 584 q 498 578 497 584 q 491 562 498 572 q 472 550 484 551 q 450 557 460 549 q 437 576 439 565 q 442 598 435 588 q 462 610 451 610 q 484 604 473 612 q 497 584 495 595 m 479 572 q 476 592 488 583 q 465 595 471 596 q 455 589 459 593 q 458 568 446 577 q 479 572 469 559 m 218 605 q 239 610 229 612 q 258 599 252 608 q 262 578 264 589 q 250 559 260 567 l 232 547 l 200 592 l 218 605 m 245 590 q 236 596 241 595 q 226 593 231 597 l 220 589 l 236 567 l 241 571 q 245 590 253 579 m 472 297 q 491 286 483 296 q 497 263 498 275 q 484 243 495 252 q 461 237 473 235 q 442 248 450 238 q 436 270 435 258 q 449 290 438 282 q 472 297 459 298 m 455 258 q 476 255 465 245 q 479 275 488 264 q 469 281 475 280 q 458 279 463 283 q 455 258 446 269 m 387 203 l 383 202 l 363 231 l 364 199 l 349 197 l 349 253 l 363 255 l 381 227 l 389 259 l 404 262 l 421 208 l 406 205 l 397 237 l 387 203 m 254 274 q 255 268 254 274 q 248 253 256 262 q 229 242 241 243 q 208 250 218 241 l 191 264 l 226 307 l 243 293 q 254 274 252 285 m 229 286 l 212 265 l 216 261 q 236 263 227 252 q 234 282 245 273 l 229 286 m 317 243 l 298 250 l 296 241 l 313 237 l 309 224 l 292 229 l 290 221 l 310 216 l 307 203 l 271 213 l 287 267 l 321 256 l 317 243 m 471 496 q 465 497 467 493 q 416 542 446 526 q 350 559 385 559 q 284 542 314 559 q 235 496 254 526 q 229 494 233 492 q 227 501 224 497 q 279 550 247 532 q 350 568 312 568 q 420 550 387 568 q 472 502 452 532 q 471 496 475 498 m 471 361 q 478 363 474 366 q 480 356 483 360 q 427 298 462 320 q 350 277 392 277 q 271 300 307 277 q 218 362 235 323 q 220 368 216 366 l 221 368 q 226 366 224 370 q 276 308 242 330 q 350 286 309 286 q 422 307 389 286 q 471 361 454 327 m 144 421 q 198 559 144 500 q 202 561 199 561 q 205 560 204 561 q 205 553 209 556 q 154 421 154 496 q 197 298 154 352 q 197 292 200 294 q 190 292 193 289 q 144 421 144 349 m 503 559 q 507 557 505 559 q 532 522 519 543 q 530 515 534 518 q 524 517 526 513 q 499 551 512 538 q 500 557 497 555 q 503 559 501 559 m 545 382 q 549 386 546 386 q 549 386 549 386 q 550 385 549 385 q 554 380 555 384 q 515 295 545 334 q 509 294 512 291 q 507 300 505 296 q 545 382 535 337 z "},"8":{"ha":872,"x_min":45,"x_max":828,"o":"m 612 302 q 618 280 626 295 q 508 162 580 207 q 349 118 435 118 q 134 207 223 118 q 45 422 45 296 q 134 638 45 549 q 349 727 223 727 q 508 683 435 727 q 618 565 580 638 q 612 543 626 550 q 600 541 605 539 q 589 549 592 544 q 491 655 555 615 q 349 694 427 694 q 157 615 236 694 q 77 422 77 536 q 157 230 77 309 q 349 151 236 151 q 491 190 427 151 q 589 296 555 230 q 600 304 592 301 q 612 302 605 306 m 567 553 q 561 555 564 551 q 471 640 527 608 q 349 672 415 672 q 173 599 246 672 q 100 422 100 526 q 173 246 100 319 q 349 173 246 173 q 471 205 415 173 q 561 290 527 237 q 567 292 564 294 q 569 285 572 289 q 476 196 534 229 q 349 163 418 163 q 166 239 242 163 q 90 422 90 315 q 166 606 90 530 q 349 682 242 682 q 476 649 418 682 q 569 559 534 616 q 567 553 572 555 m 383 465 l 383 410 q 370 401 376 408 l 370 465 q 369 473 370 470 q 366 476 368 475 q 359 477 365 477 l 359 479 l 376 479 l 395 479 l 395 477 q 387 476 389 477 q 384 473 385 475 q 383 465 383 471 m 359 380 l 359 384 q 366 385 365 384 q 369 388 368 385 q 375 398 371 394 q 381 403 378 401 l 383 404 l 383 395 q 384 388 383 389 q 387 385 385 386 q 395 384 389 384 l 395 380 q 387 381 393 380 q 376 381 380 381 q 366 381 372 381 q 359 380 360 380 m 252 444 q 243 434 250 438 q 228 429 237 429 l 229 428 q 239 425 236 427 q 245 419 243 423 q 249 410 248 414 l 252 395 q 254 389 254 390 q 256 385 256 386 q 260 384 258 384 q 263 385 262 384 l 264 386 q 266 388 265 387 q 267 389 267 389 l 269 388 q 262 381 267 384 q 254 379 259 379 q 245 382 248 379 q 239 394 242 384 l 236 408 q 234 414 235 410 q 233 419 233 418 q 229 425 233 422 q 220 428 224 428 l 207 428 l 207 395 q 208 388 207 391 q 211 385 210 385 q 218 384 212 384 l 218 380 q 211 381 217 380 q 201 381 205 381 q 190 381 196 381 q 183 380 184 380 l 183 384 q 190 385 189 384 q 193 388 192 386 q 194 395 194 389 l 194 465 q 193 473 194 471 q 190 476 192 475 q 183 477 189 477 l 183 479 l 200 479 l 212 479 l 221 479 q 239 476 231 479 q 251 468 247 473 q 254 455 254 464 q 252 444 254 448 m 239 441 q 241 454 241 446 q 235 471 241 464 q 218 477 231 477 q 211 476 212 477 q 208 472 210 475 q 207 465 207 469 l 207 431 l 216 431 q 231 433 227 431 q 239 441 237 437 m 331 385 q 334 389 334 386 q 332 395 334 391 l 323 418 l 322 421 l 307 463 l 290 421 l 290 418 l 284 404 q 281 392 281 395 q 284 386 281 388 q 293 384 287 384 l 293 380 q 285 381 290 380 q 277 381 280 381 q 272 381 275 381 q 267 380 268 380 l 267 384 q 277 395 273 386 l 311 480 l 313 480 l 347 393 q 357 384 349 384 l 357 380 q 350 381 355 380 q 342 381 345 381 q 331 381 337 381 q 323 380 325 380 l 323 384 q 331 385 330 384 m 449 427 q 457 418 454 423 q 460 406 460 413 q 456 391 460 397 q 445 382 452 385 q 430 378 437 378 q 419 380 427 378 q 411 384 416 381 q 406 386 408 386 q 404 385 406 386 q 404 380 404 384 l 400 380 q 401 413 401 385 l 404 413 q 411 390 404 399 q 429 382 416 382 q 438 383 435 382 q 445 390 443 385 q 448 400 448 393 q 445 410 448 406 q 437 418 441 416 q 426 426 429 425 q 412 435 414 433 q 404 444 408 439 q 401 457 401 450 q 404 471 401 465 q 414 479 409 476 q 427 481 419 481 q 434 480 430 481 q 437 480 435 480 q 439 479 439 479 q 444 476 444 477 q 449 474 447 474 q 451 475 450 474 q 452 480 452 476 l 455 480 q 454 452 454 475 l 451 452 q 448 465 450 463 q 441 475 447 470 q 429 479 435 479 q 420 477 424 479 q 414 471 416 475 q 411 463 411 465 q 416 450 411 456 q 427 441 418 447 q 435 437 431 439 q 449 427 442 433 m 541 421 q 523 419 534 419 l 519 419 l 514 419 q 505 422 506 420 q 507 425 505 424 q 511 426 508 426 q 543 429 532 426 q 561 440 555 433 q 566 461 566 448 l 566 462 l 566 462 l 566 462 l 566 462 l 566 462 l 566 462 l 566 462 l 568 462 l 568 462 l 568 462 l 568 462 l 568 462 l 568 462 l 568 462 l 568 461 q 562 439 568 448 q 543 428 557 432 q 511 425 532 425 l 508 425 q 511 421 505 422 q 515 420 513 420 q 519 420 517 420 q 523 420 522 420 q 541 422 532 420 q 557 430 551 426 q 570 441 566 435 q 576 458 576 449 q 572 469 576 464 q 566 478 568 476 q 556 484 561 481 q 547 487 548 487 q 531 488 542 488 q 518 488 522 488 q 506 485 510 486 q 500 483 504 484 q 494 481 496 482 q 489 479 492 481 q 484 477 485 477 l 481 475 q 477 473 478 474 l 475 471 q 467 463 469 465 q 464 452 464 459 l 464 451 q 472 437 465 441 q 495 437 482 431 l 495 437 l 496 437 l 496 437 l 496 437 l 496 437 l 496 437 l 496 437 l 496 437 l 496 436 l 496 436 l 496 436 l 496 436 l 496 436 q 471 435 481 428 q 463 450 464 440 l 463 450 l 463 451 l 462 451 l 462 452 l 462 454 q 463 460 462 456 q 465 465 464 463 q 468 469 466 467 l 470 471 l 473 473 l 476 475 q 490 484 486 482 q 504 488 494 486 q 519 491 508 490 q 533 492 524 492 q 543 491 540 492 q 553 488 550 490 q 562 484 559 486 q 570 477 568 479 q 576 467 573 474 q 577 458 577 464 q 575 447 577 452 q 573 444 574 446 q 571 441 572 443 q 569 439 570 439 q 563 433 566 435 q 557 429 559 430 q 541 421 549 424 m 491 398 l 513 471 q 514 471 513 471 q 515 471 515 471 q 516 470 516 471 l 516 469 l 492 398 q 492 397 492 397 q 491 398 491 397 m 635 454 l 633 454 l 633 455 l 633 456 l 634 458 q 635 460 634 460 l 637 459 l 637 458 l 635 454 q 635 454 635 454 m 826 427 q 828 425 828 426 q 827 420 828 422 q 819 418 826 420 q 787 424 816 418 q 741 424 760 430 q 707 425 719 417 l 704 428 l 699 419 q 697 417 699 418 q 696 415 696 416 l 694 411 l 692 407 q 688 402 689 403 q 682 399 684 398 q 682 413 680 399 q 682 417 682 414 q 683 422 682 420 q 685 427 684 424 q 686 431 686 429 q 687 435 686 432 q 688 439 688 438 q 682 430 684 433 q 676 422 680 427 q 669 414 672 416 q 662 412 665 412 q 659 414 661 412 q 659 423 657 417 q 656 420 658 422 q 654 416 654 418 q 644 407 648 409 q 635 410 637 404 q 635 425 633 416 q 626 413 633 422 q 616 398 619 404 q 614 393 614 396 q 612 388 614 390 q 606 373 611 385 q 600 356 602 361 q 594 347 597 351 q 592 344 593 345 l 591 344 q 589 345 589 344 q 588 349 588 347 q 589 355 588 350 q 599 374 591 360 q 614 399 606 388 q 625 429 622 422 q 622 426 624 428 q 619 424 621 425 q 613 425 616 421 l 612 423 q 611 421 612 422 q 610 420 610 420 q 608 416 609 417 l 606 414 q 599 416 601 411 q 599 426 597 420 q 598 425 598 426 l 597 425 q 594 424 596 424 q 593 425 593 424 q 594 435 591 426 q 583 424 588 430 q 574 410 579 420 l 573 410 l 572 410 l 572 411 q 576 427 573 416 q 578 434 576 429 q 581 441 580 439 q 520 409 562 410 l 519 409 l 519 409 l 519 409 l 519 410 l 519 410 l 519 410 l 519 410 l 519 410 l 519 411 l 520 411 q 584 452 565 411 q 585 452 584 452 l 586 452 l 587 451 l 587 451 l 585 446 l 579 431 l 577 423 q 575 419 576 422 q 574 416 574 416 q 581 426 578 422 q 589 435 584 429 l 595 440 l 596 441 l 597 441 l 597 442 l 599 441 l 599 440 q 598 438 599 439 q 597 436 597 437 q 594 425 592 426 q 600 429 597 425 q 611 441 604 440 q 613 439 613 441 q 614 437 614 438 l 614 436 q 615 435 615 435 q 614 433 615 434 l 614 431 l 614 429 l 614 428 l 613 427 l 614 426 q 620 426 616 422 q 622 428 621 427 q 624 431 623 430 q 627 435 625 433 l 627 437 q 628 437 627 437 l 629 437 l 629 437 l 629 437 l 629 437 l 629 436 q 618 405 623 418 q 626 415 620 407 q 635 428 631 424 l 636 430 q 642 441 638 436 q 650 445 646 446 q 652 435 655 443 q 644 421 649 422 q 641 422 642 421 l 641 424 l 642 424 q 643 422 642 422 q 648 429 647 422 l 648 430 q 650 442 653 441 q 643 437 647 443 q 638 423 640 431 q 639 410 637 415 q 648 412 642 406 q 657 424 652 416 q 659 426 658 425 q 659 427 659 427 l 659 428 l 660 429 q 666 440 662 435 q 675 445 669 446 q 680 442 678 445 q 680 437 681 439 q 675 434 678 434 q 671 436 672 433 q 673 438 671 438 q 675 437 674 438 q 679 438 677 435 q 679 441 679 439 q 675 444 678 445 q 661 422 667 441 q 662 414 658 415 q 676 424 667 412 q 690 448 686 436 l 684 448 q 684 448 684 448 l 684 449 l 690 450 q 698 469 695 463 q 701 469 699 471 q 702 467 702 468 q 694 450 694 453 q 715 451 705 452 q 732 453 726 450 q 739 463 739 455 l 741 464 q 740 452 748 456 q 720 449 739 448 q 693 449 701 450 q 687 429 689 441 q 686 427 686 429 q 686 425 686 425 q 685 420 685 423 l 683 411 q 682 400 680 401 q 687 403 684 399 q 692 409 690 407 l 693 412 q 695 416 694 413 q 698 420 697 418 q 701 425 699 422 q 703 429 702 427 q 702 432 702 431 q 705 440 700 438 q 707 440 706 441 q 705 429 709 437 l 708 426 q 741 425 719 418 q 787 425 760 431 q 819 420 816 420 q 826 422 824 421 q 827 425 827 422 q 825 426 827 426 q 824 426 825 427 q 823 425 823 426 q 824 424 823 425 q 825 424 825 425 q 825 422 826 423 l 825 422 l 823 422 q 822 425 822 422 q 826 427 822 429 m 600 416 q 609 420 602 410 q 612 426 611 423 q 610 427 610 426 q 607 431 607 428 q 608 435 607 433 q 608 436 608 435 q 609 438 608 437 l 608 437 l 606 435 l 606 434 q 602 426 602 430 q 600 418 600 422 q 600 417 600 418 q 600 416 600 416 m 612 427 q 613 433 613 431 q 612 439 613 437 l 612 438 l 611 438 q 610 437 610 438 q 610 436 610 437 q 609 434 609 435 l 609 431 q 612 427 609 428 m 610 389 l 610 390 q 601 374 608 387 q 591 355 592 358 q 590 349 590 349 q 591 346 590 347 q 592 348 591 347 q 597 357 595 352 q 610 389 597 358 m 706 439 q 703 436 704 439 q 704 431 703 433 q 706 439 709 437 m 311 644 l 314 632 l 294 627 l 296 618 l 314 623 l 317 611 l 300 606 l 302 599 l 322 604 l 326 591 l 290 582 l 277 635 l 311 644 m 497 584 q 498 578 497 584 q 491 562 498 572 q 472 550 484 551 q 450 557 460 549 q 437 576 439 565 q 442 598 435 588 q 462 610 451 610 q 484 604 473 612 q 497 584 495 595 m 479 572 q 476 592 488 583 q 465 595 471 596 q 455 589 459 593 q 458 568 446 577 q 479 572 469 559 m 218 605 q 239 610 229 612 q 258 599 252 608 q 262 578 264 589 q 250 559 260 567 l 232 547 l 200 592 l 218 605 m 245 590 q 236 596 241 595 q 226 593 231 597 l 220 589 l 236 567 l 241 571 q 245 590 253 579 m 413 583 l 398 586 l 399 618 l 379 589 l 374 589 l 366 623 l 356 593 l 340 595 l 358 648 l 373 646 l 381 614 l 399 642 l 414 640 l 413 583 m 387 203 l 383 202 l 363 231 l 364 199 l 349 197 l 349 253 l 363 255 l 381 227 l 389 259 l 404 262 l 421 208 l 406 205 l 397 237 l 387 203 m 472 297 q 491 286 483 296 q 497 263 498 275 q 484 243 495 252 q 461 237 473 235 q 442 248 450 238 q 436 270 435 258 q 449 290 438 282 q 472 297 459 298 m 455 258 q 476 255 465 245 q 479 275 488 264 q 469 281 475 280 q 458 279 463 283 q 455 258 446 269 m 254 274 q 255 268 254 274 q 248 253 256 262 q 229 242 241 243 q 208 250 218 241 l 191 264 l 226 307 l 243 293 q 254 274 252 285 m 229 286 l 212 265 l 216 261 q 236 263 227 252 q 234 282 245 273 l 229 286 m 317 243 l 298 250 l 296 241 l 313 237 l 309 224 l 292 229 l 290 221 l 310 216 l 307 203 l 271 213 l 287 267 l 321 256 l 317 243 m 471 496 q 465 497 467 493 q 416 542 446 526 q 350 559 385 559 q 284 542 314 559 q 235 496 254 526 q 229 494 233 492 q 227 501 224 497 q 279 550 247 532 q 350 568 312 568 q 420 550 387 568 q 472 502 452 532 q 471 496 475 498 m 471 361 q 478 363 474 366 q 480 356 483 360 q 427 298 462 320 q 350 277 392 277 q 271 300 307 277 q 218 362 235 323 q 220 368 216 366 l 221 368 q 226 366 224 370 q 276 308 242 330 q 350 286 309 286 q 422 307 389 286 q 471 361 454 327 m 503 559 q 507 557 505 559 q 532 522 519 543 q 530 515 534 518 q 524 517 526 513 q 499 551 512 538 q 500 557 497 555 q 503 559 501 559 m 144 421 q 198 559 144 500 q 202 561 199 561 q 205 560 204 561 q 205 553 209 556 q 154 421 154 496 q 197 298 154 352 q 197 292 200 294 q 190 292 193 289 q 144 421 144 349 m 545 382 q 549 386 546 386 q 549 386 549 386 q 550 385 549 385 q 554 380 555 384 q 515 295 545 334 q 509 294 512 291 q 507 300 505 296 q 545 382 535 337 z "},"9":{"ha":872,"x_min":45,"x_max":828,"o":"m 612 302 q 618 280 626 295 q 508 162 580 207 q 349 118 435 118 q 134 207 223 118 q 45 422 45 296 q 134 638 45 549 q 349 727 223 727 q 508 683 435 727 q 618 565 580 638 q 612 543 626 550 q 600 541 605 539 q 589 549 592 544 q 491 655 555 615 q 349 694 427 694 q 157 615 236 694 q 77 422 77 536 q 157 230 77 309 q 349 151 236 151 q 491 190 427 151 q 589 296 555 230 q 600 304 592 301 q 612 302 605 306 m 567 553 q 561 555 564 551 q 471 640 527 608 q 349 672 415 672 q 173 599 246 672 q 100 422 100 526 q 173 246 100 319 q 349 173 246 173 q 471 205 415 173 q 561 290 527 237 q 567 292 564 294 q 569 285 572 289 q 476 196 534 229 q 349 163 418 163 q 166 239 242 163 q 90 422 90 315 q 166 606 90 530 q 349 682 242 682 q 476 649 418 682 q 569 559 534 616 q 567 553 572 555 m 383 465 l 383 410 q 370 401 376 408 l 370 465 q 369 473 370 470 q 366 476 368 475 q 359 477 365 477 l 359 479 l 376 479 l 395 479 l 395 477 q 387 476 389 477 q 384 473 385 475 q 383 465 383 471 m 359 380 l 359 384 q 366 385 365 384 q 369 388 368 385 q 375 398 371 394 q 381 403 378 401 l 383 404 l 383 395 q 384 388 383 389 q 387 385 385 386 q 395 384 389 384 l 395 380 q 387 381 393 380 q 376 381 380 381 q 366 381 372 381 q 359 380 360 380 m 252 444 q 243 434 250 438 q 228 429 237 429 l 229 428 q 239 425 236 427 q 245 419 243 423 q 249 410 248 414 l 252 395 q 254 389 254 390 q 256 385 256 386 q 260 384 258 384 q 263 385 262 384 l 264 386 q 266 388 265 387 q 267 389 267 389 l 269 388 q 262 381 267 384 q 254 379 259 379 q 245 382 248 379 q 239 394 242 384 l 236 408 q 234 414 235 410 q 233 419 233 418 q 229 425 233 422 q 220 428 224 428 l 207 428 l 207 395 q 208 388 207 391 q 211 385 210 385 q 218 384 212 384 l 218 380 q 211 381 217 380 q 201 381 205 381 q 190 381 196 381 q 183 380 184 380 l 183 384 q 190 385 189 384 q 193 388 192 386 q 194 395 194 389 l 194 465 q 193 473 194 471 q 190 476 192 475 q 183 477 189 477 l 183 479 l 200 479 l 212 479 l 221 479 q 239 476 231 479 q 251 468 247 473 q 254 455 254 464 q 252 444 254 448 m 239 441 q 241 454 241 446 q 235 471 241 464 q 218 477 231 477 q 211 476 212 477 q 208 472 210 475 q 207 465 207 469 l 207 431 l 216 431 q 231 433 227 431 q 239 441 237 437 m 331 385 q 334 389 334 386 q 332 395 334 391 l 323 418 l 322 421 l 307 463 l 290 421 l 290 418 l 284 404 q 281 392 281 395 q 284 386 281 388 q 293 384 287 384 l 293 380 q 285 381 290 380 q 277 381 280 381 q 272 381 275 381 q 267 380 268 380 l 267 384 q 277 395 273 386 l 311 480 l 313 480 l 347 393 q 357 384 349 384 l 357 380 q 350 381 355 380 q 342 381 345 381 q 331 381 337 381 q 323 380 325 380 l 323 384 q 331 385 330 384 m 449 427 q 457 418 454 423 q 460 406 460 413 q 456 391 460 397 q 445 382 452 385 q 430 378 437 378 q 419 380 427 378 q 411 384 416 381 q 406 386 408 386 q 404 385 406 386 q 404 380 404 384 l 400 380 q 401 413 401 385 l 404 413 q 411 390 404 399 q 429 382 416 382 q 438 383 435 382 q 445 390 443 385 q 448 400 448 393 q 445 410 448 406 q 437 418 441 416 q 426 426 429 425 q 412 435 414 433 q 404 444 408 439 q 401 457 401 450 q 404 471 401 465 q 414 479 409 476 q 427 481 419 481 q 434 480 430 481 q 437 480 435 480 q 439 479 439 479 q 444 476 444 477 q 449 474 447 474 q 451 475 450 474 q 452 480 452 476 l 455 480 q 454 452 454 475 l 451 452 q 448 465 450 463 q 441 475 447 470 q 429 479 435 479 q 420 477 424 479 q 414 471 416 475 q 411 463 411 465 q 416 450 411 456 q 427 441 418 447 q 435 437 431 439 q 449 427 442 433 m 491 398 l 513 471 q 514 471 513 471 q 515 471 515 471 q 516 470 516 471 l 516 469 l 492 398 q 492 397 492 397 q 491 398 491 397 m 541 421 q 523 419 534 419 l 519 419 l 514 419 q 505 422 506 420 q 507 425 505 424 q 511 426 508 426 q 543 429 532 426 q 561 440 555 433 q 566 461 566 448 l 566 462 l 566 462 l 566 462 l 566 462 l 566 462 l 566 462 l 566 462 l 568 462 l 568 462 l 568 462 l 568 462 l 568 462 l 568 462 l 568 462 l 568 461 q 562 439 568 448 q 543 428 557 432 q 511 425 532 425 l 508 425 q 511 421 505 422 q 515 420 513 420 q 519 420 517 420 q 523 420 522 420 q 541 422 532 420 q 557 430 551 426 q 570 441 566 435 q 576 458 576 449 q 572 469 576 464 q 566 478 568 476 q 556 484 561 481 q 547 487 548 487 q 531 488 542 488 q 518 488 522 488 q 506 485 510 486 q 500 483 504 484 q 494 481 496 482 q 489 479 492 481 q 484 477 485 477 l 481 475 q 477 473 478 474 l 475 471 q 467 463 469 465 q 464 452 464 459 l 464 451 q 472 437 465 441 q 495 437 482 431 l 495 437 l 496 437 l 496 437 l 496 437 l 496 437 l 496 437 l 496 437 l 496 437 l 496 436 l 496 436 l 496 436 l 496 436 l 496 436 q 471 435 481 428 q 463 450 464 440 l 463 450 l 463 451 l 462 451 l 462 452 l 462 454 q 463 460 462 456 q 465 465 464 463 q 468 469 466 467 l 470 471 l 473 473 l 476 475 q 490 484 486 482 q 504 488 494 486 q 519 491 508 490 q 533 492 524 492 q 543 491 540 492 q 553 488 550 490 q 562 484 559 486 q 570 477 568 479 q 576 467 573 474 q 577 458 577 464 q 575 447 577 452 q 573 444 574 446 q 571 441 572 443 q 569 439 570 439 q 563 433 566 435 q 557 429 559 430 q 541 421 549 424 m 635 454 l 633 454 l 633 455 l 633 456 l 634 458 q 635 460 634 460 l 637 459 l 637 458 l 635 454 q 635 454 635 454 m 826 427 q 828 425 828 426 q 827 420 828 422 q 819 418 826 420 q 787 424 816 418 q 741 424 760 430 q 707 425 719 417 l 704 428 l 699 419 q 697 417 699 418 q 696 415 696 416 l 694 411 l 692 407 q 688 402 689 403 q 682 399 684 398 q 682 413 680 399 q 682 417 682 414 q 683 422 682 420 q 685 427 684 424 q 686 431 686 429 q 687 435 686 432 q 688 439 688 438 q 682 430 684 433 q 676 422 680 427 q 669 414 672 416 q 662 412 665 412 q 659 414 661 412 q 659 423 657 417 q 656 420 658 422 q 654 416 654 418 q 644 407 648 409 q 635 410 637 404 q 635 425 633 416 q 626 413 633 422 q 616 398 619 404 q 614 393 614 396 q 612 388 614 390 q 606 373 611 385 q 600 356 602 361 q 594 347 597 351 q 592 344 593 345 l 591 344 q 589 345 589 344 q 588 349 588 347 q 589 355 588 350 q 599 374 591 360 q 614 399 606 388 q 625 429 622 422 q 622 426 624 428 q 619 424 621 425 q 613 425 616 421 l 612 423 q 611 421 612 422 q 610 420 610 420 q 608 416 610 418 q 606 414 607 416 q 599 416 601 411 q 599 426 597 420 q 598 425 598 426 l 597 425 q 594 424 596 424 q 593 425 593 424 q 594 435 591 426 q 583 424 588 430 q 574 410 579 420 l 573 410 l 572 410 l 572 411 q 576 427 573 416 q 578 434 576 429 q 581 441 580 439 q 520 409 562 410 l 519 409 l 519 409 l 519 409 l 519 410 l 519 410 l 519 410 l 519 410 l 519 410 l 519 410 l 519 410 l 519 411 l 520 411 q 584 452 565 411 q 585 452 584 452 l 586 452 l 587 451 l 587 451 l 585 446 l 579 431 l 577 423 q 575 419 576 422 q 574 416 574 416 q 581 426 578 422 q 589 435 584 429 l 595 440 l 596 441 l 597 441 l 597 442 l 599 441 l 599 440 q 598 438 599 439 q 597 436 597 437 q 594 425 592 426 q 600 429 597 425 q 611 441 604 440 q 613 439 613 441 q 614 437 614 438 l 614 436 q 615 435 615 435 q 614 433 615 434 l 614 431 l 614 429 l 614 428 l 613 427 l 614 426 q 620 426 616 422 q 622 428 621 427 q 624 431 623 430 q 627 435 625 433 l 627 437 q 628 437 627 437 l 629 437 l 629 437 l 629 437 l 629 437 l 629 436 q 618 405 623 418 q 626 415 620 407 q 635 428 631 424 l 636 430 q 642 441 638 436 q 650 445 646 446 q 652 435 655 443 q 644 421 649 422 q 641 422 642 421 l 641 424 l 642 424 q 643 422 642 422 q 648 429 647 422 l 648 430 q 650 442 653 441 q 643 437 647 443 q 638 423 640 431 q 639 410 637 415 q 648 412 642 406 q 657 424 652 416 q 659 426 658 425 q 659 427 659 427 l 659 428 l 660 429 q 666 440 662 435 q 675 445 669 446 q 680 442 678 445 q 680 437 681 439 q 675 434 678 434 q 671 436 672 433 q 673 438 671 438 q 675 437 674 438 q 679 438 677 435 q 679 441 679 439 q 675 444 678 445 q 661 422 667 441 q 662 414 658 415 q 676 424 667 412 q 690 448 686 436 l 684 448 q 684 448 684 448 l 684 449 l 690 450 q 698 469 695 463 q 701 469 699 471 q 702 467 702 468 q 694 450 694 453 q 715 451 705 452 q 732 453 726 450 q 739 463 739 455 l 741 464 q 740 452 748 456 q 720 449 739 448 q 693 449 701 450 q 687 429 689 441 q 686 427 686 429 q 686 425 686 425 q 685 420 685 423 l 683 411 q 682 400 680 401 q 687 403 684 399 q 692 409 690 407 l 693 412 q 695 416 694 413 q 698 420 697 418 q 701 425 699 422 q 703 429 702 427 q 702 432 702 431 q 705 440 700 438 q 707 440 706 441 q 705 429 709 437 l 708 426 q 741 425 719 418 q 787 425 760 431 q 819 420 816 420 q 826 422 824 421 q 827 425 827 422 q 825 426 827 426 q 824 426 825 427 q 823 425 823 426 q 824 424 823 425 q 825 424 825 425 q 825 422 826 423 l 825 422 l 823 422 q 822 425 822 422 q 826 427 822 429 m 600 416 q 609 420 602 410 q 612 426 611 423 q 610 427 610 426 q 607 431 607 428 q 608 435 607 433 q 608 436 608 435 q 609 438 608 437 l 608 437 l 606 435 l 606 434 q 601 426 602 429 q 600 418 600 423 q 600 417 600 418 q 600 416 600 416 m 612 427 q 613 433 613 431 q 612 439 613 437 l 612 438 l 611 438 q 610 437 610 438 q 610 436 610 437 q 609 434 609 435 l 609 431 q 612 427 609 428 m 610 389 l 610 390 q 601 374 608 387 q 591 355 592 358 q 590 349 590 349 q 591 346 590 347 q 592 348 591 347 q 597 357 595 352 q 610 389 597 358 m 706 439 q 703 436 704 439 q 704 431 703 433 q 706 439 709 437 m 497 584 q 498 578 497 584 q 491 562 498 572 q 472 550 484 551 q 450 557 460 549 q 437 576 439 565 q 442 598 435 588 q 462 610 451 610 q 484 604 473 612 q 497 584 495 595 m 479 572 q 476 592 488 583 q 465 595 471 596 q 455 589 459 593 q 458 568 446 577 q 479 572 469 559 m 218 605 q 239 610 229 612 q 258 599 252 608 q 262 578 264 589 q 250 559 260 567 l 232 547 l 200 592 l 218 605 m 245 590 q 236 596 241 595 q 226 593 231 597 l 220 589 l 236 567 l 241 571 q 245 590 253 579 m 413 583 l 398 586 l 399 618 l 379 589 l 374 589 l 366 623 l 356 593 l 340 595 l 358 648 l 373 646 l 381 614 l 399 642 l 414 640 l 413 583 m 311 644 l 314 632 l 294 627 l 296 618 l 314 623 l 317 611 l 300 606 l 302 599 l 322 604 l 326 591 l 290 582 l 277 635 l 311 644 m 254 274 q 255 268 254 274 q 248 253 256 262 q 229 242 241 243 q 208 250 218 241 l 191 264 l 226 307 l 243 293 q 254 274 252 285 m 229 286 l 212 265 l 216 261 q 236 263 227 252 q 234 282 245 273 l 229 286 m 387 203 l 383 202 l 363 231 l 364 199 l 349 197 l 349 253 l 363 255 l 381 227 l 389 259 l 404 262 l 421 208 l 406 205 l 397 237 l 387 203 m 317 243 l 298 250 l 296 241 l 313 237 l 309 224 l 292 229 l 290 221 l 310 216 l 307 203 l 271 213 l 287 267 l 321 256 l 317 243 m 472 297 q 491 286 483 296 q 497 263 498 275 q 484 243 495 252 q 461 237 473 235 q 442 248 450 238 q 436 270 435 258 q 449 290 438 282 q 472 297 459 298 m 455 258 q 476 255 465 245 q 479 275 488 264 q 469 281 475 280 q 458 279 463 283 q 455 258 446 269 m 471 496 q 465 497 467 493 q 416 542 446 526 q 350 559 385 559 q 284 542 314 559 q 235 496 254 526 q 229 494 233 492 q 227 501 224 497 q 279 550 247 532 q 350 568 312 568 q 420 550 387 568 q 472 502 452 532 q 471 496 475 498 m 471 361 q 478 363 474 366 q 480 356 483 360 q 427 298 462 320 q 350 277 392 277 q 271 300 307 277 q 218 362 235 323 q 220 368 216 366 l 221 368 q 226 366 224 370 q 276 308 242 330 q 350 286 309 286 q 422 307 389 286 q 471 361 454 327 m 144 421 q 198 559 144 500 q 202 561 199 561 q 205 560 204 561 q 205 553 209 556 q 154 421 154 496 q 197 298 154 352 q 197 292 200 294 q 190 292 193 289 q 144 421 144 349 m 545 382 q 549 386 546 386 q 549 386 549 386 q 550 385 549 385 q 554 380 555 384 q 515 295 545 334 q 509 294 512 291 q 507 300 505 296 q 545 382 535 337 m 503 559 q 507 557 505 559 q 532 522 519 543 q 530 515 534 518 q 524 517 526 513 q 499 551 512 538 q 500 557 497 555 q 503 559 501 559 z "},"\u0000":{"ha":0,"x_min":0,"x_max":0,"o":""},"\n":{"ha":0,"x_min":0,"x_max":0,"o":""},"\r":{"ha":0,"x_min":0,"x_max":0,"o":""}," ":{"ha":497,"x_min":0,"x_max":0,"o":""},"!":{"ha":872,"x_min":45,"x_max":828,"o":"m 612 302 q 618 280 626 295 q 508 162 580 207 q 349 118 435 118 q 134 207 223 118 q 45 422 45 296 q 134 638 45 549 q 349 727 223 727 q 508 683 435 727 q 618 565 580 638 q 612 543 626 550 q 600 541 605 539 q 589 549 592 544 q 491 655 555 615 q 349 694 427 694 q 157 615 236 694 q 77 422 77 536 q 157 230 77 309 q 349 151 236 151 q 491 190 427 151 q 589 296 555 230 q 600 304 592 301 q 612 302 605 306 m 567 553 q 561 555 564 551 q 471 640 527 608 q 349 672 415 672 q 173 599 246 672 q 100 422 100 526 q 173 246 100 319 q 349 173 246 173 q 471 205 415 173 q 561 290 527 237 q 567 292 564 294 q 569 285 572 289 q 476 196 534 229 q 349 163 418 163 q 166 239 242 163 q 90 422 90 315 q 166 606 90 530 q 349 682 242 682 q 476 649 418 682 q 569 559 534 616 q 567 553 572 555 m 383 465 l 383 410 q 370 401 376 408 l 370 465 q 369 473 370 470 q 366 476 368 475 q 359 477 365 477 l 359 479 l 376 479 l 395 479 l 395 477 q 387 476 389 477 q 384 473 385 475 q 383 465 383 471 m 359 380 l 359 384 q 366 385 365 384 q 369 388 368 385 q 375 398 371 394 q 381 403 378 401 l 383 404 l 383 395 q 384 388 383 389 q 387 385 385 386 q 395 384 389 384 l 395 380 q 387 381 393 380 q 376 381 380 381 q 366 381 372 381 q 359 380 360 380 m 252 444 q 243 434 250 438 q 228 429 237 429 l 229 428 q 239 425 236 427 q 245 419 243 423 q 249 410 248 414 l 252 395 q 254 389 254 390 q 256 385 256 386 q 260 384 258 384 q 263 385 262 384 l 264 386 q 266 388 265 387 q 267 389 267 389 l 269 388 q 262 381 267 384 q 254 379 259 379 q 245 382 248 379 q 239 394 242 384 l 236 408 q 234 414 235 410 q 233 419 233 418 q 229 425 233 422 q 220 428 224 428 l 207 428 l 207 395 q 208 388 207 391 q 211 385 210 385 q 218 384 212 384 l 218 380 q 211 381 217 380 q 201 381 205 381 q 190 381 196 381 q 183 380 184 380 l 183 384 q 190 385 189 384 q 193 388 192 386 q 194 395 194 389 l 194 465 q 193 473 194 471 q 190 476 192 475 q 183 477 189 477 l 183 479 l 200 479 l 212 479 l 221 479 q 239 476 231 479 q 251 468 247 473 q 254 455 254 464 q 252 444 254 448 m 239 441 q 241 454 241 446 q 235 471 241 464 q 218 477 231 477 q 211 476 212 477 q 208 472 210 475 q 207 465 207 469 l 207 431 l 216 431 q 231 433 227 431 q 239 441 237 437 m 331 385 q 334 389 334 386 q 332 395 334 391 l 323 418 l 322 421 l 307 463 l 290 421 l 290 418 l 284 404 q 281 392 281 395 q 284 386 281 388 q 293 384 287 384 l 293 380 q 285 381 290 380 q 277 381 280 381 q 272 381 275 381 q 267 380 268 380 l 267 384 q 277 395 273 386 l 311 480 l 313 480 l 347 393 q 357 384 349 384 l 357 380 q 350 381 355 380 q 342 381 345 381 q 331 381 337 381 q 323 380 325 380 l 323 384 q 331 385 330 384 m 449 427 q 457 418 454 423 q 460 406 460 413 q 456 391 460 397 q 445 382 452 385 q 430 378 437 378 q 419 380 427 378 q 411 384 416 381 q 406 386 408 386 q 404 385 406 386 q 404 380 404 384 l 400 380 q 401 413 401 385 l 404 413 q 411 390 404 399 q 429 382 416 382 q 438 383 435 382 q 445 390 443 385 q 448 400 448 393 q 445 410 448 406 q 437 418 441 416 q 426 426 429 425 q 412 435 414 433 q 404 444 408 439 q 401 457 401 450 q 404 471 401 465 q 414 479 409 476 q 427 481 419 481 q 434 480 430 481 q 437 480 435 480 q 439 479 439 479 q 444 476 444 477 q 449 474 447 474 q 451 475 450 474 q 452 480 452 476 l 455 480 q 454 452 454 475 l 451 452 q 448 465 450 463 q 441 475 447 470 q 429 479 435 479 q 420 477 424 479 q 414 471 416 475 q 411 463 411 465 q 416 450 411 456 q 427 441 418 447 q 435 437 431 439 q 449 427 442 433 m 491 398 l 513 471 q 514 471 513 471 q 515 471 515 471 q 516 470 516 471 l 516 469 l 492 398 q 492 397 492 397 q 491 398 491 397 m 541 421 q 523 419 534 419 l 519 419 l 514 419 q 505 422 506 420 q 507 425 505 424 q 511 426 508 426 q 543 429 532 426 q 561 440 555 433 q 566 461 566 448 l 566 462 l 566 462 l 566 462 l 566 462 l 566 462 l 566 462 l 566 462 l 568 462 l 568 462 l 568 462 l 568 462 l 568 462 l 568 462 l 568 462 l 568 461 q 562 439 568 448 q 543 428 557 432 q 511 425 532 425 l 508 425 q 511 421 505 422 q 515 420 513 420 q 519 420 517 420 q 523 420 522 420 q 541 422 532 420 q 557 430 551 426 q 570 441 566 435 q 576 458 576 449 q 572 469 576 464 q 566 478 568 476 q 556 484 561 481 q 547 487 548 487 q 531 488 542 488 q 518 488 522 488 q 506 485 510 486 q 500 483 504 484 q 494 481 496 482 q 489 479 492 481 q 484 477 485 477 l 481 475 q 477 473 478 474 l 475 471 q 467 463 469 465 q 464 452 464 459 l 464 451 q 472 437 465 441 q 495 437 482 431 l 495 437 l 496 437 l 496 437 l 496 437 l 496 437 l 496 437 l 496 437 l 496 437 l 496 436 l 496 436 l 496 436 l 496 436 l 496 436 q 471 435 481 428 q 463 450 464 440 l 463 450 l 463 451 l 462 451 l 462 452 l 462 454 q 463 460 462 456 q 465 465 464 463 q 468 469 466 467 l 470 471 l 473 473 l 476 475 q 490 484 486 482 q 504 488 494 486 q 519 491 508 490 q 533 492 524 492 q 543 491 540 492 q 553 488 550 490 q 562 484 559 486 q 570 477 568 479 q 576 467 573 474 q 577 458 577 464 q 575 447 577 452 q 573 444 574 446 q 571 441 572 443 q 569 439 570 439 q 563 433 566 435 q 557 429 559 430 q 541 421 549 424 m 635 454 l 633 454 l 633 455 l 633 456 l 634 458 q 635 460 634 460 l 637 459 l 637 458 l 635 454 q 635 454 635 454 m 826 427 q 828 425 828 426 q 827 420 828 422 q 819 418 826 420 q 787 424 816 418 q 741 424 760 430 q 707 425 719 417 l 704 428 l 699 419 q 697 417 699 418 q 696 415 696 416 l 694 411 l 692 407 q 688 402 689 403 q 682 399 684 398 q 682 413 680 399 q 682 417 682 414 q 683 422 682 420 q 685 427 684 424 q 686 431 686 429 q 687 435 686 432 q 688 439 688 438 q 682 430 684 433 q 676 422 680 427 q 669 414 672 416 q 662 412 665 412 q 659 414 661 412 q 659 423 657 417 q 656 420 658 422 q 654 416 654 418 q 644 407 648 409 q 635 410 637 404 q 635 425 633 416 q 626 413 633 422 q 616 398 619 404 q 614 393 614 396 q 612 388 614 390 q 606 373 611 385 q 600 356 602 361 q 594 347 597 351 q 592 344 593 345 l 591 344 q 589 345 589 344 q 588 349 588 347 q 589 355 588 350 q 599 374 591 360 q 614 399 606 388 q 625 429 622 422 q 622 426 624 428 q 619 424 621 425 q 613 425 616 421 l 612 423 q 611 421 612 422 q 610 420 610 420 q 608 416 610 418 q 606 414 607 416 q 599 416 601 411 q 599 426 597 420 q 598 425 598 426 l 597 425 q 594 424 596 424 q 593 425 593 424 q 594 435 591 426 q 583 424 588 430 q 574 410 579 420 l 573 410 l 572 410 l 572 411 q 576 427 573 416 q 578 434 576 429 q 581 441 580 439 q 520 409 562 410 l 519 409 l 519 409 l 519 409 l 519 410 l 519 410 l 519 410 l 519 410 l 519 410 l 519 410 l 519 410 l 519 411 l 520 411 q 584 452 565 411 q 585 452 584 452 l 586 452 l 587 451 l 587 451 l 585 446 l 579 431 l 577 423 q 575 419 576 422 q 574 416 574 416 q 581 426 578 422 q 589 435 584 429 l 595 440 l 596 441 l 597 441 l 597 442 l 599 441 l 599 440 q 598 438 599 439 q 597 436 597 437 q 594 425 592 426 q 600 429 597 425 q 611 441 604 440 q 613 439 613 441 q 614 437 614 438 l 614 436 q 615 435 615 435 q 614 433 615 434 l 614 431 l 614 429 l 614 428 l 613 427 l 614 426 q 620 426 616 422 q 622 428 621 427 q 624 431 623 430 q 627 435 625 433 l 627 437 q 628 437 627 437 l 629 437 l 629 437 l 629 437 l 629 437 l 629 436 q 618 405 623 418 q 626 415 620 407 q 635 428 631 424 l 636 430 q 642 441 638 436 q 650 445 646 446 q 652 435 655 443 q 644 421 649 422 q 641 422 642 421 l 641 424 l 642 424 q 643 422 642 422 q 648 429 647 422 l 648 430 q 650 442 653 441 q 643 437 647 443 q 638 423 640 431 q 639 410 637 415 q 648 412 642 406 q 657 424 652 416 q 659 426 658 425 q 659 427 659 427 l 659 428 l 660 429 q 666 440 662 435 q 675 445 669 446 q 680 442 678 445 q 680 437 681 439 q 675 434 678 434 q 671 436 672 433 q 673 438 671 438 q 675 437 674 438 q 679 438 677 435 q 679 441 679 439 q 675 444 678 445 q 661 422 667 441 q 662 414 658 415 q 676 424 667 412 q 690 448 686 436 l 684 448 q 684 448 684 448 l 684 449 l 690 450 q 698 469 695 463 q 701 469 699 471 q 702 467 702 468 q 694 450 694 453 q 715 451 705 452 q 732 453 726 450 q 739 463 739 455 l 741 464 q 740 452 748 456 q 720 449 739 448 q 693 449 701 450 q 687 429 689 441 q 686 427 686 429 q 686 425 686 425 q 685 420 685 423 l 683 411 q 682 400 680 401 q 687 403 684 399 q 692 409 690 407 l 693 412 q 695 416 694 413 q 698 420 697 418 q 701 425 699 422 q 703 429 702 427 q 702 432 702 431 q 705 440 700 438 q 707 440 706 441 q 705 429 709 437 l 708 426 q 741 425 719 418 q 787 425 760 431 q 819 420 816 420 q 826 422 824 421 q 827 425 827 422 q 825 426 827 426 q 824 426 825 427 q 823 425 823 426 q 824 424 823 425 q 825 424 825 425 q 825 422 826 423 l 825 422 l 823 422 q 822 425 822 422 q 826 427 822 429 m 600 416 q 609 420 602 410 q 612 426 611 423 q 610 427 610 426 q 607 431 607 428 q 608 435 607 433 q 608 436 608 435 q 609 438 608 437 l 608 437 l 606 435 l 606 434 q 601 426 602 429 q 600 418 600 423 q 600 417 600 418 q 600 416 600 416 m 612 427 q 613 433 613 431 q 612 439 613 437 l 612 438 l 611 438 q 610 437 610 438 q 610 436 610 437 q 609 434 609 435 l 609 431 q 612 427 609 428 m 610 389 l 610 390 q 601 374 608 387 q 591 355 592 358 q 590 349 590 349 q 591 346 590 347 q 592 348 591 347 q 597 357 595 352 q 610 389 597 358 m 706 439 q 703 436 704 439 q 704 431 703 433 q 706 439 709 437 m 218 605 q 239 610 229 612 q 258 599 252 608 q 262 578 264 589 q 250 559 260 567 l 232 547 l 200 592 l 218 605 m 245 590 q 236 596 241 595 q 226 593 231 597 l 220 589 l 236 567 l 241 571 q 245 590 253 579 m 311 644 l 314 632 l 294 627 l 296 618 l 314 623 l 317 611 l 300 606 l 302 599 l 322 604 l 326 591 l 290 582 l 277 635 l 311 644 m 497 584 q 498 578 497 584 q 491 562 498 572 q 472 550 484 551 q 450 557 460 549 q 437 576 439 565 q 442 598 435 588 q 462 610 451 610 q 484 604 473 612 q 497 584 495 595 m 479 572 q 476 592 488 583 q 465 595 471 596 q 455 589 459 593 q 458 568 446 577 q 479 572 469 559 m 413 583 l 398 586 l 399 618 l 379 589 l 374 589 l 366 623 l 356 593 l 340 595 l 358 648 l 373 646 l 381 614 l 399 642 l 414 640 l 413 583 m 317 243 l 298 250 l 296 241 l 313 237 l 309 224 l 292 229 l 290 221 l 310 216 l 307 203 l 271 213 l 287 267 l 321 256 l 317 243 m 387 203 l 383 202 l 363 231 l 364 199 l 349 197 l 349 253 l 363 255 l 381 227 l 389 259 l 404 262 l 421 208 l 406 205 l 397 237 l 387 203 m 254 274 q 255 268 254 274 q 248 253 256 262 q 229 242 241 243 q 208 250 218 241 l 191 264 l 226 307 l 243 293 q 254 274 252 285 m 229 286 l 212 265 l 216 261 q 236 263 227 252 q 234 282 245 273 l 229 286 m 472 297 q 491 286 483 296 q 497 263 498 275 q 484 243 495 252 q 461 237 473 235 q 442 248 450 238 q 436 270 435 258 q 449 290 438 282 q 472 297 459 298 m 455 258 q 476 255 465 245 q 479 275 488 264 q 469 281 475 280 q 458 279 463 283 q 455 258 446 269 m 471 496 q 465 497 467 493 q 416 542 446 526 q 350 559 385 559 q 284 542 314 559 q 235 496 254 526 q 229 494 233 492 q 227 501 224 497 q 279 550 247 532 q 350 568 312 568 q 420 550 387 568 q 472 502 452 532 q 471 496 475 498 m 471 361 q 478 363 474 366 q 480 356 483 360 q 427 298 462 320 q 350 277 392 277 q 271 300 307 277 q 218 362 235 323 q 220 368 216 366 l 221 368 q 226 366 224 370 q 276 308 242 330 q 350 286 309 286 q 422 307 389 286 q 471 361 454 327 m 503 559 q 507 557 505 559 q 532 522 519 543 q 530 515 534 518 q 524 517 526 513 q 499 551 512 538 q 500 557 497 555 q 503 559 501 559 m 545 382 q 549 386 546 386 q 549 386 549 386 q 550 385 549 385 q 554 380 555 384 q 515 295 545 334 q 509 294 512 291 q 507 300 505 296 q 545 382 535 337 m 144 421 q 198 559 144 500 q 202 561 199 561 q 205 560 204 561 q 205 553 209 556 q 154 421 154 496 q 197 298 154 352 q 197 292 200 294 q 190 292 193 289 q 144 421 144 349 z "},"\"":{"ha":872,"x_min":45,"x_max":828,"o":"m 612 302 q 618 280 626 295 q 508 162 580 207 q 349 118 435 118 q 134 207 223 118 q 45 422 45 296 q 134 638 45 549 q 349 727 223 727 q 508 683 435 727 q 618 565 580 638 q 612 543 626 550 q 600 541 605 539 q 589 549 592 544 q 491 655 555 615 q 349 694 427 694 q 157 615 236 694 q 77 422 77 536 q 157 230 77 309 q 349 151 236 151 q 491 190 427 151 q 589 296 555 230 q 600 304 592 301 q 612 302 605 306 m 567 553 q 561 555 564 551 q 471 640 527 608 q 349 672 415 672 q 173 599 246 672 q 100 422 100 526 q 173 246 100 319 q 349 173 246 173 q 471 205 415 173 q 561 290 527 237 q 567 292 564 294 q 569 285 572 289 q 476 196 534 229 q 349 163 418 163 q 166 239 242 163 q 90 422 90 315 q 166 606 90 530 q 349 682 242 682 q 476 649 418 682 q 569 559 534 616 q 567 553 572 555 m 383 465 l 383 410 q 370 401 376 408 l 370 465 q 369 473 370 470 q 366 476 368 475 q 359 477 365 477 l 359 479 l 376 479 l 395 479 l 395 477 q 387 476 389 477 q 384 473 385 475 q 383 465 383 471 m 359 380 l 359 384 q 366 385 365 384 q 369 388 368 385 q 375 398 371 394 q 381 403 378 401 l 383 404 l 383 395 q 384 388 383 389 q 387 385 385 386 q 395 384 389 384 l 395 380 q 387 381 393 380 q 376 381 380 381 q 366 381 372 381 q 359 380 360 380 m 252 444 q 243 434 250 438 q 228 429 237 429 l 229 428 q 239 425 236 427 q 245 419 243 423 q 249 410 248 414 l 252 395 q 254 389 254 390 q 256 385 256 386 q 260 384 258 384 q 263 385 262 384 l 264 386 q 266 388 265 387 q 267 389 267 389 l 269 388 q 262 381 267 384 q 254 379 259 379 q 245 382 248 379 q 239 394 242 384 l 236 408 q 234 414 235 410 q 233 419 233 418 q 229 425 233 422 q 220 428 224 428 l 207 428 l 207 395 q 208 388 207 391 q 211 385 210 385 q 218 384 212 384 l 218 380 q 211 381 217 380 q 201 381 205 381 q 190 381 196 381 q 183 380 184 380 l 183 384 q 190 385 189 384 q 193 388 192 386 q 194 395 194 389 l 194 465 q 193 473 194 471 q 190 476 192 475 q 183 477 189 477 l 183 479 l 200 479 l 212 479 l 221 479 q 239 476 231 479 q 251 468 247 473 q 254 455 254 464 q 252 444 254 448 m 239 441 q 241 454 241 446 q 235 471 241 464 q 218 477 231 477 q 211 476 212 477 q 208 472 210 475 q 207 465 207 469 l 207 431 l 216 431 q 231 433 227 431 q 239 441 237 437 m 331 385 q 334 389 334 386 q 332 395 334 391 l 323 418 l 322 421 l 307 463 l 290 421 l 290 418 l 284 404 q 281 392 281 395 q 284 386 281 388 q 293 384 287 384 l 293 380 q 285 381 290 380 q 277 381 280 381 q 272 381 275 381 q 267 380 268 380 l 267 384 q 277 395 273 386 l 311 480 l 313 480 l 347 393 q 357 384 349 384 l 357 380 q 350 381 355 380 q 342 381 345 381 q 331 381 337 381 q 323 380 325 380 l 323 384 q 331 385 330 384 m 449 427 q 457 418 454 423 q 460 406 460 413 q 456 391 460 397 q 445 382 452 385 q 430 378 437 378 q 419 380 427 378 q 411 384 416 381 q 406 386 408 386 q 404 385 406 386 q 404 380 404 384 l 400 380 q 401 413 401 385 l 404 413 q 411 390 404 399 q 429 382 416 382 q 438 383 435 382 q 445 390 443 385 q 448 400 448 393 q 445 410 448 406 q 437 418 441 416 q 426 426 429 425 q 412 435 414 433 q 404 444 408 439 q 401 457 401 450 q 404 471 401 465 q 414 479 409 476 q 427 481 419 481 q 434 480 430 481 q 437 480 435 480 q 439 479 439 479 q 444 476 444 477 q 449 474 447 474 q 451 475 450 474 q 452 480 452 476 l 455 480 q 454 452 454 475 l 451 452 q 448 465 450 463 q 441 475 447 470 q 429 479 435 479 q 420 477 424 479 q 414 471 416 475 q 411 463 411 465 q 416 450 411 456 q 427 441 418 447 q 435 437 431 439 q 449 427 442 433 m 541 421 q 523 419 534 419 l 519 419 l 514 419 q 505 422 506 420 q 507 425 505 424 q 511 426 508 426 q 543 429 532 426 q 561 440 555 433 q 566 461 566 448 l 566 462 l 566 462 l 566 462 l 566 462 l 566 462 l 566 462 l 566 462 l 568 462 l 568 462 l 568 462 l 568 462 l 568 462 l 568 462 l 568 462 l 568 461 q 562 439 568 448 q 543 428 557 432 q 511 425 532 425 l 508 425 q 511 421 505 422 q 515 420 513 420 q 519 420 517 420 q 523 420 522 420 q 541 422 532 420 q 557 430 551 426 q 570 441 566 435 q 576 458 576 449 q 572 469 576 464 q 566 478 568 476 q 556 484 561 481 q 547 487 548 487 q 531 488 542 488 q 518 488 522 488 q 506 485 510 486 q 500 483 504 484 q 494 481 496 482 q 489 479 492 481 q 484 477 485 477 l 481 475 q 477 473 478 474 l 475 471 q 467 463 469 465 q 464 452 464 459 l 464 451 q 472 437 465 441 q 495 437 482 431 l 495 437 l 496 437 l 496 437 l 496 437 l 496 437 l 496 437 l 496 437 l 496 437 l 496 436 l 496 436 l 496 436 l 496 436 l 496 436 q 471 435 481 428 q 463 450 464 440 l 463 450 l 463 451 l 462 451 l 462 452 l 462 454 q 463 460 462 456 q 465 465 464 463 q 468 469 466 467 l 470 471 l 473 473 l 476 475 q 490 484 486 482 q 504 488 494 486 q 519 491 508 490 q 533 492 524 492 q 543 491 540 492 q 553 488 550 490 q 562 484 559 486 q 570 477 568 479 q 576 467 573 474 q 577 458 577 464 q 575 447 577 452 q 573 444 574 446 q 571 441 572 443 q 569 439 570 439 q 563 433 566 435 q 557 429 559 430 q 541 421 549 424 m 491 398 l 513 471 q 514 471 513 471 q 515 471 515 471 q 516 470 516 471 l 516 469 l 492 398 q 492 397 492 397 q 491 398 491 397 m 635 454 l 633 454 l 633 455 l 633 456 l 634 458 q 635 460 634 460 l 637 459 l 637 458 l 635 454 q 635 454 635 454 m 826 427 q 828 425 828 426 q 827 420 828 422 q 819 418 826 420 q 787 424 816 418 q 741 424 760 430 q 707 425 719 417 l 704 428 l 699 419 q 697 417 699 418 q 696 415 696 416 l 694 411 l 692 407 q 688 402 689 403 q 682 399 684 398 q 682 413 680 399 q 682 417 682 414 q 683 422 682 420 q 685 427 684 424 q 686 431 686 429 q 687 435 686 432 q 688 439 688 438 q 682 430 684 433 q 676 422 680 427 q 669 414 672 416 q 662 412 665 412 q 659 414 661 412 q 659 423 657 417 q 656 420 658 422 q 654 416 654 418 q 644 407 648 409 q 635 410 637 404 q 635 425 633 416 q 626 413 633 422 q 616 398 619 404 q 614 393 614 396 q 612 388 614 390 q 606 373 611 385 q 600 356 602 361 q 594 347 597 351 q 592 344 593 345 l 591 344 q 589 345 589 344 q 588 349 588 347 q 589 355 588 350 q 599 374 591 360 q 614 399 606 388 q 625 429 622 422 q 622 426 624 428 q 619 424 621 425 q 613 425 616 421 l 612 423 q 611 421 612 422 q 610 420 610 420 q 608 416 609 417 l 606 414 q 599 416 601 411 q 599 426 597 420 q 598 425 598 426 l 597 425 q 594 424 596 424 q 593 425 593 424 q 594 435 591 426 q 583 424 588 430 q 574 410 579 420 l 573 410 l 572 410 l 572 411 q 576 427 573 416 q 578 434 576 429 q 581 441 580 439 q 520 409 562 410 l 519 409 l 519 409 l 519 409 l 519 410 l 519 410 l 519 410 l 519 410 l 519 410 l 519 411 l 520 411 q 584 452 565 411 q 585 452 584 452 l 586 452 l 587 451 l 587 451 l 585 446 l 579 431 l 577 423 q 575 419 576 422 q 574 416 574 416 q 581 426 578 422 q 589 435 584 429 l 595 440 l 596 441 l 597 441 l 597 442 l 599 441 l 599 440 q 598 438 599 439 q 597 436 597 437 q 594 425 592 426 q 600 429 597 425 q 611 441 604 440 q 613 439 613 441 q 614 437 614 438 l 614 436 q 615 435 615 435 q 614 433 615 434 l 614 431 l 614 429 l 614 428 l 613 427 l 614 426 q 620 426 616 422 q 622 428 621 427 q 624 431 623 430 q 627 435 625 433 l 627 437 q 628 437 627 437 l 629 437 l 629 437 l 629 437 l 629 437 l 629 436 q 618 405 623 418 q 626 415 620 407 q 635 428 631 424 l 636 430 q 642 441 638 436 q 650 445 646 446 q 652 435 655 443 q 644 421 649 422 q 641 422 642 421 l 641 424 l 642 424 q 643 422 642 422 q 648 429 647 422 l 648 430 q 650 442 653 441 q 643 437 647 443 q 638 423 640 431 q 639 410 637 415 q 648 412 642 406 q 657 424 652 416 q 659 426 658 425 q 659 427 659 427 l 659 428 l 660 429 q 666 440 662 435 q 675 445 669 446 q 680 442 678 445 q 680 437 681 439 q 675 434 678 434 q 671 436 672 433 q 673 438 671 438 q 675 437 674 438 q 679 438 677 435 q 679 441 679 439 q 675 444 678 445 q 661 422 667 441 q 662 414 658 415 q 676 424 667 412 q 690 448 686 436 l 684 448 q 684 448 684 448 l 684 449 l 690 450 q 698 469 695 463 q 701 469 699 471 q 702 467 702 468 q 694 450 694 453 q 715 451 705 452 q 732 453 726 450 q 739 463 739 455 l 741 464 q 740 452 748 456 q 720 449 739 448 q 693 449 701 450 q 687 429 689 441 q 686 427 686 429 q 686 425 686 425 q 685 420 685 423 l 683 411 q 682 400 680 401 q 687 403 684 399 q 692 409 690 407 l 693 412 q 695 416 694 413 q 698 420 697 418 q 701 425 699 422 q 703 429 702 427 q 702 432 702 431 q 705 440 700 438 q 707 440 706 441 q 705 429 709 437 l 708 426 q 741 425 719 418 q 787 425 760 431 q 819 420 816 420 q 826 422 824 421 q 827 425 827 422 q 825 426 827 426 q 824 426 825 427 q 823 425 823 426 q 824 424 823 425 q 825 424 825 425 q 825 422 826 423 l 825 422 l 823 422 q 822 425 822 422 q 826 427 822 429 m 600 416 q 609 420 602 410 q 612 426 611 423 q 610 427 610 426 q 607 431 607 428 q 608 435 607 433 q 608 436 608 435 q 609 438 608 437 l 608 437 l 606 435 l 606 434 q 602 426 602 430 q 600 418 600 422 q 600 417 600 418 q 600 416 600 416 m 612 427 q 613 433 613 431 q 612 439 613 437 l 612 438 l 611 438 q 610 437 610 438 q 610 436 610 437 q 609 434 609 435 l 609 431 q 612 427 609 428 m 610 389 l 610 390 q 601 374 608 387 q 591 355 592 358 q 590 349 590 349 q 591 346 590 347 q 592 348 591 347 q 597 357 595 352 q 610 389 597 358 m 706 439 q 703 436 704 439 q 704 431 703 433 q 706 439 709 437 m 497 584 q 498 578 497 584 q 491 562 498 572 q 472 550 484 551 q 450 557 460 549 q 437 576 439 565 q 442 598 435 588 q 462 610 451 610 q 484 604 473 612 q 497 584 495 595 m 479 572 q 476 592 488 583 q 465 595 471 596 q 455 589 459 593 q 458 568 446 577 q 479 572 469 559 m 413 583 l 398 586 l 399 618 l 379 589 l 374 589 l 366 623 l 356 593 l 340 595 l 358 648 l 373 646 l 381 614 l 399 642 l 414 640 l 413 583 m 218 605 q 239 610 229 612 q 258 599 252 608 q 262 578 264 589 q 250 559 260 567 l 232 547 l 200 592 l 218 605 m 245 590 q 236 596 241 595 q 226 593 231 597 l 220 589 l 236 567 l 241 571 q 245 590 253 579 m 311 644 l 314 632 l 294 627 l 296 618 l 314 623 l 317 611 l 300 606 l 302 599 l 322 604 l 326 591 l 290 582 l 277 635 l 311 644 m 472 297 q 491 286 483 296 q 497 263 498 275 q 484 243 495 252 q 461 237 473 235 q 442 248 450 238 q 436 270 435 258 q 449 290 438 282 q 472 297 459 298 m 455 258 q 476 255 465 245 q 479 275 488 264 q 469 281 475 280 q 458 279 463 283 q 455 258 446 269 m 317 243 l 298 250 l 296 241 l 313 237 l 309 224 l 292 229 l 290 221 l 310 216 l 307 203 l 271 213 l 287 267 l 321 256 l 317 243 m 254 274 q 255 268 254 274 q 248 253 256 262 q 229 242 241 243 q 208 250 218 241 l 191 264 l 226 307 l 243 293 q 254 274 252 285 m 229 286 l 212 265 l 216 261 q 236 263 227 252 q 234 282 245 273 l 229 286 m 387 203 l 383 202 l 363 231 l 364 199 l 349 197 l 349 253 l 363 255 l 381 227 l 389 259 l 404 262 l 421 208 l 406 205 l 397 237 l 387 203 m 471 361 q 478 363 474 366 q 480 356 483 360 q 427 298 462 320 q 350 277 392 277 q 271 300 307 277 q 218 362 235 323 q 220 368 216 366 l 221 368 q 226 366 224 370 q 276 308 242 330 q 350 286 309 286 q 422 307 389 286 q 471 361 454 327 m 471 496 q 465 497 467 493 q 416 542 446 526 q 350 559 385 559 q 284 542 314 559 q 235 496 254 526 q 229 494 233 492 q 227 501 224 497 q 279 550 247 532 q 350 568 312 568 q 420 550 387 568 q 472 502 452 532 q 471 496 475 498 m 144 421 q 198 559 144 500 q 202 561 199 561 q 205 560 204 561 q 205 553 209 556 q 154 421 154 496 q 197 298 154 352 q 197 292 200 294 q 190 292 193 289 q 144 421 144 349 m 503 559 q 507 557 505 559 q 532 522 519 543 q 530 515 534 518 q 524 517 526 513 q 499 551 512 538 q 500 557 497 555 q 503 559 501 559 m 545 382 q 549 386 546 386 q 549 386 549 386 q 550 385 549 385 q 554 380 555 384 q 515 295 545 334 q 509 294 512 291 q 507 300 505 296 q 545 382 535 337 z "},"#":{"ha":872,"x_min":45,"x_max":828,"o":"m 612 302 q 618 280 626 295 q 508 162 580 207 q 349 118 435 118 q 134 207 223 118 q 45 422 45 296 q 134 638 45 549 q 349 727 223 727 q 508 683 435 727 q 618 565 580 638 q 612 543 626 550 q 600 541 605 539 q 589 549 592 544 q 491 655 555 615 q 349 694 427 694 q 157 615 236 694 q 77 422 77 536 q 157 230 77 309 q 349 151 236 151 q 491 190 427 151 q 589 296 555 230 q 600 304 592 301 q 612 302 605 306 m 567 553 q 561 555 564 551 q 471 640 527 608 q 349 672 415 672 q 173 599 246 672 q 100 422 100 526 q 173 246 100 319 q 349 173 246 173 q 471 205 415 173 q 561 290 527 237 q 567 292 564 294 q 569 285 572 289 q 476 196 534 229 q 349 163 418 163 q 166 239 242 163 q 90 422 90 315 q 166 606 90 530 q 349 682 242 682 q 476 649 418 682 q 569 559 534 616 q 567 553 572 555 m 383 465 l 383 410 q 370 401 376 408 l 370 465 q 369 473 370 470 q 366 476 368 475 q 359 477 365 477 l 359 479 l 376 479 l 395 479 l 395 477 q 387 476 389 477 q 384 473 385 475 q 383 465 383 471 m 359 380 l 359 384 q 366 385 365 384 q 369 388 368 385 q 375 398 371 394 q 381 403 378 401 l 383 404 l 383 395 q 384 388 383 389 q 387 385 385 386 q 395 384 389 384 l 395 380 q 387 381 393 380 q 376 381 380 381 q 366 381 372 381 q 359 380 360 380 m 252 444 q 243 434 250 438 q 228 429 237 429 l 229 428 q 239 425 236 427 q 245 419 243 423 q 249 410 248 414 l 252 395 q 254 389 254 390 q 256 385 256 386 q 260 384 258 384 q 263 385 262 384 l 264 386 q 266 388 265 387 q 267 389 267 389 l 269 388 q 262 381 267 384 q 254 379 259 379 q 245 382 248 379 q 239 394 242 384 l 236 408 q 234 414 235 410 q 233 419 233 418 q 229 425 233 422 q 220 428 224 428 l 207 428 l 207 395 q 208 388 207 391 q 211 385 210 385 q 218 384 212 384 l 218 380 q 211 381 217 380 q 201 381 205 381 q 190 381 196 381 q 183 380 184 380 l 183 384 q 190 385 189 384 q 193 388 192 386 q 194 395 194 389 l 194 465 q 193 473 194 471 q 190 476 192 475 q 183 477 189 477 l 183 479 l 200 479 l 212 479 l 221 479 q 239 476 231 479 q 251 468 247 473 q 254 455 254 464 q 252 444 254 448 m 239 441 q 241 454 241 446 q 235 471 241 464 q 218 477 231 477 q 211 476 212 477 q 208 472 210 475 q 207 465 207 469 l 207 431 l 216 431 q 231 433 227 431 q 239 441 237 437 m 331 385 q 334 389 334 386 q 332 395 334 391 l 323 418 l 322 421 l 307 463 l 290 421 l 290 418 l 284 404 q 281 392 281 395 q 284 386 281 388 q 293 384 287 384 l 293 380 q 285 381 290 380 q 277 381 280 381 q 272 381 275 381 q 267 380 268 380 l 267 384 q 277 395 273 386 l 311 480 l 313 480 l 347 393 q 357 384 349 384 l 357 380 q 350 381 355 380 q 342 381 345 381 q 331 381 337 381 q 323 380 325 380 l 323 384 q 331 385 330 384 m 449 427 q 457 418 454 423 q 460 406 460 413 q 456 391 460 397 q 445 382 452 385 q 430 378 437 378 q 419 380 427 378 q 411 384 416 381 q 406 386 408 386 q 404 385 406 386 q 404 380 404 384 l 400 380 q 401 413 401 385 l 404 413 q 411 390 404 399 q 429 382 416 382 q 438 383 435 382 q 445 390 443 385 q 448 400 448 393 q 445 410 448 406 q 437 418 441 416 q 426 426 429 425 q 412 435 414 433 q 404 444 408 439 q 401 457 401 450 q 404 471 401 465 q 414 479 409 476 q 427 481 419 481 q 434 480 430 481 q 437 480 435 480 q 439 479 439 479 q 444 476 444 477 q 449 474 447 474 q 451 475 450 474 q 452 480 452 476 l 455 480 q 454 452 454 475 l 451 452 q 448 465 450 463 q 441 475 447 470 q 429 479 435 479 q 420 477 424 479 q 414 471 416 475 q 411 463 411 465 q 416 450 411 456 q 427 441 418 447 q 435 437 431 439 q 449 427 442 433 m 541 421 q 523 419 534 419 l 519 419 l 514 419 q 505 422 506 420 q 507 425 505 424 q 511 426 508 426 q 543 429 532 426 q 561 440 555 433 q 566 461 566 448 l 566 462 l 566 462 l 566 462 l 566 462 l 566 462 l 566 462 l 566 462 l 568 462 l 568 462 l 568 462 l 568 462 l 568 462 l 568 462 l 568 462 l 568 461 q 562 439 568 448 q 543 428 557 432 q 511 425 532 425 l 508 425 q 511 421 505 422 q 515 420 513 420 q 519 420 517 420 q 523 420 522 420 q 541 422 532 420 q 557 430 551 426 q 570 441 566 435 q 576 458 576 449 q 572 469 576 464 q 566 478 568 476 q 556 484 561 481 q 547 487 548 487 q 531 488 542 488 q 518 488 522 488 q 506 485 510 486 q 500 483 504 484 q 494 481 496 482 q 489 479 492 481 q 484 477 485 477 l 481 475 q 477 473 478 474 l 475 471 q 467 463 469 465 q 464 452 464 459 l 464 451 q 472 437 465 441 q 495 437 482 431 l 495 437 l 496 437 l 496 437 l 496 437 l 496 437 l 496 437 l 496 437 l 496 437 l 496 436 l 496 436 l 496 436 l 496 436 l 496 436 q 471 435 481 428 q 463 450 464 440 l 463 450 l 463 451 l 462 451 l 462 452 l 462 454 q 463 460 462 456 q 465 465 464 463 q 468 469 466 467 l 470 471 l 473 473 l 476 475 q 490 484 486 482 q 504 488 494 486 q 519 491 508 490 q 533 492 524 492 q 543 491 540 492 q 553 488 550 490 q 562 484 559 486 q 570 477 568 479 q 576 467 573 474 q 577 458 577 464 q 575 447 577 452 q 573 444 574 446 q 571 441 572 443 q 569 439 570 439 q 563 433 566 435 q 557 429 559 430 q 541 421 549 424 m 491 398 l 513 471 q 514 471 513 471 q 515 471 515 471 q 516 470 516 471 l 516 469 l 492 398 q 492 397 492 397 q 491 398 491 397 m 635 454 l 633 454 l 633 455 l 633 456 l 634 458 q 635 460 634 460 l 637 459 l 637 458 l 635 454 q 635 454 635 454 m 826 427 q 828 425 828 426 q 827 420 828 422 q 819 418 826 420 q 787 424 816 418 q 741 424 760 430 q 707 425 719 417 l 704 428 l 699 419 q 697 417 699 418 q 696 415 696 416 l 694 411 l 692 407 q 688 402 689 403 q 682 399 684 398 q 682 413 680 399 q 682 417 682 414 q 683 422 682 420 q 685 427 684 424 q 686 431 686 429 q 687 435 686 432 q 688 439 688 438 q 682 430 684 433 q 676 422 680 427 q 669 414 672 416 q 662 412 665 412 q 659 414 661 412 q 659 423 657 417 q 656 420 658 422 q 654 416 654 418 q 644 407 648 409 q 635 410 637 404 q 635 425 633 416 q 626 413 633 422 q 616 398 619 404 q 614 393 614 396 q 612 388 614 390 q 606 373 611 385 q 600 356 602 361 q 594 347 597 351 q 592 344 593 345 l 591 344 q 589 345 589 344 q 588 349 588 347 q 589 355 588 350 q 599 374 591 360 q 614 399 606 388 q 625 429 622 422 q 622 426 624 428 q 619 424 621 425 q 613 425 616 421 l 612 423 q 611 421 612 422 q 610 420 610 420 q 608 416 609 417 l 606 414 q 599 416 601 411 q 599 426 597 420 q 598 425 598 426 l 597 425 q 594 424 596 424 q 593 425 593 424 q 594 435 591 426 q 583 424 588 430 q 574 410 579 420 l 573 410 l 572 410 l 572 411 q 576 427 573 416 q 578 434 576 429 q 581 441 580 439 q 520 409 562 410 l 519 409 l 519 409 l 519 409 l 519 410 l 519 410 l 519 410 l 519 410 l 519 410 l 519 411 l 520 411 q 584 452 565 411 q 585 452 584 452 l 586 452 l 587 451 l 587 451 l 585 446 l 579 431 l 577 423 q 575 419 576 422 q 574 416 574 416 q 581 426 578 422 q 589 435 584 429 l 595 440 l 596 441 l 597 441 l 597 442 l 599 441 l 599 440 q 598 438 599 439 q 597 436 597 437 q 594 425 592 426 q 600 429 597 425 q 611 441 604 440 q 613 439 613 441 q 614 437 614 438 l 614 436 q 615 435 615 435 q 614 433 615 434 l 614 431 l 614 429 l 614 428 l 613 427 l 614 426 q 620 426 616 422 q 622 428 621 427 q 624 431 623 430 q 627 435 625 433 l 627 437 q 628 437 627 437 l 629 437 l 629 437 l 629 437 l 629 437 l 629 436 q 618 405 623 418 q 626 415 620 407 q 635 428 631 424 l 636 430 q 642 441 638 436 q 650 445 646 446 q 652 435 655 443 q 644 421 649 422 q 641 422 642 421 l 641 424 l 642 424 q 643 422 642 422 q 648 429 647 422 l 648 430 q 650 442 653 441 q 643 437 647 443 q 638 423 640 431 q 639 410 637 415 q 648 412 642 406 q 657 424 652 416 q 659 426 658 425 q 659 427 659 427 l 659 428 l 660 429 q 666 440 662 435 q 675 445 669 446 q 680 442 678 445 q 680 437 681 439 q 675 434 678 434 q 671 436 672 433 q 673 438 671 438 q 675 437 674 438 q 679 438 677 435 q 679 441 679 439 q 675 444 678 445 q 661 422 667 441 q 662 414 658 415 q 676 424 667 412 q 690 448 686 436 l 684 448 q 684 448 684 448 l 684 449 l 690 450 q 698 469 695 463 q 701 469 699 471 q 702 467 702 468 q 694 450 694 453 q 715 451 705 452 q 732 453 726 450 q 739 463 739 455 l 741 464 q 740 452 748 456 q 720 449 739 448 q 693 449 701 450 q 687 429 689 441 q 686 427 686 429 q 686 425 686 425 q 685 420 685 423 l 683 411 q 682 400 680 401 q 687 403 684 399 q 692 409 690 407 l 693 412 q 695 416 694 413 q 698 420 697 418 q 701 425 699 422 q 703 429 702 427 q 702 432 702 431 q 705 440 700 438 q 707 440 706 441 q 705 429 709 437 l 708 426 q 741 425 719 418 q 787 425 760 431 q 819 420 816 420 q 826 422 824 421 q 827 425 827 422 q 825 426 827 426 q 824 426 825 427 q 823 425 823 426 q 824 424 823 425 q 825 424 825 425 q 825 422 826 423 l 825 422 l 823 422 q 822 425 822 422 q 826 427 822 429 m 600 416 q 609 420 602 410 q 612 426 611 423 q 610 427 610 426 q 607 431 607 428 q 608 435 607 433 q 608 436 608 435 q 609 438 608 437 l 608 437 l 606 435 l 606 434 q 602 426 602 430 q 600 418 600 422 q 600 417 600 418 q 600 416 600 416 m 612 427 q 613 433 613 431 q 612 439 613 437 l 612 438 l 611 438 q 610 437 610 438 q 610 436 610 437 q 609 434 609 435 l 609 431 q 612 427 609 428 m 610 389 l 610 390 q 601 374 608 387 q 591 355 592 358 q 590 349 590 349 q 591 346 590 347 q 592 348 591 347 q 597 357 595 352 q 610 389 597 358 m 706 439 q 703 436 704 439 q 704 431 703 433 q 706 439 709 437 m 311 644 l 314 632 l 294 627 l 296 618 l 314 623 l 317 611 l 300 606 l 302 599 l 322 604 l 326 591 l 290 582 l 277 635 l 311 644 m 413 583 l 398 586 l 399 618 l 379 589 l 374 589 l 366 623 l 356 593 l 340 595 l 358 648 l 373 646 l 381 614 l 399 642 l 414 640 l 413 583 m 218 605 q 239 610 229 612 q 258 599 252 608 q 262 578 264 589 q 250 559 260 567 l 232 547 l 200 592 l 218 605 m 245 590 q 236 596 241 595 q 226 593 231 597 l 220 589 l 236 567 l 241 571 q 245 590 253 579 m 497 584 q 498 578 497 584 q 491 562 498 572 q 472 550 484 551 q 450 557 460 549 q 437 576 439 565 q 442 598 435 588 q 462 610 451 610 q 484 604 473 612 q 497 584 495 595 m 479 572 q 476 592 488 583 q 465 595 471 596 q 455 589 459 593 q 458 568 446 577 q 479 572 469 559 m 472 297 q 491 286 483 296 q 497 263 498 275 q 484 243 495 252 q 461 237 473 235 q 442 248 450 238 q 436 270 435 258 q 449 290 438 282 q 472 297 459 298 m 455 258 q 476 255 465 245 q 479 275 488 264 q 469 281 475 280 q 458 279 463 283 q 455 258 446 269 m 317 243 l 298 250 l 296 241 l 313 237 l 309 224 l 292 229 l 290 221 l 310 216 l 307 203 l 271 213 l 287 267 l 321 256 l 317 243 m 387 203 l 383 202 l 363 231 l 364 199 l 349 197 l 349 253 l 363 255 l 381 227 l 389 259 l 404 262 l 421 208 l 406 205 l 397 237 l 387 203 m 254 274 q 255 268 254 274 q 248 253 256 262 q 229 242 241 243 q 208 250 218 241 l 191 264 l 226 307 l 243 293 q 254 274 252 285 m 229 286 l 212 265 l 216 261 q 236 263 227 252 q 234 282 245 273 l 229 286 m 471 496 q 465 497 467 493 q 416 542 446 526 q 350 559 385 559 q 284 542 314 559 q 235 496 254 526 q 229 494 233 492 q 227 501 224 497 q 279 550 247 532 q 350 568 312 568 q 420 550 387 568 q 472 502 452 532 q 471 496 475 498 m 471 361 q 478 363 474 366 q 480 356 483 360 q 427 298 462 320 q 350 277 392 277 q 271 300 307 277 q 218 362 235 323 q 220 368 216 366 l 221 368 q 226 366 224 370 q 276 308 242 330 q 350 286 309 286 q 422 307 389 286 q 471 361 454 327 m 144 421 q 198 559 144 500 q 202 561 199 561 q 205 560 204 561 q 205 553 209 556 q 154 421 154 496 q 197 298 154 352 q 197 292 200 294 q 190 292 193 289 q 144 421 144 349 m 545 382 q 549 386 546 386 q 549 386 549 386 q 550 385 549 385 q 554 380 555 384 q 515 295 545 334 q 509 294 512 291 q 507 300 505 296 q 545 382 535 337 m 503 559 q 507 557 505 559 q 532 522 519 543 q 530 515 534 518 q 524 517 526 513 q 499 551 512 538 q 500 557 497 555 q 503 559 501 559 z "},"$":{"ha":872,"x_min":45,"x_max":828,"o":"m 612 302 q 618 280 626 295 q 508 162 580 207 q 349 118 435 118 q 134 207 223 118 q 45 422 45 296 q 134 638 45 549 q 349 727 223 727 q 508 683 435 727 q 618 565 580 638 q 612 543 626 550 q 600 541 605 539 q 589 549 592 544 q 491 655 555 615 q 349 694 427 694 q 157 615 236 694 q 77 422 77 536 q 157 230 77 309 q 349 151 236 151 q 491 190 427 151 q 589 296 555 230 q 600 304 592 301 q 612 302 605 306 m 567 553 q 561 555 564 551 q 471 640 527 608 q 349 672 415 672 q 173 599 246 672 q 100 422 100 526 q 173 246 100 319 q 349 173 246 173 q 471 205 415 173 q 561 290 527 237 q 567 292 564 294 q 569 285 572 289 q 476 196 534 229 q 349 163 418 163 q 166 239 242 163 q 90 422 90 315 q 166 606 90 530 q 349 682 242 682 q 476 649 418 682 q 569 559 534 616 q 567 553 572 555 m 383 465 l 383 410 q 370 401 376 408 l 370 465 q 369 473 370 470 q 366 476 368 475 q 359 477 365 477 l 359 479 l 376 479 l 395 479 l 395 477 q 387 476 389 477 q 384 473 385 475 q 383 465 383 471 m 359 380 l 359 384 q 366 385 365 384 q 369 388 368 385 q 375 398 371 394 q 381 403 378 401 l 383 404 l 383 395 q 384 388 383 389 q 387 385 385 386 q 395 384 389 384 l 395 380 q 387 381 393 380 q 376 381 380 381 q 366 381 372 381 q 359 380 360 380 m 252 444 q 243 434 250 438 q 228 429 237 429 l 229 428 q 239 425 236 427 q 245 419 243 423 q 249 410 248 414 l 252 395 q 254 389 254 390 q 256 385 256 386 q 260 384 258 384 q 263 385 262 384 l 264 386 q 266 388 265 387 q 267 389 267 389 l 269 388 q 262 381 267 384 q 254 379 259 379 q 245 382 248 379 q 239 394 242 384 l 236 408 q 234 414 235 410 q 233 419 233 418 q 229 425 233 422 q 220 428 224 428 l 207 428 l 207 395 q 208 388 207 391 q 211 385 210 385 q 218 384 212 384 l 218 380 q 211 381 217 380 q 201 381 205 381 q 190 381 196 381 q 183 380 184 380 l 183 384 q 190 385 189 384 q 193 388 192 386 q 194 395 194 389 l 194 465 q 193 473 194 471 q 190 476 192 475 q 183 477 189 477 l 183 479 l 200 479 l 212 479 l 221 479 q 239 476 231 479 q 251 468 247 473 q 254 455 254 464 q 252 444 254 448 m 239 441 q 241 454 241 446 q 235 471 241 464 q 218 477 231 477 q 211 476 212 477 q 208 472 210 475 q 207 465 207 469 l 207 431 l 216 431 q 231 433 227 431 q 239 441 237 437 m 331 385 q 334 389 334 386 q 332 395 334 391 l 323 418 l 322 421 l 307 463 l 290 421 l 290 418 l 284 404 q 281 392 281 395 q 284 386 281 388 q 293 384 287 384 l 293 380 q 285 381 290 380 q 277 381 280 381 q 272 381 275 381 q 267 380 268 380 l 267 384 q 277 395 273 386 l 311 480 l 313 480 l 347 393 q 357 384 349 384 l 357 380 q 350 381 355 380 q 342 381 345 381 q 331 381 337 381 q 323 380 325 380 l 323 384 q 331 385 330 384 m 449 427 q 457 418 454 423 q 460 406 460 413 q 456 391 460 397 q 445 382 452 385 q 430 378 437 378 q 419 380 427 378 q 411 384 416 381 q 406 386 408 386 q 404 385 406 386 q 404 380 404 384 l 400 380 q 401 413 401 385 l 404 413 q 411 390 404 399 q 429 382 416 382 q 438 383 435 382 q 445 390 443 385 q 448 400 448 393 q 445 410 448 406 q 437 418 441 416 q 426 426 429 425 q 412 435 414 433 q 404 444 408 439 q 401 457 401 450 q 404 471 401 465 q 414 479 409 476 q 427 481 419 481 q 434 480 430 481 q 437 480 435 480 q 439 479 439 479 q 444 476 444 477 q 449 474 447 474 q 451 475 450 474 q 452 480 452 476 l 455 480 q 454 452 454 475 l 451 452 q 448 465 450 463 q 441 475 447 470 q 429 479 435 479 q 420 477 424 479 q 414 471 416 475 q 411 463 411 465 q 416 450 411 456 q 427 441 418 447 q 435 437 431 439 q 449 427 442 433 m 541 421 q 523 419 534 419 l 519 419 l 514 419 q 505 422 506 420 q 507 425 505 424 q 511 426 508 426 q 543 429 532 426 q 561 440 555 433 q 566 461 566 448 l 566 462 l 566 462 l 566 462 l 566 462 l 566 462 l 566 462 l 566 462 l 568 462 l 568 462 l 568 462 l 568 462 l 568 462 l 568 462 l 568 462 l 568 461 q 562 439 568 448 q 543 428 557 432 q 511 425 532 425 l 508 425 q 511 421 505 422 q 515 420 513 420 q 519 420 517 420 q 523 420 522 420 q 541 422 532 420 q 557 430 551 426 q 570 441 566 435 q 576 458 576 449 q 572 469 576 464 q 566 478 568 476 q 556 484 561 481 q 547 487 548 487 q 531 488 542 488 q 518 488 522 488 q 506 485 510 486 q 500 483 504 484 q 494 481 496 482 q 489 479 492 481 q 484 477 485 477 l 481 475 q 477 473 478 474 l 475 471 q 467 463 469 465 q 464 452 464 459 l 464 451 q 472 437 465 441 q 495 437 482 431 l 495 437 l 496 437 l 496 437 l 496 437 l 496 437 l 496 437 l 496 437 l 496 437 l 496 436 l 496 436 l 496 436 l 496 436 l 496 436 q 471 435 481 428 q 463 450 464 440 l 463 450 l 463 451 l 462 451 l 462 452 l 462 454 q 463 460 462 456 q 465 465 464 463 q 468 469 466 467 l 470 471 l 473 473 l 476 475 q 490 484 486 482 q 504 488 494 486 q 519 491 508 490 q 533 492 524 492 q 543 491 540 492 q 553 488 550 490 q 562 484 559 486 q 570 477 568 479 q 576 467 573 474 q 577 458 577 464 q 575 447 577 452 q 573 444 574 446 q 571 441 572 443 q 569 439 570 439 q 563 433 566 435 q 557 429 559 430 q 541 421 549 424 m 491 398 l 513 471 q 514 471 513 471 q 515 471 515 471 q 516 470 516 471 l 516 469 l 492 398 q 492 397 492 397 q 491 398 491 397 m 635 454 l 633 454 l 633 455 l 633 456 l 634 458 q 635 460 634 460 l 637 459 l 637 458 l 635 454 q 635 454 635 454 m 826 427 q 828 425 828 426 q 827 420 828 422 q 819 418 826 420 q 787 424 816 418 q 741 424 760 430 q 707 425 719 417 l 704 428 l 699 419 q 697 417 699 418 q 696 415 696 416 l 694 411 l 692 407 q 688 402 689 403 q 682 399 684 398 q 682 413 680 399 q 682 417 682 414 q 683 422 682 420 q 685 427 684 424 q 686 431 686 429 q 687 435 686 432 q 688 439 688 438 q 682 430 684 433 q 676 422 680 427 q 669 414 672 416 q 662 412 665 412 q 659 414 661 412 q 659 423 657 417 q 656 420 658 422 q 654 416 654 418 q 644 407 648 409 q 635 410 637 404 q 635 425 633 416 q 626 413 633 422 q 616 398 619 404 q 614 393 614 396 q 612 388 614 390 q 606 373 611 385 q 600 356 602 361 q 594 347 597 351 q 592 344 593 345 l 591 344 q 589 345 589 344 q 588 349 588 347 q 589 355 588 350 q 599 374 591 360 q 614 399 606 388 q 625 429 622 422 q 622 426 624 428 q 619 424 621 425 q 613 425 616 421 l 612 423 q 611 421 612 422 q 610 420 610 420 q 608 416 609 417 l 606 414 q 599 416 601 411 q 599 426 597 420 q 598 425 598 426 l 597 425 q 594 424 596 424 q 593 425 593 424 q 594 435 591 426 q 583 424 588 430 q 574 410 579 420 l 573 410 l 572 410 l 572 411 q 576 427 573 416 q 578 434 576 429 q 581 441 580 439 q 520 409 562 410 l 519 409 l 519 409 l 519 409 l 519 410 l 519 410 l 519 410 l 519 410 l 519 410 l 519 411 l 520 411 q 584 452 565 411 q 585 452 584 452 l 586 452 l 587 451 l 587 451 l 585 446 l 579 431 l 577 423 q 575 419 576 422 q 574 416 574 416 q 581 426 578 422 q 589 435 584 429 l 595 440 l 596 441 l 597 441 l 597 442 l 599 441 l 599 440 q 598 438 599 439 q 597 436 597 437 q 594 425 592 426 q 600 429 597 425 q 611 441 604 440 q 613 439 613 441 q 614 437 614 438 l 614 436 q 615 435 615 435 q 614 433 615 434 l 614 431 l 614 429 l 614 428 l 613 427 l 614 426 q 620 426 616 422 q 622 428 621 427 q 624 431 623 430 q 627 435 625 433 l 627 437 q 628 437 627 437 l 629 437 l 629 437 l 629 437 l 629 437 l 629 436 q 618 405 623 418 q 626 415 620 407 q 635 428 631 424 l 636 430 q 642 441 638 436 q 650 445 646 446 q 652 435 655 443 q 644 421 649 422 q 641 422 642 421 l 641 424 l 642 424 q 643 422 642 422 q 648 429 647 422 l 648 430 q 650 442 653 441 q 643 437 647 443 q 638 423 640 431 q 639 410 637 415 q 648 412 642 406 q 657 424 652 416 q 659 426 658 425 q 659 427 659 427 l 659 428 l 660 429 q 666 440 662 435 q 675 445 669 446 q 680 442 678 445 q 680 437 681 439 q 675 434 678 434 q 671 436 672 433 q 673 438 671 438 q 675 437 674 438 q 679 438 677 435 q 679 441 679 439 q 675 444 678 445 q 661 422 667 441 q 662 414 658 415 q 676 424 667 412 q 690 448 686 436 l 684 448 q 684 448 684 448 l 684 449 l 690 450 q 698 469 695 463 q 701 469 699 471 q 702 467 702 468 q 694 450 694 453 q 715 451 705 452 q 732 453 726 450 q 739 463 739 455 l 741 464 q 740 452 748 456 q 720 449 739 448 q 693 449 701 450 q 687 429 689 441 q 686 427 686 429 q 686 425 686 425 q 685 420 685 423 l 683 411 q 682 400 680 401 q 687 403 684 399 q 692 409 690 407 l 693 412 q 695 416 694 413 q 698 420 697 418 q 701 425 699 422 q 703 429 702 427 q 702 432 702 431 q 705 440 700 438 q 707 440 706 441 q 705 429 709 437 l 708 426 q 741 425 719 418 q 787 425 760 431 q 819 420 816 420 q 826 422 824 421 q 827 425 827 422 q 825 426 827 426 q 824 426 825 427 q 823 425 823 426 q 824 424 823 425 q 825 424 825 425 q 825 422 826 423 l 825 422 l 823 422 q 822 425 822 422 q 826 427 822 429 m 600 416 q 609 420 602 410 q 612 426 611 423 q 610 427 610 426 q 607 431 607 428 q 608 435 607 433 q 608 436 608 435 q 609 438 608 437 l 608 437 l 606 435 l 606 434 q 602 426 602 430 q 600 418 600 422 q 600 417 600 418 q 600 416 600 416 m 612 427 q 613 433 613 431 q 612 439 613 437 l 612 438 l 611 438 q 610 437 610 438 q 610 436 610 437 q 609 434 609 435 l 609 431 q 612 427 609 428 m 610 389 l 610 390 q 601 374 608 387 q 591 355 592 358 q 590 349 590 349 q 591 346 590 347 q 592 348 591 347 q 597 357 595 352 q 610 389 597 358 m 706 439 q 703 436 704 439 q 704 431 703 433 q 706 439 709 437 m 413 583 l 398 586 l 399 618 l 379 589 l 374 589 l 366 623 l 356 593 l 340 595 l 358 648 l 373 646 l 381 614 l 399 642 l 414 640 l 413 583 m 497 584 q 498 578 497 584 q 491 562 498 572 q 472 550 484 551 q 450 557 460 549 q 437 576 439 565 q 442 598 435 588 q 462 610 451 610 q 484 604 473 612 q 497 584 495 595 m 479 571 q 476 592 488 583 q 465 595 471 596 q 455 589 459 593 q 458 568 446 577 q 479 571 469 559 m 218 605 q 239 610 229 612 q 258 599 252 608 q 262 578 264 589 q 250 559 260 567 l 232 547 l 200 592 l 218 605 m 245 590 q 236 596 241 595 q 226 593 231 597 l 220 589 l 236 567 l 241 571 q 245 590 253 579 m 311 644 l 314 632 l 294 627 l 296 618 l 314 623 l 317 611 l 300 606 l 302 599 l 322 604 l 326 591 l 290 582 l 277 635 l 311 644 m 254 274 q 255 268 254 274 q 248 253 256 262 q 229 242 241 243 q 208 250 218 241 l 191 264 l 226 307 l 243 293 q 254 274 252 285 m 229 286 l 212 265 l 216 261 q 236 263 227 252 q 234 282 245 273 l 229 286 m 317 243 l 298 250 l 296 241 l 313 237 l 309 224 l 292 229 l 290 221 l 310 216 l 307 203 l 271 213 l 287 267 l 321 256 l 317 243 m 387 203 l 383 202 l 363 231 l 364 199 l 349 197 l 349 253 l 363 255 l 381 227 l 389 259 l 404 262 l 421 208 l 406 205 l 397 237 l 387 203 m 472 297 q 491 286 483 296 q 497 263 498 275 q 484 243 495 252 q 461 237 473 235 q 442 248 450 238 q 436 270 435 258 q 449 290 438 282 q 472 297 459 298 m 455 258 q 476 255 465 245 q 479 275 488 264 q 469 281 475 280 q 458 279 463 283 q 455 258 446 269 m 471 496 q 465 497 467 493 q 416 542 446 526 q 350 559 385 559 q 284 542 314 559 q 235 496 254 526 q 229 494 233 492 q 227 501 224 497 q 279 550 247 532 q 350 568 312 568 q 420 550 387 568 q 472 502 452 532 q 471 496 475 498 m 471 361 q 478 363 474 366 q 480 356 483 360 q 427 298 462 320 q 350 277 392 277 q 271 300 307 277 q 218 362 235 323 q 220 368 216 366 l 221 368 q 226 366 224 370 q 276 308 242 330 q 350 286 309 286 q 422 307 389 286 q 471 361 454 327 m 503 559 q 507 557 505 559 q 532 522 519 543 q 530 515 534 518 q 524 517 526 513 q 499 551 512 538 q 500 557 497 555 q 503 559 501 559 m 545 382 q 549 386 546 386 q 549 386 549 386 q 550 385 549 385 q 554 380 555 384 q 515 295 545 334 q 509 294 512 291 q 507 300 505 296 q 545 382 535 337 m 144 421 q 198 559 144 500 q 202 561 199 561 q 205 560 204 561 q 205 553 209 556 q 154 421 154 496 q 197 298 154 352 q 197 292 200 294 q 190 292 193 289 q 144 421 144 349 z "},"%":{"ha":872,"x_min":45,"x_max":828,"o":"m 612 302 q 618 280 626 295 q 508 162 580 207 q 349 118 435 118 q 134 207 223 118 q 45 422 45 296 q 134 638 45 549 q 349 727 223 727 q 508 683 435 727 q 618 565 580 638 q 612 543 626 550 q 600 541 605 539 q 589 549 592 544 q 491 655 555 615 q 349 694 427 694 q 157 615 236 694 q 77 422 77 536 q 157 230 77 309 q 349 151 236 151 q 491 190 427 151 q 589 296 555 230 q 600 304 592 301 q 612 302 605 306 m 567 553 q 561 555 564 551 q 471 640 527 608 q 349 672 415 672 q 173 599 246 672 q 100 422 100 526 q 173 246 100 319 q 349 173 246 173 q 471 205 415 173 q 561 290 527 237 q 567 292 564 294 q 569 285 572 289 q 476 196 534 229 q 349 163 418 163 q 166 239 242 163 q 90 422 90 315 q 166 606 90 530 q 349 682 242 682 q 476 649 418 682 q 569 559 534 616 q 567 553 572 555 m 383 465 l 383 410 q 370 401 376 408 l 370 465 q 369 473 370 470 q 366 476 368 475 q 359 477 365 477 l 359 479 l 376 479 l 395 479 l 395 477 q 387 476 389 477 q 384 473 385 475 q 383 465 383 471 m 359 380 l 359 384 q 366 385 365 384 q 369 388 368 385 q 375 398 371 394 q 381 403 378 401 l 383 404 l 383 395 q 384 388 383 389 q 387 385 385 386 q 395 384 389 384 l 395 380 q 387 381 393 380 q 376 381 380 381 q 366 381 372 381 q 359 380 360 380 m 252 444 q 243 434 250 438 q 228 429 237 429 l 229 428 q 239 425 236 427 q 245 419 243 423 q 249 410 248 414 l 252 395 q 254 389 254 390 q 256 385 256 386 q 260 384 258 384 q 263 385 262 384 l 264 386 q 266 388 265 387 q 267 389 267 389 l 269 388 q 262 381 267 384 q 254 379 259 379 q 245 382 248 379 q 239 394 242 384 l 236 408 q 234 414 235 410 q 233 419 233 418 q 229 425 233 422 q 220 428 224 428 l 207 428 l 207 395 q 208 388 207 391 q 211 385 210 385 q 218 384 212 384 l 218 380 q 211 381 217 380 q 201 381 205 381 q 190 381 196 381 q 183 380 184 380 l 183 384 q 190 385 189 384 q 193 388 192 386 q 194 395 194 389 l 194 465 q 193 473 194 471 q 190 476 192 475 q 183 477 189 477 l 183 479 l 200 479 l 212 479 l 221 479 q 239 476 231 479 q 251 468 247 473 q 254 455 254 464 q 252 444 254 448 m 239 441 q 241 454 241 446 q 235 471 241 464 q 218 477 231 477 q 211 476 212 477 q 208 472 210 475 q 207 465 207 469 l 207 431 l 216 431 q 231 433 227 431 q 239 441 237 437 m 331 385 q 334 389 334 386 q 332 395 334 391 l 323 418 l 322 421 l 307 463 l 290 421 l 290 418 l 284 404 q 281 392 281 395 q 284 386 281 388 q 293 384 287 384 l 293 380 q 285 381 290 380 q 277 381 280 381 q 272 381 275 381 q 267 380 268 380 l 267 384 q 277 395 273 386 l 311 480 l 313 480 l 347 393 q 357 384 349 384 l 357 380 q 350 381 355 380 q 342 381 345 381 q 331 381 337 381 q 323 380 325 380 l 323 384 q 331 385 330 384 m 449 427 q 457 418 454 423 q 460 406 460 413 q 456 391 460 397 q 445 382 452 385 q 430 378 437 378 q 419 380 427 378 q 411 384 416 381 q 406 386 408 386 q 404 385 406 386 q 404 380 404 384 l 400 380 q 401 413 401 385 l 404 413 q 411 390 404 399 q 429 382 416 382 q 438 383 435 382 q 445 390 443 385 q 448 400 448 393 q 445 410 448 406 q 437 418 441 416 q 426 426 429 425 q 412 435 414 433 q 404 444 408 439 q 401 457 401 450 q 404 471 401 465 q 414 479 409 476 q 427 481 419 481 q 434 480 430 481 q 437 480 435 480 q 439 479 439 479 q 444 476 444 477 q 449 474 447 474 q 451 475 450 474 q 452 480 452 476 l 455 480 q 454 452 454 475 l 451 452 q 448 465 450 463 q 441 475 447 470 q 429 479 435 479 q 420 477 424 479 q 414 471 416 475 q 411 463 411 465 q 416 450 411 456 q 427 441 418 447 q 435 437 431 439 q 449 427 442 433 m 541 421 q 523 419 534 419 l 519 419 l 514 419 q 505 422 506 420 q 507 425 505 424 q 511 426 508 426 q 543 429 532 426 q 561 440 555 433 q 566 461 566 448 l 566 462 l 566 462 l 566 462 l 566 462 l 566 462 l 566 462 l 566 462 l 568 462 l 568 462 l 568 462 l 568 462 l 568 462 l 568 462 l 568 462 l 568 461 q 562 439 568 448 q 543 428 557 432 q 511 425 532 425 l 508 425 q 511 421 505 422 q 515 420 513 420 q 519 420 517 420 q 523 420 522 420 q 541 422 532 420 q 557 430 551 426 q 570 441 566 435 q 576 458 576 449 q 572 469 576 464 q 566 478 568 476 q 556 484 561 481 q 547 487 548 487 q 531 488 542 488 q 518 488 522 488 q 506 485 510 486 q 500 483 504 484 q 494 481 496 482 q 489 479 492 481 q 484 477 485 477 l 481 475 q 477 473 478 474 l 475 471 q 467 463 469 465 q 464 452 464 459 l 464 451 q 472 437 465 441 q 495 437 482 431 l 495 437 l 496 437 l 496 437 l 496 437 l 496 437 l 496 437 l 496 437 l 496 437 l 496 436 l 496 436 l 496 436 l 496 436 l 496 436 q 471 435 481 428 q 463 450 464 440 l 463 450 l 463 451 l 462 451 l 462 452 l 462 454 q 463 460 462 456 q 465 465 464 463 q 468 469 466 467 l 470 471 l 473 473 l 476 475 q 490 484 486 482 q 504 488 494 486 q 519 491 508 490 q 533 492 524 492 q 543 491 540 492 q 553 488 550 490 q 562 484 559 486 q 570 477 568 479 q 576 467 573 474 q 577 458 577 464 q 575 447 577 452 q 573 444 574 446 q 571 441 572 443 q 569 439 570 439 q 563 433 566 435 q 557 429 559 430 q 541 421 549 424 m 491 398 l 513 471 q 514 471 513 471 q 515 471 515 471 q 516 470 516 471 l 516 469 l 492 398 q 492 397 492 397 q 491 398 491 397 m 635 454 l 633 454 l 633 455 l 633 456 l 634 458 q 635 460 634 460 l 637 459 l 637 458 l 635 454 q 635 454 635 454 m 826 427 q 828 425 828 426 q 827 420 828 422 q 819 418 826 420 q 787 424 816 418 q 741 424 760 430 q 707 425 719 417 l 704 428 l 699 419 q 697 417 699 418 q 696 415 696 416 l 694 411 l 692 407 q 688 402 689 403 q 682 399 684 398 q 682 413 680 399 q 682 417 682 414 q 683 422 682 420 q 685 427 684 424 q 686 431 686 429 q 687 435 686 432 q 688 439 688 438 q 682 430 684 433 q 676 422 680 427 q 669 414 672 416 q 662 412 665 412 q 659 414 661 412 q 659 423 657 417 q 656 420 658 422 q 654 416 654 418 q 644 407 648 409 q 635 410 637 404 q 635 425 633 416 q 626 413 633 422 q 616 398 619 404 q 614 393 614 396 q 612 388 614 390 q 606 373 611 385 q 600 356 602 361 q 594 347 597 351 q 592 344 593 345 l 591 344 q 589 345 589 344 q 588 349 588 347 q 589 355 588 350 q 599 374 591 360 q 614 399 606 388 q 625 429 622 422 q 622 426 624 428 q 619 424 621 425 q 613 425 616 421 l 612 423 q 611 421 612 422 q 610 420 610 420 q 608 416 609 417 l 606 414 q 599 416 601 411 q 599 426 597 420 q 598 425 598 426 l 597 425 q 594 424 596 424 q 593 425 593 424 q 594 435 591 426 q 583 424 588 430 q 574 410 579 420 l 573 410 l 572 410 l 572 411 q 576 427 573 416 q 578 434 576 429 q 581 441 580 439 q 520 409 562 410 l 519 409 l 519 409 l 519 409 l 519 410 l 519 410 l 519 410 l 519 410 l 519 410 l 519 411 l 520 411 q 584 452 565 411 q 585 452 584 452 l 586 452 l 587 451 l 587 451 l 585 446 l 579 431 l 577 423 q 575 419 576 422 q 574 416 574 416 q 581 426 578 422 q 589 435 584 429 l 595 440 l 596 441 l 597 441 l 597 442 l 599 441 l 599 440 q 598 438 599 439 q 597 436 597 437 q 594 425 592 426 q 600 429 597 425 q 611 441 604 440 q 613 439 613 441 q 614 437 614 438 l 614 436 q 615 435 615 435 q 614 433 615 434 l 614 431 l 614 429 l 614 428 l 613 427 l 614 426 q 620 426 616 422 q 622 428 621 427 q 624 431 623 430 q 627 435 625 433 l 627 437 q 628 437 627 437 l 629 437 l 629 437 l 629 437 l 629 437 l 629 436 q 618 405 623 418 q 626 415 620 407 q 635 428 631 424 l 636 430 q 642 441 638 436 q 650 445 646 446 q 652 435 655 443 q 644 421 649 422 q 641 422 642 421 l 641 424 l 642 424 q 643 422 642 422 q 648 429 647 422 l 648 430 q 650 442 653 441 q 643 437 647 443 q 638 423 640 431 q 639 410 637 415 q 648 412 642 406 q 657 424 652 416 q 659 426 658 425 q 659 427 659 427 l 659 428 l 660 429 q 666 440 662 435 q 675 445 669 446 q 680 442 678 445 q 680 437 681 439 q 675 434 678 434 q 671 436 672 433 q 673 438 671 438 q 675 437 674 438 q 679 438 677 435 q 679 441 679 439 q 675 444 678 445 q 661 422 667 441 q 662 414 658 415 q 676 424 667 412 q 690 448 686 436 l 684 448 q 684 448 684 448 l 684 449 l 690 450 q 698 469 695 463 q 701 469 699 471 q 702 467 702 468 q 694 450 694 453 q 715 451 705 452 q 732 453 726 450 q 739 463 739 455 l 741 464 q 740 452 748 456 q 720 449 739 448 q 693 449 701 450 q 687 429 689 441 q 686 427 686 429 q 686 425 686 425 q 685 420 685 423 l 683 411 q 682 400 680 401 q 687 403 684 399 q 692 409 690 407 l 693 412 q 695 416 694 413 q 698 420 697 418 q 701 425 699 422 q 703 429 702 427 q 702 432 702 431 q 705 440 700 438 q 707 440 706 441 q 705 429 709 437 l 708 426 q 741 425 719 418 q 787 425 760 431 q 819 420 816 420 q 826 422 824 421 q 827 425 827 422 q 825 426 827 426 q 824 426 825 427 q 823 425 823 426 q 824 424 823 425 q 825 424 825 425 q 825 422 826 423 l 825 422 l 823 422 q 822 425 822 422 q 826 427 822 429 m 600 416 q 609 420 602 410 q 612 426 611 423 q 610 427 610 426 q 607 431 607 428 q 608 435 607 433 q 608 436 608 435 q 609 438 608 437 l 608 437 l 606 435 l 606 434 q 602 426 602 430 q 600 418 600 422 q 600 417 600 418 q 600 416 600 416 m 612 427 q 613 433 613 431 q 612 439 613 437 l 612 438 l 611 438 q 610 437 610 438 q 610 436 610 437 q 609 434 609 435 l 609 431 q 612 427 609 428 m 610 389 l 610 390 q 601 374 608 387 q 591 355 592 358 q 590 349 590 349 q 591 346 590 347 q 592 348 591 347 q 597 357 595 352 q 610 389 597 358 m 706 439 q 703 436 704 439 q 704 431 703 433 q 706 439 709 437 m 413 583 l 398 586 l 399 618 l 379 589 l 374 589 l 366 623 l 356 593 l 340 595 l 358 648 l 373 646 l 381 614 l 399 642 l 414 640 l 413 583 m 497 584 q 498 578 497 584 q 491 562 498 572 q 472 550 484 551 q 450 557 460 549 q 437 576 439 565 q 442 598 435 588 q 462 610 451 610 q 484 604 473 612 q 497 584 495 595 m 479 571 q 476 592 488 583 q 465 595 471 596 q 455 589 459 593 q 458 568 446 577 q 479 571 469 559 m 311 644 l 314 632 l 294 627 l 296 618 l 314 623 l 317 611 l 300 606 l 302 599 l 322 604 l 326 591 l 290 582 l 277 635 l 311 644 m 218 605 q 239 610 229 612 q 258 599 252 608 q 262 578 264 589 q 250 559 260 567 l 232 547 l 200 592 l 218 605 m 245 590 q 236 596 241 595 q 226 593 231 597 l 220 589 l 236 567 l 241 571 q 245 590 253 579 m 472 297 q 491 286 483 296 q 497 263 498 275 q 484 243 495 252 q 461 237 473 235 q 442 248 450 238 q 436 270 435 258 q 449 290 438 282 q 472 297 459 298 m 455 258 q 476 255 465 245 q 479 275 488 264 q 469 281 475 280 q 458 279 463 283 q 455 258 446 269 m 317 243 l 298 250 l 296 241 l 313 237 l 309 224 l 292 229 l 290 221 l 310 216 l 307 203 l 271 213 l 287 267 l 321 256 l 317 243 m 254 274 q 255 268 254 274 q 248 253 256 262 q 229 242 241 243 q 208 250 218 241 l 191 264 l 226 307 l 243 293 q 254 274 252 285 m 229 286 l 212 265 l 216 261 q 236 263 227 252 q 234 282 245 273 l 229 286 m 387 203 l 383 202 l 363 231 l 364 199 l 349 197 l 349 253 l 363 255 l 381 227 l 389 259 l 404 262 l 421 208 l 406 205 l 397 237 l 387 203 m 471 361 q 478 363 474 366 q 480 356 483 360 q 427 298 462 320 q 350 277 392 277 q 271 300 307 277 q 218 362 235 323 q 220 368 216 366 l 221 368 q 226 366 224 370 q 276 308 242 330 q 350 286 309 286 q 422 307 389 286 q 471 361 454 327 m 471 496 q 465 497 467 493 q 416 542 446 526 q 350 559 385 559 q 284 542 314 559 q 235 496 254 526 q 229 494 233 492 q 227 501 224 497 q 279 550 247 532 q 350 568 312 568 q 420 550 387 568 q 472 502 452 532 q 471 496 475 498 m 503 559 q 507 557 505 559 q 532 522 519 543 q 530 515 534 518 q 524 517 526 513 q 499 551 512 538 q 500 557 497 555 q 503 559 501 559 m 144 421 q 198 559 144 500 q 202 561 199 561 q 205 560 204 561 q 205 553 209 556 q 154 421 154 496 q 197 298 154 352 q 197 292 200 294 q 190 292 193 289 q 144 421 144 349 m 545 382 q 549 386 546 386 q 549 386 549 386 q 550 385 549 385 q 554 380 555 384 q 515 295 545 334 q 509 294 512 291 q 507 300 505 296 q 545 382 535 337 z "},"&":{"ha":872,"x_min":45,"x_max":828,"o":"m 612 302 q 618 280 626 295 q 508 162 580 207 q 349 118 435 118 q 134 207 223 118 q 45 422 45 296 q 134 638 45 549 q 349 727 223 727 q 508 683 435 727 q 618 565 580 638 q 612 543 626 550 q 600 541 605 539 q 589 549 592 544 q 491 655 555 615 q 349 694 427 694 q 157 615 236 694 q 77 422 77 536 q 157 230 77 309 q 349 151 236 151 q 491 190 427 151 q 589 296 555 230 q 600 304 592 301 q 612 302 605 306 m 567 553 q 561 555 564 551 q 471 640 527 608 q 349 672 415 672 q 173 599 246 672 q 100 422 100 526 q 173 246 100 319 q 349 173 246 173 q 471 205 415 173 q 561 290 527 237 q 567 292 564 294 q 569 285 572 289 q 476 196 534 229 q 349 163 418 163 q 166 239 242 163 q 90 422 90 315 q 166 606 90 530 q 349 682 242 682 q 476 649 418 682 q 569 559 534 616 q 567 553 572 555 m 383 465 l 383 410 q 370 401 376 408 l 370 465 q 369 473 370 470 q 366 476 368 475 q 359 477 365 477 l 359 479 l 376 479 l 395 479 l 395 477 q 387 476 389 477 q 384 473 385 475 q 383 465 383 471 m 359 380 l 359 384 q 366 385 365 384 q 369 388 368 385 q 375 398 371 394 q 381 403 378 401 l 383 404 l 383 395 q 384 388 383 389 q 387 385 385 386 q 395 384 389 384 l 395 380 q 387 381 393 380 q 376 381 380 381 q 366 381 372 381 q 359 380 360 380 m 252 444 q 243 434 250 438 q 228 429 237 429 l 229 428 q 239 425 236 427 q 245 419 243 423 q 249 410 248 414 l 252 395 q 254 389 254 390 q 256 385 256 386 q 260 384 258 384 q 263 385 262 384 l 264 386 q 266 388 265 387 q 267 389 267 389 l 269 388 q 262 381 267 384 q 254 379 259 379 q 245 382 248 379 q 239 394 242 384 l 236 408 q 234 414 235 410 q 233 419 233 418 q 229 425 233 422 q 220 428 224 428 l 207 428 l 207 395 q 208 388 207 391 q 211 385 210 385 q 218 384 212 384 l 218 380 q 211 381 217 380 q 201 381 205 381 q 190 381 196 381 q 183 380 184 380 l 183 384 q 190 385 189 384 q 193 388 192 386 q 194 395 194 389 l 194 465 q 193 473 194 471 q 190 476 192 475 q 183 477 189 477 l 183 479 l 200 479 l 212 479 l 221 479 q 239 476 231 479 q 251 468 247 473 q 254 455 254 464 q 252 444 254 448 m 239 441 q 241 454 241 446 q 235 471 241 464 q 218 477 231 477 q 211 476 212 477 q 208 472 210 475 q 207 465 207 469 l 207 431 l 216 431 q 231 433 227 431 q 239 441 237 437 m 331 385 q 334 389 334 386 q 332 395 334 391 l 323 418 l 322 421 l 307 463 l 290 421 l 290 418 l 284 404 q 281 392 281 395 q 284 386 281 388 q 293 384 287 384 l 293 380 q 285 381 290 380 q 277 381 280 381 q 272 381 275 381 q 267 380 268 380 l 267 384 q 277 395 273 386 l 311 480 l 313 480 l 347 393 q 357 384 349 384 l 357 380 q 350 381 355 380 q 342 381 345 381 q 331 381 337 381 q 323 380 325 380 l 323 384 q 331 385 330 384 m 449 427 q 457 418 454 423 q 460 406 460 413 q 456 391 460 397 q 445 382 452 385 q 430 378 437 378 q 419 380 427 378 q 411 384 416 381 q 406 386 408 386 q 404 385 406 386 q 404 380 404 384 l 400 380 q 401 413 401 385 l 404 413 q 411 390 404 399 q 429 382 416 382 q 438 383 435 382 q 445 390 443 385 q 448 400 448 393 q 445 410 448 406 q 437 418 441 416 q 426 426 429 425 q 412 435 414 433 q 404 444 408 439 q 401 457 401 450 q 404 471 401 465 q 414 479 409 476 q 427 481 419 481 q 434 480 430 481 q 437 480 435 480 q 439 479 439 479 q 444 476 444 477 q 449 474 447 474 q 451 475 450 474 q 452 480 452 476 l 455 480 q 454 452 454 475 l 451 452 q 448 465 450 463 q 441 475 447 470 q 429 479 435 479 q 420 477 424 479 q 414 471 416 475 q 411 463 411 465 q 416 450 411 456 q 427 441 418 447 q 435 437 431 439 q 449 427 442 433 m 541 421 q 523 419 534 419 l 519 419 l 514 419 q 505 422 506 420 q 507 425 505 424 q 511 426 508 426 q 543 429 532 426 q 561 440 555 433 q 566 461 566 448 l 566 462 l 566 462 l 566 462 l 566 462 l 566 462 l 566 462 l 566 462 l 568 462 l 568 462 l 568 462 l 568 462 l 568 462 l 568 462 l 568 462 l 568 461 q 562 439 568 448 q 543 428 557 432 q 511 425 532 425 l 508 425 q 511 421 505 422 q 515 420 513 420 q 519 420 517 420 q 523 420 522 420 q 541 422 532 420 q 557 430 551 426 q 570 441 566 435 q 576 458 576 449 q 572 469 576 464 q 566 478 568 476 q 556 484 561 481 q 547 487 548 487 q 531 488 542 488 q 518 488 522 488 q 506 485 510 486 q 500 483 504 484 q 494 481 496 482 q 489 479 492 481 q 484 477 485 477 l 481 475 q 477 473 478 474 l 475 471 q 467 463 469 465 q 464 452 464 459 l 464 451 q 472 437 465 441 q 495 437 482 431 l 495 437 l 496 437 l 496 437 l 496 437 l 496 437 l 496 437 l 496 437 l 496 437 l 496 436 l 496 436 l 496 436 l 496 436 l 496 436 q 471 435 481 428 q 463 450 464 440 l 463 450 l 463 451 l 462 451 l 462 452 l 462 454 q 463 460 462 456 q 465 465 464 463 q 468 469 466 467 l 470 471 l 473 473 l 476 475 q 490 484 486 482 q 504 488 494 486 q 519 491 508 490 q 533 492 524 492 q 543 491 540 492 q 553 488 550 490 q 562 484 559 486 q 570 477 568 479 q 576 467 573 474 q 577 458 577 464 q 575 447 577 452 q 573 444 574 446 q 571 441 572 443 q 569 439 570 439 q 563 433 566 435 q 557 429 559 430 q 541 421 549 424 m 491 398 l 513 471 q 514 471 513 471 q 515 471 515 471 q 516 470 516 471 l 516 469 l 492 398 q 492 397 492 397 q 491 398 491 397 m 635 454 l 633 454 l 633 455 l 633 456 l 634 458 q 635 460 634 460 l 637 459 l 637 458 l 635 454 q 635 454 635 454 m 826 427 q 828 425 828 426 q 827 420 828 422 q 819 418 826 420 q 787 424 816 418 q 741 424 760 430 q 707 425 719 417 l 704 428 l 699 419 q 697 417 699 418 q 696 415 696 416 l 694 411 l 692 407 q 688 402 689 403 q 682 399 684 398 q 682 413 680 399 q 682 417 682 414 q 683 422 682 420 q 685 427 684 424 q 686 431 686 429 q 687 435 686 432 q 688 439 688 438 q 682 430 684 433 q 676 422 680 427 q 669 414 672 416 q 662 412 665 412 q 659 414 661 412 q 659 423 657 417 q 656 420 658 422 q 654 416 654 418 q 644 407 648 409 q 635 410 637 404 q 635 425 633 416 q 626 413 633 422 q 616 398 619 404 q 614 393 614 396 q 612 388 614 390 q 606 373 611 385 q 600 356 602 361 q 594 347 597 351 q 592 344 593 345 l 591 344 q 589 345 589 344 q 588 349 588 347 q 589 355 588 350 q 599 374 591 360 q 614 399 606 388 q 625 429 622 422 q 622 426 624 428 q 619 424 621 425 q 613 425 616 421 l 612 423 q 611 421 612 422 q 610 420 610 420 q 608 416 609 417 l 606 414 q 599 416 601 411 q 599 426 597 420 q 598 425 598 426 l 597 425 q 594 424 596 424 q 593 425 593 424 q 594 435 591 426 q 583 424 588 430 q 574 410 579 420 l 573 410 l 572 410 l 572 411 q 576 427 573 416 q 578 434 576 429 q 581 441 580 439 q 520 409 562 410 l 519 409 l 519 409 l 519 409 l 519 410 l 519 410 l 519 410 l 519 410 l 519 410 l 519 411 l 520 411 q 584 452 565 411 q 585 452 584 452 l 586 452 l 587 451 l 587 451 l 585 446 l 579 431 l 577 423 q 575 419 576 422 q 574 416 574 416 q 581 426 578 422 q 589 435 584 429 l 595 440 l 596 441 l 597 441 l 597 442 l 599 441 l 599 440 q 598 438 599 439 q 597 436 597 437 q 594 425 592 426 q 600 429 597 425 q 611 441 604 440 q 613 439 613 441 q 614 437 614 438 l 614 436 q 615 435 615 435 q 614 433 615 434 l 614 431 l 614 429 l 614 428 l 613 427 l 614 426 q 620 426 616 422 q 622 428 621 427 q 624 431 623 430 q 627 435 625 433 l 627 437 q 628 437 627 437 l 629 437 l 629 437 l 629 437 l 629 437 l 629 436 q 618 405 623 418 q 626 415 620 407 q 635 428 631 424 l 636 430 q 642 441 638 436 q 650 445 646 446 q 652 435 655 443 q 644 421 649 422 q 641 422 642 421 l 641 424 l 642 424 q 643 422 642 422 q 648 429 647 422 l 648 430 q 650 442 653 441 q 643 437 647 443 q 638 423 640 431 q 639 410 637 415 q 648 412 642 406 q 657 424 652 416 q 659 426 658 425 q 659 427 659 427 l 659 428 l 660 429 q 666 440 662 435 q 675 445 669 446 q 680 442 678 445 q 680 437 681 439 q 675 434 678 434 q 671 436 672 433 q 673 438 671 438 q 675 437 674 438 q 679 438 677 435 q 679 441 679 439 q 675 444 678 445 q 661 422 667 441 q 662 414 658 415 q 676 424 667 412 q 690 448 686 436 l 684 448 q 684 448 684 448 l 684 449 l 690 450 q 698 469 695 463 q 701 469 699 471 q 702 467 702 468 q 694 450 694 453 q 715 451 705 452 q 732 453 726 450 q 739 463 739 455 l 741 464 q 740 452 748 456 q 720 449 739 448 q 693 449 701 450 q 687 429 689 441 q 686 427 686 429 q 686 425 686 425 q 685 420 685 423 l 683 411 q 682 400 680 401 q 687 403 684 399 q 692 409 690 407 l 693 412 q 695 416 694 413 q 698 420 697 418 q 701 425 699 422 q 703 429 702 427 q 702 432 702 431 q 705 440 700 438 q 707 440 706 441 q 705 429 709 437 l 708 426 q 741 425 719 418 q 787 425 760 431 q 819 420 816 420 q 826 422 824 421 q 827 425 827 422 q 825 426 827 426 q 824 426 825 427 q 823 425 823 426 q 824 424 823 425 q 825 424 825 425 q 825 422 826 423 l 825 422 l 823 422 q 822 425 822 422 q 826 427 822 429 m 600 416 q 609 420 602 410 q 612 426 611 423 q 610 427 610 426 q 607 431 607 428 q 608 435 607 433 q 608 436 608 435 q 609 438 608 437 l 608 437 l 606 435 l 606 434 q 602 426 602 430 q 600 418 600 422 q 600 417 600 418 q 600 416 600 416 m 612 427 q 613 433 613 431 q 612 439 613 437 l 612 438 l 611 438 q 610 437 610 438 q 610 436 610 437 q 609 434 609 435 l 609 431 q 612 427 609 428 m 610 389 l 610 390 q 601 374 608 387 q 591 355 592 358 q 590 349 590 349 q 591 346 590 347 q 592 348 591 347 q 597 357 595 352 q 610 389 597 358 m 706 439 q 703 436 704 439 q 704 431 703 433 q 706 439 709 437 m 311 644 l 314 632 l 294 627 l 296 618 l 314 623 l 317 611 l 300 606 l 302 599 l 322 604 l 326 591 l 290 582 l 277 635 l 311 644 m 497 584 q 498 578 497 584 q 491 562 498 572 q 472 550 484 551 q 450 557 460 549 q 437 576 439 565 q 442 598 435 588 q 462 610 451 610 q 484 604 473 612 q 497 584 495 595 m 479 572 q 476 592 488 583 q 465 595 471 596 q 455 589 459 593 q 458 568 446 577 q 479 572 469 559 m 218 605 q 239 610 229 612 q 258 599 252 608 q 262 578 264 589 q 250 559 260 567 l 232 547 l 200 592 l 218 605 m 245 590 q 236 596 241 595 q 226 593 231 597 l 220 589 l 236 567 l 241 571 q 245 590 253 579 m 413 583 l 398 586 l 399 618 l 379 589 l 374 589 l 366 623 l 356 593 l 340 595 l 358 648 l 373 646 l 381 614 l 399 642 l 414 640 l 413 583 m 254 274 q 255 268 254 274 q 248 253 256 262 q 229 242 241 243 q 208 250 218 241 l 191 264 l 226 307 l 243 293 q 254 274 252 285 m 229 286 l 212 265 l 216 261 q 236 263 227 252 q 234 282 245 273 l 229 286 m 317 243 l 298 250 l 296 241 l 313 237 l 309 224 l 292 229 l 290 221 l 310 216 l 307 203 l 271 213 l 287 267 l 321 256 l 317 243 m 472 297 q 491 286 483 296 q 497 263 498 275 q 484 243 495 252 q 461 237 473 235 q 442 248 450 238 q 436 270 435 258 q 449 290 438 282 q 472 297 459 298 m 455 258 q 476 255 465 245 q 479 275 488 264 q 469 281 475 280 q 458 279 463 283 q 455 258 446 269 m 387 203 l 383 202 l 363 231 l 364 199 l 349 197 l 349 253 l 363 255 l 381 227 l 389 259 l 404 262 l 421 208 l 406 205 l 397 237 l 387 203 m 471 496 q 465 497 467 493 q 416 542 446 526 q 350 559 385 559 q 284 542 314 559 q 235 496 254 526 q 229 494 233 492 q 227 501 224 497 q 279 550 247 532 q 350 568 312 568 q 420 550 387 568 q 472 502 452 532 q 471 496 475 498 m 471 361 q 478 363 474 366 q 480 356 483 360 q 427 298 462 320 q 350 277 392 277 q 271 300 307 277 q 218 362 235 323 q 220 368 216 366 l 221 368 q 226 366 224 370 q 276 308 242 330 q 350 286 309 286 q 422 307 389 286 q 471 361 454 327 m 144 421 q 198 559 144 500 q 202 561 199 561 q 205 560 204 561 q 205 553 209 556 q 154 421 154 496 q 197 298 154 352 q 197 292 200 294 q 190 292 193 289 q 144 421 144 349 m 545 382 q 549 386 546 386 q 549 386 549 386 q 550 385 549 385 q 554 380 555 384 q 515 295 545 334 q 509 294 512 291 q 507 300 505 296 q 545 382 535 337 m 503 559 q 507 557 505 559 q 532 522 519 543 q 530 515 534 518 q 524 517 526 513 q 499 551 512 538 q 500 557 497 555 q 503 559 501 559 z "},"'":{"ha":872,"x_min":45,"x_max":828,"o":"m 612 302 q 618 280 626 295 q 508 162 580 207 q 349 118 435 118 q 134 207 223 118 q 45 422 45 296 q 134 638 45 549 q 349 727 223 727 q 508 683 435 727 q 618 565 580 638 q 612 543 626 550 q 600 541 605 539 q 589 549 592 544 q 491 655 555 615 q 349 694 427 694 q 157 615 236 694 q 77 422 77 536 q 157 230 77 309 q 349 151 236 151 q 491 190 427 151 q 589 296 555 230 q 600 304 592 301 q 612 302 605 306 m 567 553 q 561 555 564 551 q 471 640 527 608 q 349 672 415 672 q 173 599 246 672 q 100 422 100 526 q 173 246 100 319 q 349 173 246 173 q 471 205 415 173 q 561 290 527 237 q 567 292 564 294 q 569 285 572 289 q 476 196 534 229 q 349 163 418 163 q 166 239 242 163 q 90 422 90 315 q 166 606 90 530 q 349 682 242 682 q 476 649 418 682 q 569 559 534 616 q 567 553 572 555 m 383 465 l 383 410 q 370 401 376 408 l 370 465 q 369 473 370 470 q 366 476 368 475 q 359 477 365 477 l 359 479 l 376 479 l 395 479 l 395 477 q 387 476 389 477 q 384 473 385 475 q 383 465 383 471 m 359 380 l 359 384 q 366 385 365 384 q 369 388 368 385 q 375 398 371 394 q 381 403 378 401 l 383 404 l 383 395 q 384 388 383 389 q 387 385 385 386 q 395 384 389 384 l 395 380 q 387 381 393 380 q 376 381 380 381 q 366 381 372 381 q 359 380 360 380 m 252 444 q 243 434 250 438 q 228 429 237 429 l 229 428 q 239 425 236 427 q 245 419 243 423 q 249 410 248 414 l 252 395 q 254 389 254 390 q 256 385 256 386 q 260 384 258 384 q 263 385 262 384 l 264 386 q 266 388 265 387 q 267 389 267 389 l 269 388 q 262 381 267 384 q 254 379 259 379 q 245 382 248 379 q 239 394 242 384 l 236 408 q 234 414 235 410 q 233 419 233 418 q 229 425 233 422 q 220 428 224 428 l 207 428 l 207 395 q 208 388 207 391 q 211 385 210 385 q 218 384 212 384 l 218 380 q 211 381 217 380 q 201 381 205 381 q 190 381 196 381 q 183 380 184 380 l 183 384 q 190 385 189 384 q 193 388 192 386 q 194 395 194 389 l 194 465 q 193 473 194 471 q 190 476 192 475 q 183 477 189 477 l 183 479 l 200 479 l 212 479 l 221 479 q 239 476 231 479 q 251 468 247 473 q 254 455 254 464 q 252 444 254 448 m 239 441 q 241 454 241 446 q 235 471 241 464 q 218 477 231 477 q 211 476 212 477 q 208 472 210 475 q 207 465 207 469 l 207 431 l 216 431 q 231 433 227 431 q 239 441 237 437 m 331 385 q 334 389 334 386 q 332 395 334 391 l 323 418 l 322 421 l 307 463 l 290 421 l 290 418 l 284 404 q 281 392 281 395 q 284 386 281 388 q 293 384 287 384 l 293 380 q 285 381 290 380 q 277 381 280 381 q 272 381 275 381 q 267 380 268 380 l 267 384 q 277 395 273 386 l 311 480 l 313 480 l 347 393 q 357 384 349 384 l 357 380 q 350 381 355 380 q 342 381 345 381 q 331 381 337 381 q 323 380 325 380 l 323 384 q 331 385 330 384 m 449 427 q 457 418 454 423 q 460 406 460 413 q 456 391 460 397 q 445 382 452 385 q 430 378 437 378 q 419 380 427 378 q 411 384 416 381 q 406 386 408 386 q 404 385 406 386 q 404 380 404 384 l 400 380 q 401 413 401 385 l 404 413 q 411 390 404 399 q 429 382 416 382 q 438 383 435 382 q 445 390 443 385 q 448 400 448 393 q 445 410 448 406 q 437 418 441 416 q 426 426 429 425 q 412 435 414 433 q 404 444 408 439 q 401 457 401 450 q 404 471 401 465 q 414 479 409 476 q 427 481 419 481 q 434 480 430 481 q 437 480 435 480 q 439 479 439 479 q 444 476 444 477 q 449 474 447 474 q 451 475 450 474 q 452 480 452 476 l 455 480 q 454 452 454 475 l 451 452 q 448 465 450 463 q 441 475 447 470 q 429 479 435 479 q 420 477 424 479 q 414 471 416 475 q 411 463 411 465 q 416 450 411 456 q 427 441 418 447 q 435 437 431 439 q 449 427 442 433 m 491 398 l 513 471 q 514 471 513 471 q 515 471 515 471 q 516 470 516 471 l 516 469 l 492 398 q 492 397 492 397 q 491 398 491 397 m 541 421 q 523 419 534 419 l 519 419 l 514 419 q 505 422 506 420 q 507 425 505 424 q 511 426 508 426 q 543 429 532 426 q 561 440 555 433 q 566 461 566 448 l 566 462 l 566 462 l 566 462 l 566 462 l 566 462 l 566 462 l 566 462 l 568 462 l 568 462 l 568 462 l 568 462 l 568 462 l 568 462 l 568 462 l 568 461 q 562 439 568 448 q 543 428 557 432 q 511 425 532 425 l 508 425 q 511 421 505 422 q 515 420 513 420 q 519 420 517 420 q 523 420 522 420 q 541 422 532 420 q 557 430 551 426 q 570 441 566 435 q 576 458 576 449 q 572 469 576 464 q 566 478 568 476 q 556 484 561 481 q 547 487 548 487 q 531 488 542 488 q 518 488 522 488 q 506 485 510 486 q 500 483 504 484 q 494 481 496 482 q 489 479 492 481 q 484 477 485 477 l 481 475 q 477 473 478 474 l 475 471 q 467 463 469 465 q 464 452 464 459 l 464 451 q 472 437 465 441 q 495 437 482 431 l 495 437 l 496 437 l 496 437 l 496 437 l 496 437 l 496 437 l 496 437 l 496 437 l 496 436 l 496 436 l 496 436 l 496 436 l 496 436 q 471 435 481 428 q 463 450 464 440 l 463 450 l 463 451 l 462 451 l 462 452 l 462 454 q 463 460 462 456 q 465 465 464 463 q 468 469 466 467 l 470 471 l 473 473 l 476 475 q 490 484 486 482 q 504 488 494 486 q 519 491 508 490 q 533 492 524 492 q 543 491 540 492 q 553 488 550 490 q 562 484 559 486 q 570 477 568 479 q 576 467 573 474 q 577 458 577 464 q 575 447 577 452 q 573 444 574 446 q 571 441 572 443 q 569 439 570 439 q 563 433 566 435 q 557 429 559 430 q 541 421 549 424 m 635 454 l 633 454 l 633 455 l 633 456 l 634 458 q 635 460 634 460 l 637 459 l 637 458 l 635 454 q 635 454 635 454 m 826 427 q 828 425 828 426 q 827 420 828 422 q 819 418 826 420 q 787 424 816 418 q 741 424 760 430 q 707 425 719 417 l 704 428 l 699 419 q 697 417 699 418 q 696 415 696 416 l 694 411 l 692 407 q 688 402 689 403 q 682 399 684 398 q 682 413 680 399 q 682 417 682 414 q 683 422 682 420 q 685 427 684 424 q 686 431 686 429 q 687 435 686 432 q 688 439 688 438 q 682 430 684 433 q 676 422 680 427 q 669 414 672 416 q 662 412 665 412 q 659 414 661 412 q 659 423 657 417 q 656 420 658 422 q 654 416 654 418 q 644 407 648 409 q 635 410 637 404 q 635 425 633 416 q 626 413 633 422 q 616 398 619 404 q 614 393 614 396 q 612 388 614 390 q 606 373 611 385 q 600 356 602 361 q 594 347 597 351 q 592 344 593 345 l 591 344 q 589 345 589 344 q 588 349 588 347 q 589 355 588 350 q 599 374 591 360 q 614 399 606 388 q 625 429 622 422 q 622 426 624 428 q 619 424 621 425 q 613 425 616 421 l 612 423 q 611 421 612 422 q 610 420 610 420 q 608 416 610 418 q 606 414 607 416 q 599 416 601 411 q 599 426 597 420 q 598 425 598 426 l 597 425 q 594 424 596 424 q 593 425 593 424 q 594 435 591 426 q 583 424 588 430 q 574 410 579 420 l 573 410 l 572 410 l 572 411 q 576 427 573 416 q 578 434 576 429 q 581 441 580 439 q 520 409 562 410 l 519 409 l 519 409 l 519 409 l 519 410 l 519 410 l 519 410 l 519 410 l 519 410 l 519 410 l 519 410 l 519 411 l 520 411 q 584 452 565 411 q 585 452 584 452 l 586 452 l 587 451 l 587 451 l 585 446 l 579 431 l 577 423 q 575 419 576 422 q 574 416 574 416 q 581 426 578 422 q 589 435 584 429 l 595 440 l 596 441 l 597 441 l 597 442 l 599 441 l 599 440 q 598 438 599 439 q 597 436 597 437 q 594 425 592 426 q 600 429 597 425 q 611 441 604 440 q 613 439 613 441 q 614 437 614 438 l 614 436 q 615 435 615 435 q 614 433 615 434 l 614 431 l 614 429 l 614 428 l 613 427 l 614 426 q 620 426 616 422 q 622 428 621 427 q 624 431 623 430 q 627 435 625 433 l 627 437 q 628 437 627 437 l 629 437 l 629 437 l 629 437 l 629 437 l 629 436 q 618 405 623 418 q 626 415 620 407 q 635 428 631 424 l 636 430 q 642 441 638 436 q 650 445 646 446 q 652 435 655 443 q 644 421 649 422 q 641 422 642 421 l 641 424 l 642 424 q 643 422 642 422 q 648 429 647 422 l 648 430 q 650 442 653 441 q 643 437 647 443 q 638 423 640 431 q 639 410 637 415 q 648 412 642 406 q 657 424 652 416 q 659 426 658 425 q 659 427 659 427 l 659 428 l 660 429 q 666 440 662 435 q 675 445 669 446 q 680 442 678 445 q 680 437 681 439 q 675 434 678 434 q 671 436 672 433 q 673 438 671 438 q 675 437 674 438 q 679 438 677 435 q 679 441 679 439 q 675 444 678 445 q 661 422 667 441 q 662 414 658 415 q 676 424 667 412 q 690 448 686 436 l 684 448 q 684 448 684 448 l 684 449 l 690 450 q 698 469 695 463 q 701 469 699 471 q 702 467 702 468 q 694 450 694 453 q 715 451 705 452 q 732 453 726 450 q 739 463 739 455 l 741 464 q 740 452 748 456 q 720 449 739 448 q 693 449 701 450 q 687 429 689 441 q 686 427 686 429 q 686 425 686 425 q 685 420 685 423 l 683 411 q 682 400 680 401 q 687 403 684 399 q 692 409 690 407 l 693 412 q 695 416 694 413 q 698 420 697 418 q 701 425 699 422 q 703 429 702 427 q 702 432 702 431 q 705 440 700 438 q 707 440 706 441 q 705 429 709 437 l 708 426 q 741 425 719 418 q 787 425 760 431 q 819 420 816 420 q 826 422 824 421 q 827 425 827 422 q 825 426 827 426 q 824 426 825 427 q 823 425 823 426 q 824 424 823 425 q 825 424 825 425 q 825 422 826 423 l 825 422 l 823 422 q 822 425 822 422 q 826 427 822 429 m 600 416 q 609 420 602 410 q 612 426 611 423 q 610 427 610 426 q 607 431 607 428 q 608 435 607 433 q 608 436 608 435 q 609 438 608 437 l 608 437 l 606 435 l 606 434 q 601 426 602 429 q 600 418 600 423 q 600 417 600 418 q 600 416 600 416 m 612 427 q 613 433 613 431 q 612 439 613 437 l 612 438 l 611 438 q 610 437 610 438 q 610 436 610 437 q 609 434 609 435 l 609 431 q 612 427 609 428 m 610 389 l 610 390 q 601 374 608 387 q 591 355 592 358 q 590 349 590 349 q 591 346 590 347 q 592 348 591 347 q 597 357 595 352 q 610 389 597 358 m 706 439 q 703 436 704 439 q 704 431 703 433 q 706 439 709 437 m 311 644 l 314 632 l 294 627 l 296 618 l 314 623 l 317 611 l 300 606 l 302 599 l 322 604 l 326 591 l 290 582 l 277 635 l 311 644 m 413 583 l 398 586 l 399 618 l 379 589 l 374 589 l 366 623 l 356 593 l 340 595 l 358 648 l 373 646 l 381 614 l 399 642 l 414 640 l 413 583 m 497 584 q 498 578 497 584 q 491 562 498 572 q 472 550 484 551 q 450 557 460 549 q 437 576 439 565 q 442 598 435 588 q 462 610 451 610 q 484 604 473 612 q 497 584 495 595 m 479 572 q 476 592 488 583 q 465 595 471 596 q 455 589 459 593 q 458 568 446 577 q 479 572 469 559 m 218 605 q 239 610 229 612 q 258 599 252 608 q 262 578 264 589 q 250 559 260 567 l 232 547 l 200 592 l 218 605 m 245 590 q 236 596 241 595 q 226 593 231 597 l 220 589 l 236 567 l 241 571 q 245 590 253 579 m 472 297 q 491 286 483 296 q 497 263 498 275 q 484 243 495 252 q 461 237 473 235 q 442 248 450 238 q 436 270 435 258 q 449 290 438 282 q 472 297 459 298 m 455 258 q 476 255 465 245 q 479 275 488 264 q 469 281 475 280 q 458 279 463 283 q 455 258 446 269 m 317 243 l 298 250 l 296 241 l 313 237 l 309 224 l 292 229 l 290 221 l 310 216 l 307 203 l 271 213 l 287 267 l 321 256 l 317 243 m 254 274 q 255 268 254 274 q 248 253 256 262 q 229 242 241 243 q 208 250 218 241 l 191 264 l 226 307 l 243 293 q 254 274 252 285 m 229 286 l 212 265 l 216 261 q 236 263 227 252 q 234 282 245 273 l 229 286 m 387 203 l 383 202 l 363 231 l 364 199 l 349 197 l 349 253 l 363 255 l 381 227 l 389 259 l 404 262 l 421 208 l 406 205 l 397 237 l 387 203 m 471 496 q 465 497 467 493 q 416 542 446 526 q 350 559 385 559 q 284 542 314 559 q 235 496 254 526 q 229 494 233 492 q 227 501 224 497 q 279 550 247 532 q 350 568 312 568 q 420 550 387 568 q 472 502 452 532 q 471 496 475 498 m 471 361 q 478 363 474 366 q 480 356 483 360 q 427 298 462 320 q 350 277 392 277 q 271 300 307 277 q 218 362 235 323 q 220 368 216 366 l 221 368 q 226 366 224 370 q 276 308 242 330 q 350 286 309 286 q 422 307 389 286 q 471 361 454 327 m 503 559 q 507 557 505 559 q 532 522 519 543 q 530 515 534 518 q 524 517 526 513 q 499 551 512 538 q 500 557 497 555 q 503 559 501 559 m 144 421 q 198 559 144 500 q 202 561 199 561 q 205 560 204 561 q 205 553 209 556 q 154 421 154 496 q 197 298 154 352 q 197 292 200 294 q 190 292 193 289 q 144 421 144 349 m 545 382 q 549 386 546 386 q 549 386 549 386 q 550 385 549 385 q 554 380 555 384 q 515 295 545 334 q 509 294 512 291 q 507 300 505 296 q 545 382 535 337 z "}}}
